<?xml version="1.0" encoding="utf-8"?>
<!-- Generator: Adobe Illustrator 25.0.0, SVG Export Plug-In . SVG Version: 6.00 Build 0)  -->
<svg version="1.1" id="Layer_1" xmlns="http://www.w3.org/2000/svg" xmlns:xlink="http://www.w3.org/1999/xlink" x="0px" y="0px"
	 viewBox="0 0 512 512" style="enable-background:new 0 0 512 512;" xml:space="preserve">
<style type="text/css">
	.st0{fill:#D7E3FF;}
	.st1{clip-path:url(#SVGID_1_);}
	.st2{fill-rule:evenodd;clip-rule:evenodd;fill:#00237C;}
	.st3{fill:#FFCC00;}
</style>
<g>
	<path class="st0" d="M255.1,61.1c-107.6,0-195.2,87.6-195.2,195.2c0,107.6,87.6,195.2,195.2,195.2c107.6,0,195.2-87.6,195.2-195.2
		C450.3,148.7,362.8,61.1,255.1,61.1z"/>
	<g>
		<defs>
			<path id="SVGID_17_" d="M433.8,256.3c0,98.7-80,178.7-178.7,178.7c-98.7,0-178.7-80-178.7-178.7c0-98.7,80-178.7,178.7-178.7
				C353.8,77.7,433.8,157.7,433.8,256.3z"/>
		</defs>
		<clipPath id="SVGID_1_">
			<use xlink:href="#SVGID_17_"  style="overflow:visible;"/>
		</clipPath>
		<g class="st1">
			<rect x="43.3" y="41.1" class="st2" width="425.3" height="428.4"/>
			<g>
				<polygon class="st3" points="255.8,97 261.3,113.9 279,113.9 264.7,124.3 270.2,141.1 255.8,130.7 241.5,141.1 247,124.3 
					232.6,113.9 250.3,113.9 				"/>
				<polygon class="st3" points="255.8,369.5 261.3,386.4 279,386.4 264.7,396.8 270.2,413.6 255.8,403.2 241.5,413.6 247,396.8 
					232.6,386.4 250.3,386.4 				"/>
				<polygon class="st3" points="392.3,233.7 397.8,250.6 415.5,250.6 401.2,261 406.7,277.9 392.3,267.4 378,277.9 383.5,261 
					369.1,250.6 386.8,250.6 				"/>
				<polygon class="st3" points="119.6,233.2 125.1,250.1 142.8,250.1 128.4,260.5 133.9,277.4 119.6,267 105.2,277.4 110.7,260.5 
					96.4,250.1 114.1,250.1 				"/>
				<polygon class="st3" points="137.7,164.2 143.2,181.1 161,181.1 146.6,191.5 152.1,208.4 137.7,197.9 123.4,208.4 128.9,191.5 
					114.5,181.1 132.3,181.1 				"/>
				<polygon class="st3" points="186.3,114.3 191.8,131.1 209.6,131.1 195.2,141.5 200.7,158.4 186.3,148 172,158.4 177.5,141.5 
					163.1,131.1 180.9,131.1 				"/>
				<polygon class="st3" points="371.6,164.2 377.1,181.1 394.8,181.1 380.5,191.5 386,208.4 371.6,197.9 357.3,208.4 362.8,191.5 
					348.4,181.1 366.2,181.1 				"/>
				<polygon class="st3" points="322.6,114.3 328.1,131.1 345.8,131.1 331.5,141.5 336.9,158.4 322.6,148 308.2,158.4 313.7,141.5 
					299.4,131.1 317.1,131.1 				"/>
				<polygon class="st3" points="137.7,300.5 143.2,317.3 161,317.3 146.6,327.7 152.1,344.6 137.7,334.2 123.4,344.6 128.9,327.7 
					114.5,317.3 132.3,317.3 				"/>
				<polygon class="st3" points="186.3,349.1 191.8,365.9 209.6,365.9 195.2,376.3 200.7,393.2 186.3,382.8 172,393.2 177.5,376.3 
					163.1,365.9 180.9,365.9 				"/>
				<polygon class="st3" points="371.6,300.5 377.1,317.3 394.8,317.3 380.5,327.7 386,344.6 371.6,334.2 357.3,344.6 362.8,327.7 
					348.4,317.3 366.2,317.3 				"/>
				<polygon class="st3" points="322.6,349.1 328.1,365.9 345.8,365.9 331.5,376.3 336.9,393.2 322.6,382.8 308.2,393.2 
					313.7,376.3 299.4,365.9 317.1,365.9 				"/>
			</g>
		</g>
	</g>
</g>
</svg>
