<?xml version="1.0" encoding="utf-8"?>
<!-- Generator: Adobe Illustrator 25.0.0, SVG Export Plug-In . SVG Version: 6.00 Build 0)  -->
<svg version="1.1" id="Layer_1" xmlns="http://www.w3.org/2000/svg" xmlns:xlink="http://www.w3.org/1999/xlink" x="0px" y="0px"
	 viewBox="0 0 512 512" style="enable-background:new 0 0 512 512;" xml:space="preserve">
<style type="text/css">
	.st0{fill:#D7E3FF;}
	.st1{clip-path:url(#SVGID_1_);}
	.st2{fill:#00237C;}
	.st3{fill:#FFFFFF;}
	.st4{fill:#CF142B;}
</style>
<g>
	<path class="st0" d="M255.1,61.1c-107.6,0-195.2,87.6-195.2,195.2s87.6,195.2,195.2,195.2c107.6,0,195.2-87.6,195.2-195.2
		S362.8,61.1,255.1,61.1z"/>
	<g>
		<defs>
			
				<ellipse id="SVGID_15_" transform="matrix(0.7071 -0.7071 0.7071 0.7071 -106.5359 255.4937)" cx="255.1" cy="256.3" rx="178.7" ry="178.7"/>
		</defs>
		<clipPath id="SVGID_1_">
			<use xlink:href="#SVGID_15_"  style="overflow:visible;"/>
		</clipPath>
		<g class="st1">
			<g>
				<rect x="-17.7" y="69.9" class="st2" width="227.6" height="121.7"/>
				<g>
					<polygon class="st3" points="44.8,69.9 -17.7,69.9 -17.7,108.2 287.1,309.4 361.3,278.9 					"/>
				</g>
				<g>
					<polygon class="st4" points="-17.7,73.1 -17.7,99.4 291.1,303.3 303.2,285 					"/>
				</g>
			</g>
			<g>
				<rect x="303" y="69.9" class="st2" width="227.6" height="121.7"/>
				<g>
					<polygon class="st3" points="468.1,69.9 530.6,69.9 530.6,108.2 225.8,309.4 151.6,278.9 					"/>
				</g>
				<g>
					<polygon class="st4" points="530.6,73.1 530.6,99.4 221.8,303.3 209.7,285 					"/>
				</g>
			</g>
			<g>
				<rect x="303" y="315.2" class="st2" width="227.6" height="121.7"/>
				<g>
					<polygon class="st3" points="468.1,437 530.6,437 530.6,398.7 225.8,197.4 151.6,228 					"/>
				</g>
				<g>
					<polygon class="st4" points="530.6,433.8 530.6,407.5 221.8,203.5 209.7,221.9 					"/>
				</g>
			</g>
			<g>
				<rect x="-17.7" y="315.2" class="st2" width="227.6" height="121.7"/>
				<g>
					<polygon class="st3" points="44.8,437 -17.7,437 -17.7,398.7 287.1,197.4 361.3,228 					"/>
				</g>
				<g>
					<polygon class="st4" points="-17.7,433.8 -17.7,407.5 291.1,203.5 303.2,221.9 					"/>
				</g>
			</g>
			<polygon class="st3" points="530.6,191.7 303.4,191.7 303.4,69.9 208.5,69.9 208.5,191.7 -17.7,191.7 -17.7,312.5 208.5,312.5 
				208.5,437 303.4,437 303.4,312.5 530.6,312.5 			"/>
			<polygon class="st4" points="530.6,216.4 283.3,216.4 283.3,69.9 228.7,69.9 228.7,216.4 -17.7,216.4 -17.7,287.8 228.7,287.8 
				228.7,437 283.3,437 283.3,287.8 530.6,287.8 			"/>
		</g>
	</g>
</g>
</svg>
