<?xml version="1.0" encoding="utf-8"?>
<!-- Generator: Adobe Illustrator 25.0.0, SVG Export Plug-In . SVG Version: 6.00 Build 0)  -->
<svg version="1.1" id="Layer_1" xmlns="http://www.w3.org/2000/svg" xmlns:xlink="http://www.w3.org/1999/xlink" x="0px" y="0px"
	 viewBox="0 0 512 512" style="enable-background:new 0 0 512 512;" xml:space="preserve">
<style type="text/css">
	.st0{fill:#D7E3FF;}
	.st1{clip-path:url(#SVGID_1_);}
	.st2{fill:#FFFFFF;}
	.st3{fill:url(#SVGID_2_);}
	.st4{fill:url(#SVGID_3_);}
	.st5{fill:url(#SVGID_4_);}
	.st6{fill:url(#SVGID_5_);}
	.st7{fill:url(#SVGID_6_);}
	.st8{fill:url(#SVGID_7_);}
	.st9{fill:url(#SVGID_8_);}
	.st10{fill:url(#SVGID_9_);}
</style>
<g>
	<path class="st0" d="M255.1,61.1c-107.6,0-195.2,87.6-195.2,195.2s87.6,195.2,195.2,195.2c107.6,0,195.2-87.6,195.2-195.2
		S362.8,61.1,255.1,61.1z"/>
	<g>
		<defs>
			<path id="SVGID_19_" d="M433.8,256.3c0,98.7-80,178.7-178.7,178.7c-98.7,0-178.7-80-178.7-178.7c0-98.7,80-178.7,178.7-178.7
				C353.8,77.7,433.8,157.7,433.8,256.3z"/>
		</defs>
		<clipPath id="SVGID_1_">
			<use xlink:href="#SVGID_19_"  style="overflow:visible;"/>
		</clipPath>
		<g class="st1">
			<g>
				<rect x="-5" y="77.2" class="st2" width="462.9" height="367"/>
				<radialGradient id="SVGID_2_" cx="205.6372" cy="152.8738" r="211.8845" gradientUnits="userSpaceOnUse">
					<stop  offset="0" style="stop-color:#F66B59"/>
					<stop  offset="4.094017e-02" style="stop-color:#F46655"/>
					<stop  offset="0.6964" style="stop-color:#D41D1C"/>
					<stop  offset="1" style="stop-color:#C70006"/>
				</radialGradient>
				<rect x="-5" y="72.7" class="st3" width="462.9" height="29"/>
				<radialGradient id="SVGID_3_" cx="205.6372" cy="152.8713" r="211.8848" gradientUnits="userSpaceOnUse">
					<stop  offset="0" style="stop-color:#F66B59"/>
					<stop  offset="4.094017e-02" style="stop-color:#F46655"/>
					<stop  offset="0.6964" style="stop-color:#D41D1C"/>
					<stop  offset="1" style="stop-color:#C70006"/>
				</radialGradient>
				<rect x="-5" y="130.1" class="st4" width="462.9" height="29"/>
				<radialGradient id="SVGID_4_" cx="205.6372" cy="152.8739" r="211.8842" gradientUnits="userSpaceOnUse">
					<stop  offset="0" style="stop-color:#F66B59"/>
					<stop  offset="4.094017e-02" style="stop-color:#F46655"/>
					<stop  offset="0.6964" style="stop-color:#D41D1C"/>
					<stop  offset="1" style="stop-color:#C70006"/>
				</radialGradient>
				<rect x="-5" y="187.6" class="st5" width="462.9" height="29"/>
				<radialGradient id="SVGID_5_" cx="205.6372" cy="152.877" r="211.8817" gradientUnits="userSpaceOnUse">
					<stop  offset="0" style="stop-color:#F66B59"/>
					<stop  offset="4.094017e-02" style="stop-color:#F46655"/>
					<stop  offset="0.6964" style="stop-color:#D41D1C"/>
					<stop  offset="1" style="stop-color:#C70006"/>
				</radialGradient>
				<rect x="-5" y="245.1" class="st6" width="462.9" height="29"/>
				<radialGradient id="SVGID_6_" cx="205.6372" cy="152.8799" r="211.8804" gradientUnits="userSpaceOnUse">
					<stop  offset="0" style="stop-color:#F66B59"/>
					<stop  offset="4.094017e-02" style="stop-color:#F46655"/>
					<stop  offset="0.6964" style="stop-color:#D41D1C"/>
					<stop  offset="1" style="stop-color:#C70006"/>
				</radialGradient>
				<rect x="-5" y="302.5" class="st7" width="462.9" height="29"/>
				<radialGradient id="SVGID_7_" cx="205.6372" cy="152.8689" r="211.8849" gradientUnits="userSpaceOnUse">
					<stop  offset="0" style="stop-color:#F66B59"/>
					<stop  offset="4.094017e-02" style="stop-color:#F46655"/>
					<stop  offset="0.6964" style="stop-color:#D41D1C"/>
					<stop  offset="1" style="stop-color:#C70006"/>
				</radialGradient>
				<rect x="-5" y="360" class="st8" width="462.9" height="29"/>
				<radialGradient id="SVGID_8_" cx="205.6372" cy="152.8566" r="211.8905" gradientUnits="userSpaceOnUse">
					<stop  offset="0" style="stop-color:#F66B59"/>
					<stop  offset="4.094017e-02" style="stop-color:#F46655"/>
					<stop  offset="0.6964" style="stop-color:#D41D1C"/>
					<stop  offset="1" style="stop-color:#C70006"/>
				</radialGradient>
				<rect x="-5" y="417.5" class="st9" width="462.9" height="29"/>
			</g>
			<g>
				<radialGradient id="SVGID_9_" cx="356.2777" cy="282.2162" r="349.4827" gradientUnits="userSpaceOnUse">
					<stop  offset="0" style="stop-color:#004394"/>
					<stop  offset="0.2263" style="stop-color:#004394"/>
				</radialGradient>
				<rect x="-5" y="72.7" class="st10" width="283.6" height="201.4"/>
				<g>
					<polygon class="st2" points="21.3,83.6 24,90.9 31.8,91.3 25.7,96.1 27.8,103.6 21.3,99.3 14.8,103.6 16.9,96.1 10.8,91.3 
						18.6,90.9 					"/>
					<polygon class="st2" points="67.5,83.6 70.2,90.9 78,91.3 71.9,96.1 74,103.6 67.5,99.3 61,103.6 63.1,96.1 57,91.3 64.8,90.9 
											"/>
					<polygon class="st2" points="113.7,83.6 116.4,90.9 124.2,91.3 118.1,96.1 120.2,103.6 113.7,99.3 107.2,103.6 109.3,96.1 
						103.2,91.3 111,90.9 					"/>
					<polygon class="st2" points="160,83.6 162.7,90.9 170.4,91.3 164.3,96.1 166.4,103.6 160,99.3 153.5,103.6 155.6,96.1 
						149.5,91.3 157.2,90.9 					"/>
					<polygon class="st2" points="206.2,83.6 208.9,90.9 216.7,91.3 210.6,96.1 212.7,103.6 206.2,99.3 199.7,103.6 201.8,96.1 
						195.7,91.3 203.5,90.9 					"/>
					<polygon class="st2" points="252.4,83.6 255.1,90.9 262.9,91.3 256.8,96.1 258.9,103.6 252.4,99.3 245.9,103.6 248,96.1 
						241.9,91.3 249.7,90.9 					"/>
					<polygon class="st2" points="45.5,103.6 48.2,110.9 56,111.2 49.9,116.1 52,123.6 45.5,119.2 39,123.6 41.2,116.1 35,111.2 
						42.8,110.9 					"/>
					<polygon class="st2" points="91.8,103.6 94.5,110.9 102.2,111.2 96.1,116.1 98.2,123.6 91.8,119.2 85.3,123.6 87.4,116.1 
						81.3,111.2 89.1,110.9 					"/>
					<polygon class="st2" points="138,103.6 140.7,110.9 148.5,111.2 142.4,116.1 144.5,123.6 138,119.2 131.5,123.6 133.6,116.1 
						127.5,111.2 135.3,110.9 					"/>
					<polygon class="st2" points="184.2,103.6 186.9,110.9 194.7,111.2 188.6,116.1 190.7,123.6 184.2,119.2 177.7,123.6 
						179.8,116.1 173.7,111.2 181.5,110.9 					"/>
					<polygon class="st2" points="230.4,103.6 233.1,110.9 240.9,111.2 234.8,116.1 236.9,123.6 230.4,119.2 223.9,123.6 
						226.1,116.1 219.9,111.2 227.7,110.9 					"/>
					<polygon class="st2" points="21.3,123.6 24,130.9 31.8,131.2 25.7,136 27.8,143.5 21.3,139.2 14.8,143.5 16.9,136 10.8,131.2 
						18.6,130.9 					"/>
					<polygon class="st2" points="67.5,123.6 70.2,130.9 78,131.2 71.9,136 74,143.5 67.5,139.2 61,143.5 63.1,136 57,131.2 
						64.8,130.9 					"/>
					<polygon class="st2" points="113.7,123.6 116.4,130.9 124.2,131.2 118.1,136 120.2,143.5 113.7,139.2 107.2,143.5 109.3,136 
						103.2,131.2 111,130.9 					"/>
					<polygon class="st2" points="160,123.6 162.7,130.9 170.4,131.2 164.3,136 166.4,143.5 160,139.2 153.5,143.5 155.6,136 
						149.5,131.2 157.2,130.9 					"/>
					<polygon class="st2" points="206.2,123.6 208.9,130.9 216.7,131.2 210.6,136 212.7,143.5 206.2,139.2 199.7,143.5 201.8,136 
						195.7,131.2 203.5,130.9 					"/>
					<polygon class="st2" points="252.4,123.6 255.1,130.9 262.9,131.2 256.8,136 258.9,143.5 252.4,139.2 245.9,143.5 248,136 
						241.9,131.2 249.7,130.9 					"/>
					<polygon class="st2" points="45.5,143.6 48.2,150.9 56,151.2 49.9,156 52,163.5 45.5,159.2 39,163.5 41.2,156 35,151.2 
						42.8,150.9 					"/>
					<polygon class="st2" points="91.8,143.6 94.5,150.9 102.2,151.2 96.1,156 98.2,163.5 91.8,159.2 85.3,163.5 87.4,156 
						81.3,151.2 89.1,150.9 					"/>
					<polygon class="st2" points="138,143.6 140.7,150.9 148.5,151.2 142.4,156 144.5,163.5 138,159.2 131.5,163.5 133.6,156 
						127.5,151.2 135.3,150.9 					"/>
					<polygon class="st2" points="184.2,143.6 186.9,150.9 194.7,151.2 188.6,156 190.7,163.5 184.2,159.2 177.7,163.5 179.8,156 
						173.7,151.2 181.5,150.9 					"/>
					<polygon class="st2" points="230.4,143.6 233.1,150.9 240.9,151.2 234.8,156 236.9,163.5 230.4,159.2 223.9,163.5 226.1,156 
						219.9,151.2 227.7,150.9 					"/>
					<polygon class="st2" points="21.3,163.5 24,170.8 31.8,171.2 25.7,176 27.8,183.5 21.3,179.2 14.8,183.5 16.9,176 10.8,171.2 
						18.6,170.8 					"/>
					<polygon class="st2" points="67.5,163.5 70.2,170.8 78,171.2 71.9,176 74,183.5 67.5,179.2 61,183.5 63.1,176 57,171.2 
						64.8,170.8 					"/>
					<polygon class="st2" points="113.7,163.5 116.4,170.8 124.2,171.2 118.1,176 120.2,183.5 113.7,179.2 107.2,183.5 109.3,176 
						103.2,171.2 111,170.8 					"/>
					<polygon class="st2" points="160,163.5 162.7,170.8 170.4,171.2 164.3,176 166.4,183.5 160,179.2 153.5,183.5 155.6,176 
						149.5,171.2 157.2,170.8 					"/>
					<polygon class="st2" points="206.2,163.5 208.9,170.8 216.7,171.2 210.6,176 212.7,183.5 206.2,179.2 199.7,183.5 201.8,176 
						195.7,171.2 203.5,170.8 					"/>
					<polygon class="st2" points="252.4,163.5 255.1,170.8 262.9,171.2 256.8,176 258.9,183.5 252.4,179.2 245.9,183.5 248,176 
						241.9,171.2 249.7,170.8 					"/>
					<polygon class="st2" points="45.5,183.5 48.2,190.8 56,191.1 49.9,196 52,203.5 45.5,199.1 39,203.5 41.2,196 35,191.1 
						42.8,190.8 					"/>
					<polygon class="st2" points="91.8,183.5 94.5,190.8 102.2,191.1 96.1,196 98.2,203.5 91.8,199.1 85.3,203.5 87.4,196 
						81.3,191.1 89.1,190.8 					"/>
					<polygon class="st2" points="138,183.5 140.7,190.8 148.5,191.1 142.4,196 144.5,203.5 138,199.1 131.5,203.5 133.6,196 
						127.5,191.1 135.3,190.8 					"/>
					<polygon class="st2" points="184.2,183.5 186.9,190.8 194.7,191.1 188.6,196 190.7,203.5 184.2,199.1 177.7,203.5 179.8,196 
						173.7,191.1 181.5,190.8 					"/>
					<polygon class="st2" points="230.4,183.5 233.1,190.8 240.9,191.1 234.8,196 236.9,203.5 230.4,199.1 223.9,203.5 226.1,196 
						219.9,191.1 227.7,190.8 					"/>
					<polygon class="st2" points="21.3,203.5 24,210.8 31.8,211.1 25.7,215.9 27.8,223.4 21.3,219.1 14.8,223.4 16.9,215.9 
						10.8,211.1 18.6,210.8 					"/>
					<polygon class="st2" points="67.5,203.5 70.2,210.8 78,211.1 71.9,215.9 74,223.4 67.5,219.1 61,223.4 63.1,215.9 57,211.1 
						64.8,210.8 					"/>
					<polygon class="st2" points="113.7,203.5 116.4,210.8 124.2,211.1 118.1,215.9 120.2,223.4 113.7,219.1 107.2,223.4 
						109.3,215.9 103.2,211.1 111,210.8 					"/>
					<polygon class="st2" points="160,203.5 162.7,210.8 170.4,211.1 164.3,215.9 166.4,223.4 160,219.1 153.5,223.4 155.6,215.9 
						149.5,211.1 157.2,210.8 					"/>
					<polygon class="st2" points="206.2,203.5 208.9,210.8 216.7,211.1 210.6,215.9 212.7,223.4 206.2,219.1 199.7,223.4 
						201.8,215.9 195.7,211.1 203.5,210.8 					"/>
					<polygon class="st2" points="252.4,203.5 255.1,210.8 262.9,211.1 256.8,215.9 258.9,223.4 252.4,219.1 245.9,223.4 248,215.9 
						241.9,211.1 249.7,210.8 					"/>
					<polygon class="st2" points="45.5,223.5 48.2,230.8 56,231.1 49.9,235.9 52,243.4 45.5,239.1 39,243.4 41.2,235.9 35,231.1 
						42.8,230.8 					"/>
					<polygon class="st2" points="91.8,223.5 94.5,230.8 102.2,231.1 96.1,235.9 98.2,243.4 91.8,239.1 85.3,243.4 87.4,235.9 
						81.3,231.1 89.1,230.8 					"/>
					<polygon class="st2" points="138,223.5 140.7,230.8 148.5,231.1 142.4,235.9 144.5,243.4 138,239.1 131.5,243.4 133.6,235.9 
						127.5,231.1 135.3,230.8 					"/>
					<polygon class="st2" points="184.2,223.5 186.9,230.8 194.7,231.1 188.6,235.9 190.7,243.4 184.2,239.1 177.7,243.4 
						179.8,235.9 173.7,231.1 181.5,230.8 					"/>
					<polygon class="st2" points="230.4,223.5 233.1,230.8 240.9,231.1 234.8,235.9 236.9,243.4 230.4,239.1 223.9,243.4 
						226.1,235.9 219.9,231.1 227.7,230.8 					"/>
					<polygon class="st2" points="21.3,243.4 24,250.7 31.8,251.1 25.7,255.9 27.8,263.4 21.3,259.1 14.8,263.4 16.9,255.9 
						10.8,251.1 18.6,250.7 					"/>
					<polygon class="st2" points="67.5,243.4 70.2,250.7 78,251.1 71.9,255.9 74,263.4 67.5,259.1 61,263.4 63.1,255.9 57,251.1 
						64.8,250.7 					"/>
					<polygon class="st2" points="113.7,243.4 116.4,250.7 124.2,251.1 118.1,255.9 120.2,263.4 113.7,259.1 107.2,263.4 
						109.3,255.9 103.2,251.1 111,250.7 					"/>
					<polygon class="st2" points="160,243.4 162.7,250.7 170.4,251.1 164.3,255.9 166.4,263.4 160,259.1 153.5,263.4 155.6,255.9 
						149.5,251.1 157.2,250.7 					"/>
					<polygon class="st2" points="206.2,243.4 208.9,250.7 216.7,251.1 210.6,255.9 212.7,263.4 206.2,259.1 199.7,263.4 
						201.8,255.9 195.7,251.1 203.5,250.7 					"/>
					<polygon class="st2" points="252.4,243.4 255.1,250.7 262.9,251.1 256.8,255.9 258.9,263.4 252.4,259.1 245.9,263.4 248,255.9 
						241.9,251.1 249.7,250.7 					"/>
				</g>
			</g>
		</g>
	</g>
</g>
</svg>
