<?xml version="1.0" encoding="utf-8"?>
<!-- Generator: Adobe Illustrator 25.0.0, SVG Export Plug-In . SVG Version: 6.00 Build 0)  -->
<svg version="1.1" id="Layer_1" xmlns="http://www.w3.org/2000/svg" xmlns:xlink="http://www.w3.org/1999/xlink" x="0px" y="0px"
	 viewBox="0 0 200 65" style="enable-background:new 0 0 200 65;" xml:space="preserve">
<style type="text/css">
	.st0{fill:#0084FF;}
	.st1{fill:#002A64;}
	.st2{fill:#FFFFFF;}
</style>
<path class="st0" d="M35,23.8c-1-0.9-1.9-1.7-3-2.5c-1.1-0.7-2.2-1.4-3.4-2s-2.4-1-3.7-1.3c-1.3-0.3-2.5-0.5-3.8-0.5
	c-2.8,0-5.4,0.5-7.9,1.5s-4.6,2.5-6.5,4.3c-1.8,1.9-3.3,4.1-4.3,6.7c-1.1,2.6-1.6,5.4-1.6,8.6c0,3.3,0.5,6.3,1.6,8.9
	s2.5,4.8,4.3,6.6c1.8,1.8,4,3.1,6.5,4.1s5.1,1.4,7.9,1.4c1.3,0,2.6-0.2,3.8-0.5c1.3-0.3,2.5-0.7,3.7-1.3c1.2-0.6,2.3-1.2,3.4-2
	c1.1-0.7,2.1-1.5,3.1-2.5l3.9,5.5h2.5V19h-2.5L35,23.8z M30.4,42.6c-0.5,1.3-1.3,2.5-2.2,3.5c-0.9,1-2,1.8-3.2,2.4
	c-1.3,0.6-2.5,0.9-3.9,0.9c-1.4,0-2.7-0.2-3.9-0.7c-1.3-0.5-2.3-1.1-3.2-2.1s-1.6-2.1-2.1-3.4c-0.5-1.4-0.8-2.9-0.8-4.6
	c0-1.7,0.3-3.3,0.8-4.6c0.5-1.4,1.3-2.5,2.1-3.4c0.9-0.9,2-1.6,3.2-2.1c1.3-0.5,2.5-0.7,3.9-0.7c1.4,0,2.7,0.3,3.9,0.9
	c1.3,0.6,2.3,1.4,3.2,2.4c0.9,1,1.7,2.2,2.2,3.5s0.8,2.6,0.8,4.1C31.2,39.9,30.9,41.2,30.4,42.6z"/>
<polygon class="st0" points="59.4,19 59.4,58.9 49.2,58.9 49.2,23.5 57,19 "/>
<path class="st0" d="M59.2,3.3c-0.6-0.6-1.4-1.1-2.2-1.4c-0.8-0.3-1.7-0.5-2.7-0.5c-1,0-1.8,0.2-2.7,0.5c-0.9,0.3-1.5,0.9-2.2,1.4
	c-0.6,0.6-1.1,1.3-1.4,2.2c-0.3,0.9-0.5,1.7-0.5,2.6c0,1,0.2,1.8,0.5,2.6c0.3,0.8,0.9,1.5,1.4,2.1c0.6,0.6,1.3,1.1,2.2,1.4
	c0.8,0.3,1.7,0.5,2.7,0.5c1,0,1.8-0.2,2.7-0.5s1.5-0.9,2.2-1.4c0.6-0.6,1.1-1.3,1.5-2.1c0.3-0.8,0.5-1.7,0.5-2.6s-0.2-1.8-0.5-2.6
	C60.2,4.6,59.8,3.9,59.2,3.3z"/>
<path class="st0" d="M94.7,42.6c-0.5,1.3-1.3,2.5-2.2,3.5c-0.9,1-2,1.8-3.2,2.4c-1.3,0.6-2.5,0.9-3.9,0.9c-1.4,0-2.7-0.3-3.9-0.9
	c-1.3-0.6-2.3-1.4-3.2-2.3c-0.9-1-1.6-2.2-2.1-3.5c-0.5-1.3-0.8-2.7-0.8-4.2c0-1.7,0.3-3.2,0.8-4.6c0.5-1.3,1.3-2.5,2.1-3.4
	c0.9-0.9,2-1.7,3.2-2.1c1.2-0.5,2.5-0.7,3.9-0.7c1.4,0,2.7,0.3,3.9,0.9c1.3,0.6,2.3,1.4,3.2,2.4c0.9,1,1.7,2.2,2.2,3.5
	c0.5,1.3,0.8,2.6,0.8,4.1C95.5,39.9,95.2,41.2,94.7,42.6z M103.2,3.1l-7.7,5.4v13.2c-0.6-0.8-1.2-1.5-2-2c-0.8-0.6-1.7-1-2.6-1.3
	c-0.9-0.3-1.8-0.6-2.8-0.7c-1-0.2-1.9-0.2-2.8-0.2c-2.8,0-5.4,0.5-7.9,1.6c-2.5,1.1-4.6,2.6-6.5,4.5c-1.8,1.9-3.3,4.1-4.4,6.7
	c-1.1,2.6-1.6,5.4-1.6,8.4s0.5,5.8,1.6,8.4c1.1,2.6,2.5,4.8,4.4,6.7c1.8,1.9,4,3.3,6.5,4.4c2.5,1,5.1,1.6,7.9,1.6
	c1.3,0,2.6-0.2,3.8-0.5c1.3-0.3,2.5-0.7,3.7-1.3c1.2-0.6,2.3-1.2,3.4-2c1.1-0.7,2.1-1.5,3.1-2.5l3.9,5.5h2.5V3.1L103.2,3.1
	L103.2,3.1z"/>
<path class="st0" d="M138.7,19v1.5c-1.4,1.5-3.3,4.3-4.5,8.6h-2.8c-1.1,0-2.1,0.2-3,0.6c-1,0.4-1.8,1-2.5,1.7
	c-0.7,0.7-1.3,1.5-1.7,2.5c-0.4,1-0.6,1.9-0.6,3v22h-10.2V19h2.5l3.4,4.7c1.7-1.5,3.5-2.6,5.6-3.4c2.1-0.8,4.2-1.2,6.5-1.2L138.7,19
	L138.7,19z"/>
<g>
	<g>
		<g>
			<g>
				<g>
					<g>
						<g>
							<path class="st0" d="M197.9,28.5c-1.1-2.7-2.6-5-4.5-6.9s-4.2-3.4-6.7-4.5c-2.2-0.8-4.4-1.4-6.8-1.5c1.4,0.9,2.6,2,3.8,3.1
								c1.9,1.9,3.6,4.2,4.8,6.6l0,0c0.2,0.4,0.4,0.7,0.5,1c0.2,0.4,0.4,0.9,0.6,1.4c1.2,2.9,1.8,6.1,1.8,9.6c0,2.8-0.4,5.4-1.2,7.8
								l0,0c-1.3,4.1-3.6,7.8-6.5,10.8c-1.1,1.2-2.5,2.2-3.8,3.2c2.4-0.1,4.7-0.7,6.9-1.6c2.5-1.1,4.8-2.6,6.7-4.6
								c1.9-1.9,3.4-4.2,4.5-6.9c1.1-2.6,1.7-5.5,1.7-8.6C199.6,34.3,199.1,31.2,197.9,28.5z"/>
						</g>
					</g>
				</g>
			</g>
		</g>
	</g>
</g>
<g>
	<path class="st0" d="M186.4,37.5c0,6.6-2.6,12.5-6.9,16.8c-4.3,4.3-10.2,6.9-16.8,6.9c-5.4,0-10.4-1.8-14.4-4.9c0,0-0.1,0-0.1-0.1
		c0,0,0,0-0.1-0.1c0,0-0.1,0-0.1-0.1c-0.5-0.3-0.8-0.7-1.3-1.1c-0.4-0.4-0.8-0.7-1.2-1.1l0,0c0,0,0,0-0.1,0l0,0
		c-0.3-0.2-0.5-0.5-0.6-0.6l-0.1-0.1c-3.7-4.2-6-9.7-6-15.8c0-6.6,2.6-12.5,6.9-16.8c4.3-4.3,10.2-6.9,16.8-6.9
		c6.6,0,12.5,2.6,16.8,6.9C183.7,25,186.4,30.9,186.4,37.5z"/>
	<path class="st1" d="M183.4,37.5c0,5.7-2.3,10.9-6.1,14.6c-3.8,3.8-8.9,6.1-14.6,6.1c-4.7,0-9.1-1.6-12.6-4.3c0,0-0.1,0-0.1-0.1
		c0,0,0,0-0.1-0.1c0,0-0.1,0-0.1-0.1c-0.4-0.3-0.7-0.6-1.1-1c-0.3-0.3-0.7-0.6-1-1l0,0c0,0,0,0-0.1,0l0,0c-0.2-0.2-0.4-0.4-0.5-0.6
		l-0.1-0.1c-3.3-3.6-5.2-8.5-5.2-13.7c0-5.7,2.3-10.9,6.1-14.6c3.8-3.8,8.9-6.1,14.6-6.1c5.7,0,10.9,2.3,14.6,6.1
		C181,26.6,183.4,31.8,183.4,37.5z"/>
	<g>
		<g>
			<path class="st2" d="M169.3,39.8l3.9,12.5l-9.1-6.5v-0.1l2.6-4.5l-14.6,10.9l1-3.4c4.2-6,14-13.4,14-13.4
				c-8.2,0.2-13.6,2.7-13.6,2.7l-8-5.9h12.9l4.2-12.5l4,12.5l13.1,0.1L169.3,39.8z"/>
		</g>
		<path class="st0" d="M152.1,52.3c0,0,4.2-7.5,15-16.9c0,0-9.6,3.4-13.6,9.4L152.1,52.3z"/>
	</g>
</g>
</svg>
