<?xml version="1.0" encoding="utf-8"?>
<!-- Generator: Adobe Illustrator 25.0.0, SVG Export Plug-In . SVG Version: 6.00 Build 0)  -->
<svg version="1.1" id="Layer_1" xmlns="http://www.w3.org/2000/svg" xmlns:xlink="http://www.w3.org/1999/xlink" x="0px" y="0px"
	 viewBox="0 0 345 105" style="enable-background:new 0 0 345 105;" xml:space="preserve">
<style type="text/css">
	.st0{fill:#0084FF;}
	.st1{fill:#002A64;}
	.st2{fill:#FFFFFF;}
</style>
<g>
	<path class="st0" d="M62.3,40.7c-1.7-1.6-3.4-3-5.3-4.4c-1.9-1.3-3.9-2.5-6-3.5c-2.1-1-4.2-1.8-6.5-2.3c-2.2-0.6-4.4-0.9-6.7-0.9
		c-4.9,0-9.5,0.9-13.8,2.7c-4.3,1.8-8.1,4.3-11.3,7.6s-5.8,7.2-7.6,11.7c-1.9,4.5-2.8,9.5-2.8,15c0,5.8,0.9,11,2.8,15.6
		s4.4,8.4,7.6,11.6c3.2,3.1,7,5.5,11.3,7.2s8.9,2.5,13.8,2.5c2.3,0,4.5-0.3,6.7-0.8c2.2-0.6,4.3-1.3,6.4-2.3s4.1-2.1,6-3.5
		c1.9-1.3,3.7-2.7,5.4-4.3l6.9,9.6h4.3V32.4h-4.3L62.3,40.7z M54.2,73.6c-0.9,2.3-2.2,4.3-3.8,6.1c-1.6,1.8-3.5,3.2-5.6,4.2
		c-2.2,1.1-4.4,1.6-6.9,1.6c-2.4,0-4.7-0.4-6.9-1.2c-2.2-0.8-4-2-5.6-3.6s-2.8-3.6-3.7-6s-1.4-5.1-1.4-8.1s0.5-5.7,1.4-8.1
		s2.2-4.4,3.7-6c1.6-1.6,3.5-2.8,5.6-3.6c2.2-0.8,4.4-1.2,6.9-1.2c2.4,0,4.7,0.5,6.9,1.6s4,2.5,5.6,4.2c1.6,1.8,2.9,3.8,3.8,6.1
		s1.4,4.6,1.4,7.1C55.7,69,55.2,71.3,54.2,73.6z"/>
	<polygon class="st0" points="105,32.3 105,102.1 87.2,102.1 87.2,40.3 100.8,32.3 	"/>
	<path class="st0" d="M104.7,4.9c-1.1-1.1-2.4-1.9-3.8-2.5s-3-0.9-4.7-0.9S93,1.8,91.5,2.4s-2.7,1.5-3.8,2.5
		c-1.1,1.1-1.9,2.3-2.5,3.8s-0.9,3-0.9,4.6c0,1.7,0.3,3.2,0.9,4.6s1.5,2.7,2.5,3.7c1.1,1.1,2.3,1.9,3.8,2.5c1.4,0.6,3,0.9,4.7,0.9
		s3.2-0.3,4.7-0.9s2.7-1.5,3.8-2.5c1.1-1.1,1.9-2.3,2.6-3.7c0.6-1.4,0.9-3,0.9-4.6s-0.3-3.1-0.9-4.6C106.5,7.2,105.8,6,104.7,4.9z"
		/>
	<path class="st0" d="M166.8,73.6c-0.9,2.3-2.2,4.3-3.8,6.1c-1.6,1.8-3.5,3.2-5.6,4.2c-2.2,1.1-4.4,1.6-6.9,1.6
		c-2.4,0-4.7-0.5-6.9-1.5s-4-2.4-5.6-4.1s-2.8-3.8-3.7-6.1c-0.9-2.3-1.4-4.7-1.4-7.3c0-3,0.5-5.6,1.4-8c0.9-2.3,2.2-4.3,3.7-6
		c1.6-1.6,3.5-2.9,5.6-3.7s4.4-1.3,6.9-1.3c2.4,0,4.7,0.5,6.9,1.6s4,2.5,5.6,4.2c1.6,1.8,2.9,3.8,3.8,6.1c0.9,2.3,1.4,4.6,1.4,7.1
		S167.7,71.3,166.8,73.6z M181.7,4.5L168.2,14v23.1c-1-1.4-2.1-2.6-3.5-3.5c-1.4-1-2.9-1.7-4.5-2.3s-3.2-1-4.9-1.3s-3.3-0.4-4.9-0.4
		c-4.9,0-9.5,0.9-13.8,2.8c-4.3,1.9-8.1,4.5-11.3,7.8c-3.2,3.3-5.8,7.2-7.7,11.7s-2.8,9.4-2.8,14.7s0.9,10.2,2.8,14.7
		c1.9,4.5,4.4,8.4,7.7,11.7c3.2,3.3,7,5.8,11.3,7.7c4.3,1.8,8.9,2.8,13.8,2.8c2.3,0,4.5-0.3,6.7-0.8c2.2-0.6,4.3-1.3,6.4-2.3
		c2.1-1,4.1-2.1,6-3.5c1.9-1.3,3.7-2.7,5.4-4.3l6.9,9.6h4.3V4.6L181.7,4.5L181.7,4.5z"/>
	<path class="st0" d="M243.7,32.4v2.7c-2.4,2.7-5.8,7.5-7.8,15H231c-1.9,0-3.6,0.3-5.3,1s-3.1,1.7-4.3,2.9s-2.2,2.7-2.9,4.3
		c-0.7,1.7-1,3.4-1,5.3v38.5h-17.8V32.3h4.3l5.9,8.3c2.9-2.6,6.1-4.6,9.8-6s7.4-2.1,11.3-2.1L243.7,32.4L243.7,32.4z"/>
	<g>
		<g>
			<g>
				<g>
					<g>
						<g>
							<g>
								<path class="st0" d="M339.6,51.6c-1.8-4.5-4.3-8.3-7.5-11.5s-6.9-5.6-11.1-7.4c-3.6-1.4-7.3-2.3-11.3-2.5
									c2.3,1.5,4.4,3.3,6.3,5.2c3.2,3.2,5.9,6.9,8,11l0,0c0.3,0.6,0.6,1.1,0.9,1.7c0.4,0.7,0.7,1.5,1,2.3c2,4.8,3,10.1,3,16
									c0,4.6-0.7,8.9-2,12.9l0,0c-2.1,6.8-5.9,13-10.8,17.9c-1.9,2-4.1,3.7-6.3,5.3c4-0.2,7.8-1.2,11.4-2.7
									c4.2-1.9,8-4.4,11.1-7.6c3.2-3.2,5.7-7,7.5-11.5c1.8-4.4,2.8-9.2,2.8-14.3C342.4,61.1,341.5,56.1,339.6,51.6z"/>
							</g>
						</g>
					</g>
				</g>
			</g>
		</g>
	</g>
	<g>
		<path class="st1" d="M319.9,66.5c0,10.2-4.1,19.4-10.8,26.1c-6.7,6.7-15.9,10.8-26.1,10.8c-8.4,0-16.2-2.8-22.4-7.6
			c0,0-0.1,0-0.1-0.1c0,0,0,0-0.1-0.1c0,0-0.1,0-0.1-0.1c-0.7-0.5-1.3-1.1-2-1.7c-0.6-0.6-1.2-1.1-1.8-1.7l0,0c0,0,0,0-0.1,0l0,0
			c-0.4-0.3-0.7-0.7-0.9-1l-0.1-0.1c-5.8-6.5-9.3-15.1-9.3-24.5c0-10.2,4.1-19.4,10.8-26.1c6.7-6.7,15.9-10.8,26.1-10.8
			s19.4,4.1,26.1,10.8C315.6,47.1,319.9,56.3,319.9,66.5z"/>
		<g>
			<g>
				<path class="st2" d="M294.8,70.6l7,22.3l-16.2-11.6v-0.1l4.7-8l-26.1,19.5l1.7-6.1c7.5-10.7,24.9-24,24.9-24
					c-14.7,0.3-24.2,4.8-24.2,4.8l-14.2-10.6h23l7.5-22.3l7.2,22.3l23.3,0.1L294.8,70.6z"/>
			</g>
			<path class="st0" d="M264.1,92.9c0,0,7.5-13.3,26.7-30.2c0,0-17.1,6.1-24.3,16.8L264.1,92.9z"/>
		</g>
	</g>
</g>
</svg>
