<?xml version="1.0" encoding="utf-8"?>
<!-- Generator: Adobe Illustrator 25.0.0, SVG Export Plug-In . SVG Version: 6.00 Build 0)  -->
<svg version="1.1" id="Layer_1" xmlns="http://www.w3.org/2000/svg" xmlns:xlink="http://www.w3.org/1999/xlink" x="0px" y="0px"
	 viewBox="0 0 512 512" style="enable-background:new 0 0 512 512;" xml:space="preserve">
<style type="text/css">
	.st0{fill:#CF7F28;}
	.st1{fill:#E0AD38;}
	.st2{fill:#757575;}
	.st3{fill:#6A6A6A;}
	.st4{fill:#656565;}
	.st5{fill:#6F6F6F;}
	.st6{fill:#565656;}
	.st7{fill:#3F160D;}
	.st8{fill:#CF7F2A;}
	.st9{fill:#DDAB3B;}
	.st10{fill:#FFF8BB;}
	.st11{fill:#A09B85;}
	.st12{fill:#C6C0A8;}
	.st13{fill:#7D7C6F;}
	.st14{fill:#4E2011;}
	.st15{fill:#9F6F43;}
	.st16{fill:#915932;}
	.st17{fill:#271F0D;}
	.st18{fill:#E3C07C;}
	.st19{fill:#9B7E3E;}
	.st20{fill:#87692E;}
	.st21{fill:#EECC8D;}
	.st22{fill:#411612;}
</style>
<g>
	<g>
		<path class="st0" d="M179.3,195.9h-14.1c-0.7,0-1.2-0.5-1.2-1.2v-0.7c0-0.7,0.5-1.2,1.2-1.2h14.1c0.7,0,1.2,0.5,1.2,1.2v0.7
			C180.6,195.3,180,195.9,179.3,195.9z"/>
		<path class="st1" d="M183.9,202.9h-23.2c-1.1,0-2-0.9-2-2v-5.1c0-1.1,0.9-2,2-2h23.2c1.1,0,2,0.9,2,2v5.1
			C185.9,202,185,202.9,183.9,202.9z"/>
	</g>
	<g>
		<path class="st0" d="M344.3,195.9h-14.1c-0.7,0-1.2-0.5-1.2-1.2v-0.7c0-0.7,0.5-1.2,1.2-1.2h14.1c0.7,0,1.2,0.5,1.2,1.2v0.7
			C345.6,195.3,345,195.9,344.3,195.9z"/>
		<path class="st1" d="M348.9,202.9h-23.2c-1.1,0-2-0.9-2-2v-5.1c0-1.1,0.9-2,2-2h23.2c1.1,0,2,0.9,2,2v5.1
			C350.9,202,350,202.9,348.9,202.9z"/>
	</g>
	<g>
		<g>
			<path class="st2" d="M376.5,355.9c0,6.9-6.1,12.5-13.6,12.5H149.2c-7.5,0-13.6-5.6-13.6-12.5V227.4c0-6.9,6.1-12.5,13.6-12.5
				h213.7c7.5,0,13.6,5.6,13.6,12.5V355.9z"/>
			<path class="st3" d="M361.3,214.9h-38v153.5h38c8.4,0,15.2-5.6,15.2-12.5V227.4C376.5,220.5,369.7,214.9,361.3,214.9z"/>
			<path class="st4" d="M216.4,353.2c-7.5,0-13.6-5.6-13.6-12.5V214.9h-53.6c-7.5,0-13.6,5.6-13.6,12.5v128.5
				c0,6.9,6.1,12.5,13.6,12.5h213.7c7.5,0,13.6-5.6,13.6-12.5v-2.7H216.4z"/>
		</g>
		<path class="st2" d="M370.6,295.2c6.3-4.3,5.9-5.3,5.9-12.1v-74c0-6.8-5.5-12.4-12.4-12.4H147.9c-6.8,0-12.4,5.5-12.4,12.4v74
			c0,6.8,0,6.8,6.2,10.7l45.6,15.1h139L370.6,295.2z"/>
		<path class="st5" d="M376.5,283.1v-74c0-6.8-5.5-12.4-12.4-12.4h-40.8V309h-0.2l47.5-13.7C376.9,290.9,376.5,290,376.5,283.1z"/>
		<path class="st4" d="M203.3,196.8H147c-6.3,0-11.5,5.4-11.5,12.1v72.2c0,6.7,0,6.7,5.8,10.5l42.3,14.7h19.7V196.8z"/>
		<path class="st6" d="M376.5,241L376.5,241l-4.5,35.1c0,6.8,0.5,7.7-5.6,12.1l-42.6,13.7H189.9L146,286.8c-6-3.9-6-3.9-6-10.7
			l-4.5-35.1v42.2c0,6.8,0,6.8,6.2,10.7l45.6,15.1h136.4l44.1-12.9c2.2-0.6,4.3-1.7,6-3.3c2.9-2.6,2.6-4.3,2.6-9.6V241z"/>
		<path class="st5" d="M374,260.1l-2.1,20.3c0,0-5.6-4.4-5.7-4.7c-0.1-0.4,0.4-6.6,0.9-7.4S374,260.1,374,260.1z"/>
		<path class="st4" d="M140.1,279.8l-2.3-21.1l10.5,2.3c0,0,1.2,3.5,1.2,5.3s0.4,7.5,0,8.2S140.1,279.8,140.1,279.8z"/>
	</g>
	<g>
		<path class="st7" d="M277.6,319.7v11.5c0,2.8-2.3,5.2-5.2,5.2h-18.3c-2.4,0-4.4-1.6-5-3.8c-0.1-0.4-0.2-0.9-0.2-1.4v-11.5H277.6z"
			/>
		<path class="st7" d="M281.9,301.3v8.8c0,2.1-1.7,3.8-3.8,3.8h-0.5v6.2h-28.6v-7.8h-3.3c-0.1,0-0.2,0-0.4,0c-1.7-0.2-3-1.6-3-3.4
			c0-1.7,1.3-3.2,3-3.3c0.1,0,0.2,0,0.4,0h3.3v-15.5h28.6v7.4h0.5C280.2,297.5,281.9,299.2,281.9,301.3z"/>
		<rect x="245.4" y="290.1" class="st1" width="29.3" height="7.9"/>
		<path class="st8" d="M274.7,319.7v7.9c0,2.8-2.3,5.2-5.2,5.2h-19c-0.4,0-0.9-0.1-1.3-0.2c-2.2-0.6-3.9-2.6-3.9-5v-7.9H274.7z"/>
		<rect x="245.4" y="298" class="st8" width="29.3" height="22.2"/>
		<path class="st9" d="M271.8,319.7v4.8c0,2.9-2.3,5.2-5.2,5.2h-13c-1.9,0-3.6-1-4.5-2.5c-0.5-0.8-0.8-1.7-0.8-2.7v-4.8H271.8z"/>
		<path class="st9" d="M271.8,307.8v12.3h-23.5v-12.3c0-0.8,0.2-1.6,0.5-2.3c0.1-0.2,0.1-0.3,0.2-0.4c0.9-1.5,2.6-2.5,4.5-2.5h13
			C269.5,302.6,271.8,304.9,271.8,307.8z"/>
		<path class="st0" d="M272.3,290.1h2.4v11.4c-0.2,0-0.3,0.1-0.5,0.1c-1.1,0-1.9-0.9-1.9-1.9V290.1z"/>
		<g>
			<path class="st7" d="M249.1,290.9v-6.3c0-0.4,0.1-0.8,0.2-1.1c0.5-1.3,1.7-2.4,3.4-2.8c0.5-0.1,1-0.2,1.6-0.2h18.3
				c0.6,0,1.1,0.1,1.6,0.2c0.2,0,0.3,0.1,0.5,0.2c1.8,0.7,3,2.1,3,3.8v6.3H249.1z"/>
			<path class="st1" d="M274.7,282v11.5h-29.3V282c0-2.8,2.3-5.2,5.2-5.2h19c2.4,0,4.4,1.7,5,3.9c0,0.1,0,0.1,0,0.2
				C274.7,281.2,274.7,281.6,274.7,282z"/>
			<path class="st0" d="M274.7,282v11.5h-2.4v-10.8c0-1,0.8-1.9,1.8-1.9c0,0,0.1,0,0.1,0c0.1,0,0.2,0,0.3,0c0,0.1,0,0.1,0,0.2
				C274.7,281.2,274.7,281.6,274.7,282z"/>
			
				<ellipse transform="matrix(0.5726 -0.8198 0.8198 0.5726 -123.7511 325.6258)" class="st10" cx="250.4" cy="281.5" rx="3" ry="1.7"/>
		</g>
		<g>
			<path class="st11" d="M278.5,299.1v7.6c0,0.2,0,0.4-0.1,0.6c-0.3,1.3-1.4,2.3-2.8,2.3h-30.3c-1.4,0-2.6-1-2.8-2.3
				c0-0.2-0.1-0.4-0.1-0.6v-7.6c0-1.6,1.3-2.9,2.9-2.9h30.3C277.2,296.2,278.5,297.5,278.5,299.1z"/>
			<path class="st12" d="M274.5,296.2v0.5c0,4.4-3.5,7.9-7.9,7.9h-24.2v-5.6c0-1.6,1.3-2.9,2.9-2.9H274.5z"/>
			<path class="st13" d="M278.4,307.3c-0.3,1.3-1.4,2.3-2.8,2.3h-30.3c-1.4,0-2.6-1-2.8-2.3H278.4z"/>
		</g>
		<g>
			<g>
				<path class="st14" d="M268.5,313.9v10.4c0,1.4-1.2,2.6-2.6,2.6h-11.4c-1.4,0-2.6-1.2-2.6-2.6V314c0-1.4,1.2-2.6,2.6-2.6h11.4
					C267.3,311.4,268.5,312.5,268.5,313.9z"/>
			</g>
			<g>
				<path class="st15" d="M264.7,314.1h-9c-0.5,0-0.9,0.4-0.9,0.9v8.3c0,0.5,0.4,0.9,0.9,0.9h3.6l6.2-9.6
					C265.4,314.3,265.1,314.1,264.7,314.1z"/>
				<path class="st16" d="M259.3,324.2h5.4c0.5,0,0.9-0.4,0.9-0.9V315c0-0.1,0-0.3-0.1-0.4L259.3,324.2z"/>
			</g>
			<path class="st17" d="M262.2,317.6c0-1.1-0.9-2-2-2c-1.1,0-2,0.9-2,2c0,0.8,0.5,1.5,1.2,1.8v3.3h1.6v-3.3
				C261.7,319.2,262.2,318.5,262.2,317.6z"/>
		</g>
	</g>
	<g>
		<path class="st1" d="M225.6,199.3h-14.7c-1.2,0-2.1,0.9-2.1,2.1v7.9c0,1.2,0.9,2.1,2.1,2.1h14.7c1.2,0,2.1-0.9,2.1-2.1v-7.9
			C227.7,200.2,226.7,199.3,225.6,199.3z M225.1,207.9c0,0.7-0.7,1.3-1.5,1.3h-10.6c-0.8,0-1.5-0.6-1.5-1.3v-5
			c0-0.7,0.7-1.3,1.5-1.3h10.6c0.8,0,1.5,0.6,1.5,1.3V207.9z"/>
		<path class="st18" d="M226.9,199.8c-0.4-0.3-0.9-0.5-1.4-0.5h-14.7c-0.5,0-1,0.2-1.4,0.5H226.9z"/>
		<path class="st18" d="M227.7,204.6v-3.1h-4.1c0.8,0,1.5,0.6,1.5,1.3v1.7H227.7z"/>
		<path class="st18" d="M208.8,201.5v3.1h2.6v-1.7c0-0.7,0.7-1.3,1.5-1.3H208.8z"/>
		<path class="st19" d="M225.1,207.7v0.2c0,0.7-0.7,1.3-1.5,1.3h-10.6c-0.8,0-1.5-0.6-1.5-1.3v-0.2h-2.6v1.6c0,1.2,0.9,2.1,2.1,2.1
			h14.7c1.2,0,2.1-0.9,2.1-2.1v-1.6H225.1z"/>
		<path class="st20" d="M208.8,209.7c0.2,1,1,1.7,2.1,1.7h14.7c1,0,1.9-0.7,2.1-1.7H208.8z"/>
		<path class="st21" d="M212.9,209.8h10.6c0.8,0,1.5-0.6,1.5-1.3v-0.6c0,0.7-0.7,1.3-1.5,1.3h-10.6c-0.8,0-1.5-0.6-1.5-1.3v0.6
			C211.4,209.2,212.1,209.8,212.9,209.8z"/>
		<path class="st5" d="M211.8,205.7c0,1.2,0.9,2.1,2.1,2.1h8.7c1.2,0,2.1-0.9,2.1-2.1V199c0-1.2-0.9-2.1-2.1-2.1h-8.7
			c-1.2,0-2.1,0.9-2.1,2.1V205.7z"/>
		<path class="st22" d="M211.8,205.8c0,1.2,1,2.1,2.1,2.1h8.7c1.2,0,2.1-0.9,2.1-2.1H211.8z"/>
		<path class="st1" d="M307.6,199.3H293c-1.2,0-2.1,0.9-2.1,2.1v7.9c0,1.2,0.9,2.1,2.1,2.1h14.7c1.2,0,2.1-0.9,2.1-2.1v-7.9
			C309.7,200.2,308.8,199.3,307.6,199.3z M307.1,207.9c0,0.7-0.7,1.3-1.5,1.3H295c-0.8,0-1.5-0.6-1.5-1.3v-5c0-0.7,0.7-1.3,1.5-1.3
			h10.6c0.8,0,1.5,0.6,1.5,1.3V207.9z"/>
		<path class="st18" d="M309,199.8c-0.4-0.3-0.9-0.5-1.4-0.5H293c-0.5,0-1,0.2-1.4,0.5H309z"/>
		<path class="st18" d="M309.7,204.6v-3.1h-4.1c0.8,0,1.5,0.6,1.5,1.3v1.7H309.7z"/>
		<path class="st18" d="M290.8,201.5v3.1h2.6v-1.7c0-0.7,0.7-1.3,1.5-1.3H290.8z"/>
		<path class="st19" d="M307.1,207.7v0.2c0,0.7-0.7,1.3-1.5,1.3H295c-0.8,0-1.5-0.6-1.5-1.3v-0.2h-2.6v1.6c0,1.2,0.9,2.1,2.1,2.1
			h14.7c1.2,0,2.1-0.9,2.1-2.1v-1.6H307.1z"/>
		<path class="st20" d="M290.9,209.7c0.2,1,1,1.7,2.1,1.7h14.7c1,0,1.9-0.7,2.1-1.7H290.9z"/>
		<path class="st21" d="M295,209.8h10.6c0.8,0,1.5-0.6,1.5-1.3v-0.6c0,0.7-0.7,1.3-1.5,1.3H295c-0.8,0-1.5-0.6-1.5-1.3v0.6
			C293.4,209.2,294.1,209.8,295,209.8z"/>
		<path class="st5" d="M293.8,205.7c0,1.2,0.9,2.1,2.1,2.1h8.7c1.2,0,2.1-0.9,2.1-2.1V199c0-1.2-0.9-2.1-2.1-2.1h-8.7
			c-1.2,0-2.1,0.9-2.1,2.1V205.7z"/>
		<path class="st22" d="M293.8,205.8c0,1.2,1,2.1,2.1,2.1h8.7c1.2,0,2.1-0.9,2.1-2.1H293.8z"/>
		<path class="st5" d="M224.7,197.8v-10.5c0-5.5,4.4-9.9,9.9-9.9h49.2c5.5,0,9.9,4.4,9.9,9.9v10.5h13.3c0-0.4,0.1-0.8,0.1-1.1v-16.6
			c0-7.6-6.2-13.7-13.7-13.7h-68.3c-7.6,0-13.7,6.2-13.7,13.7v16.6c0,0.4,0,0.8,0.1,1.1H224.7z"/>
		<path class="st6" d="M298,183.5c0-6.1-5-11.1-11.1-11.1h-55.3c-6.1,0-11.1,5-11.1,11.1v13.4c0,0.3,0,0.6,0,0.9h4.2v-10.5
			c0-5.5,4.4-9.9,9.9-9.9h49.2c5.5,0,9.9,4.4,9.9,9.9v10.5h4.2c0-0.3,0-0.6,0-0.9V183.5z"/>
		<path class="st4" d="M293.4,166.3h-68.3c-7.6,0-13.7,6.2-13.7,13.7v16.6c0,0.4,0,0.8,0.1,1.1h3.6c0-0.3,0-0.7,0-1.1v-15.3
			c0-7,5.7-12.7,12.7-12.7h63.1c7,0,12.7,5.7,12.7,12.7v15.3c0,0.4,0,0.7,0,1.1h3.6c0-0.4,0.1-0.8,0.1-1.1v-16.6
			C307.1,172.5,301,166.3,293.4,166.3z"/>
		<path class="st5" d="M303.5,196.2c-1.3-0.1-5.5,0-5.5,0c-1.4,1.1-4.2,0.7-4.2,0.7l-0.1,0.1v0.9h13.3c0-0.1,0-0.2,0-0.3
			C307,196.5,304.7,196.3,303.5,196.2z"/>
		<path class="st4" d="M221.1,196.2c-1.3-0.1-5.5,0-5.5,0c-1.4,1.1-4.2,0.7-4.2,0.7l-0.1,0.1v0.9h13.3c0-0.1,0-0.2,0-0.3
			C224.6,196.5,222.3,196.3,221.1,196.2z"/>
		<path class="st4" d="M288.1,175.9c-5.3-0.7-56-0.9-56-0.9s-5.1,0.7-7.4,6.2c-1.9,4.5-1.5,7.2,0,7.9v-1.8c0-5.5,4.4-9.9,9.9-9.9
			h49.2c5.5,0,9.9,4.4,9.9,9.9v1.2c0,0,1.4-1.7,1.2-4.6C294.7,180.9,293.4,176.6,288.1,175.9z"/>
	</g>
	<g>
		<path class="st3" d="M323.3,340.6v12.6h-12.6C317.7,353.2,323.3,347.6,323.3,340.6z"/>
	</g>
</g>
</svg>
