<?xml version="1.0" encoding="utf-8"?>
<!-- Generator: Adobe Illustrator 25.0.0, SVG Export Plug-In . SVG Version: 6.00 Build 0)  -->
<svg version="1.1" id="Layer_1" xmlns="http://www.w3.org/2000/svg" xmlns:xlink="http://www.w3.org/1999/xlink" x="0px" y="0px"
	 viewBox="0 0 512 512" style="enable-background:new 0 0 512 512;" xml:space="preserve">
<style type="text/css">
	.st0{fill:#0090FF;}
	.st1{fill:#003B82;}
</style>
<g>
	<g>
		<path class="st0" d="M351.9,320.1c-3.7,0-7.2-2.1-8.8-5.6c-7.3-15.6-36.1-66.8-98-68.8l-60.4-0.3v53.1c0,4.6-2.8,8.7-7,10.5
			c-4.3,1.8-9.1,0.8-12.4-2.5L53.1,194.4c-7-7-7-18.4,0-25.4L165.3,56.7c3.3-3.3,8.1-4.2,12.4-2.5c4.3,1.8,7,5.9,7,10.5v56.7l33.4,0
			c0.7,0,16.3,0.5,37,6.8c27.6,8.4,51.4,23.2,69,42.9c29.9,33.5,42.5,80.6,37.5,140c-0.4,4.4-3.6,7.9-7.9,8.7
			C353,320,352.5,320.1,351.9,320.1z M179.1,228.7C179.1,228.7,179.2,228.7,179.1,228.7l66.4,0.3c52.3,1.6,83.9,33.2,100.4,57.1
			c-0.1-43.4-11.5-78.1-34.2-103.6c-19.4-21.8-43.9-32.7-60.9-38c-18-5.5-31.9-6.2-33.1-6.3h-38.6c-6.1,0-11.1-5-11.1-11.1V77.7
			L64.9,180.8c-0.5,0.5-0.5,1.3,0,1.8L168,285.6v-45.8c0-3,1.2-5.8,3.3-7.9C173.4,229.8,176.2,228.7,179.1,228.7z"/>
	</g>
	<path class="st1" d="M469,173.8v216.6c0,24.4-19.8,44.2-44.2,44.2H95.5c-29,0-52.5-23.5-52.5-52.5V272.6c0-4.6,3.7-8.4,8.4-8.4h0
		c4.6,0,8.4,3.7,8.4,8.4v109.5c0,19.8,16,35.8,35.8,35.8h320.9c19.8,0,35.8-16,35.8-35.8V173.8c0-19.8-16-35.8-35.8-35.8h-63.5
		c-4.6,0-8.4-3.7-8.4-8.4v0c0-4.6,3.7-8.4,8.4-8.4h63.5C445.5,121.2,469,144.8,469,173.8z"/>
</g>
</svg>
