<?xml version="1.0" encoding="utf-8"?>
<!-- Generator: Adobe Illustrator 25.0.0, SVG Export Plug-In . SVG Version: 6.00 Build 0)  -->
<svg version="1.1" id="Layer_1" xmlns="http://www.w3.org/2000/svg" xmlns:xlink="http://www.w3.org/1999/xlink" x="0px" y="0px"
	 viewBox="0 0 512 512" style="enable-background:new 0 0 512 512;" xml:space="preserve">
<style type="text/css">
	.st0{fill:#0084FF;}
	.st1{fill:#234261;}
	.st2{fill:#FFFFFF;}
</style>
<g>
	<g>
		<path class="st0" d="M318.9,154.9h-5c-2.1,0-3.8-1.7-3.8-3.8v-15.4c0-2.3-1.9-4.2-4.2-4.2h-87.4c-2.3,0-4.2,1.9-4.2,4.2v15.4
			c0,2.1-1.7,3.8-3.8,3.8h-5c-2.1,0-3.8-1.7-3.8-3.8v-15.4c0-9.3,7.5-16.9,16.9-16.9H306c9.3,0,16.9,7.6,16.9,16.9v15.4
			C322.8,153.2,321.1,154.9,318.9,154.9z"/>
	</g>
</g>
<g>
	<path class="st1" d="M426.5,185.7c0-13.3-7.7-21-21-21c-10.3,0-20.5,0-30.8,0h-6.2c-14.9,0-29.9,0-44.8,0.1c-0.6,0-1.1,0-1.6-0.1
		H192.4c-0.5,0.1-1.1,0.1-1.7,0.1c-11.5-0.1-22.9-0.1-34.3-0.1h-30c-6.2,0-12.3,0-18.5,0c-11.3,0-19.7,8-19.7,18.8
		c-0.1,23.1-0.1,46.1,0,69.2c0,7.7,3.9,13.4,10.8,16.5c2.3,1,2.7,2.2,2.7,4.4c0,35.4,0,70.9,0,106.3c0,14.5,8.4,22.9,23.1,22.9
		h106.6c36.1,0,72.2,0,108.4,0c2.3,0,3.9,0.6,5.4,2.3c2.7,2.9,5.5,5.7,8.4,8.4c4.7,4.5,11.2,4.6,16,0.2c1.2-1.1,2.5-2.1,3.5-3.5
		c4.4-6.2,10.2-7.8,17.7-7.5c13.8,0.6,22.4-8.4,22.5-22.3c0-16.3,0-32.6,0-48.9c0-19.3,0-38.7,0-58c0-1.4-0.6-2.8,1.5-3.7
		c8.4-3.7,12-10.4,11.9-19.5C426.4,228.8,426.5,207.3,426.5,185.7z M125,393.1c-9.8,0-13.7-3.9-13.7-13.8c0-34.5,0-69-0.1-103.5
		c0-3.2,0.7-4.1,3.9-3.2c3,0.8,6.2,1.2,9.3,1.4c2.5,0.2,3,1.4,2.9,3.6c-0.2,3-0.1,6.1,0,9.1c0.1,6.9,4.4,11.8,11.3,12.3
		c5.3,0.4,10.7,0.4,16.1,0c7.2-0.5,11.2-5.4,11.2-13c0.1-5.5,0.1-5.6,5.5-4.8c5.3,0.7,10.6,1.6,15.9,2.3c2.4,0.3,3.2,1.2,3.1,3.8
		c-0.9,35.7,22.6,65.4,57.6,72.6c17.3,3.5,33.8,0.7,49.2-8.1c2.2-1.2,3.4-1.2,4.9,0.7c1,1.3,2.2,2.4,3.4,3.5c2.8,2.5,5.1,5,4.2,9.4
		c-0.6,3.2,1.5,6,3.8,8.3c6,6,12,12,18,18.1c0.3,0.3,0.5,0.7,1.1,1.5H125z M137,263.2c0-2.4,0.9-3.7,3.5-3.6c4.1,0.1,8.2,0.1,12.2,0
		c2.4-0.1,3.3,1,3.3,3.4c-0.1,3.8,0,7.7,0,11.5c0,3.7-0.1,7.5,0,11.2c0.1,2.5-0.8,3.7-3.4,3.6c-4.1-0.1-8.2-0.1-12.2,0
		c-2.3,0-3.4-0.9-3.4-3.3C137.1,278.4,137.1,270.8,137,263.2z M313.9,333.9c3.1,3.1,6.2,6.3,9.4,9.4c1.2,1.2,1.2,1.8,0,3.1
		c-6.6,7.2-6.5,7.2-13.4,0.2c-1.6-1.7-3.3-3.3-4.9-5c-3.2-3.2-4.9-3.4-8.9-0.8c-11.6,7.8-24.4,11.1-38.3,10.5
		c-28.9-1.2-54.5-25.3-57.3-54c-3.3-33.7,17.6-61.7,50.9-68.1c32.7-6.3,66.5,18.1,70.9,51.2c0.4,3.2,0.7,6.5,0.7,9.8
		c0,12.3-3.5,23.6-10.3,33.9C309.7,328.7,309.8,329.9,313.9,333.9z M377,392.3c-4.4,4.4-8.9,8.8-13.3,13.3c-1.5,1.6-2.6,1.7-4.3,0.1
		c-12.9-13-25.8-25.9-38.7-38.8c-1.6-1.6-1.6-2.8,0-4.3c4.6-4.5,9.1-9,13.6-13.6c1.4-1.5,2.6-1.6,4.1-0.1c13,13,26,26,39,39
		c0.6,0.6,1.1,1.2,1.2,2.2C378.4,391.1,377.7,391.7,377,392.3z M403.2,328.2c0,17.5,0,34.9,0,52.4c0,8.4-4.7,12.9-12.8,12.6
		c-1.5,0-2.3-0.1-2.1-2.1c0.5-3.7-0.9-6.8-3.5-9.4c-13.3-13.3-26.7-26.7-40-40c-2.9-2.9-6.4-4.1-10.5-3.4c-0.1,0-0.2,0.1-0.3,0.1
		c-1.7,0.2-11.7-9-11.5-10.6c0.1-0.5,0.5-1,0.8-1.5c7.2-12.4,10.5-25.8,9.6-40.1c-0.1-2.6,0.6-3.4,3.1-3.7c3.5-0.3,6.9-1,10.3-1.6
		c2.1-0.4,2.8,0.4,2.6,2.4c-0.1,0.6,0,1.2,0,1.7c-0.9,9,5.1,14.9,14.6,14.4c4.2-0.2,8.4,0.2,12.6-0.2c7.1-0.6,11.3-5.4,11.5-12.5
		c0-2.3,0-4.7,0-7c0-5,0-5,5-5.8c2.5-0.4,5.1-0.6,7.6-1.2c2.8-0.7,3.4,0.2,3.3,2.9C403.2,293,403.2,310.6,403.2,328.2z M358.5,274.2
		c0-3.7,0.1-7.4,0-11.2c0-2.3,0.7-3.5,3.2-3.4c4.2,0.1,8.4,0,12.6,0c2.2,0,3.2,1,3.2,3.2c0,7.8,0,15.6,0,23.4c0,2.2-1.1,3.1-3.3,3.1
		c-4.2,0-8.4,0-12.6,0c-2.2,0-3.1-1-3.1-3.2C358.6,282.1,358.5,278.2,358.5,274.2z M416.7,250.3c0,7.3-2.7,10.3-9.9,11.4
		c-5.6,0.8-11.3,1.6-16.9,2.6c-2.1,0.4-2.5-0.2-2.6-2.2c-0.4-7.7-5.1-12.2-12.8-12.3c-4.7,0-9.3-0.1-14,0
		c-6.8,0.2-11.5,4.9-11.8,11.7c-0.1,2.9,1.2,6.4-0.6,8.5c-1.8,2-5.5,1.3-8.3,1.8c-2.7,0.4-5.9,1.7-8.2,0.8c-2.2-0.9-2-4.6-2.9-7.1
		c-10.7-29.1-39-48.3-69.6-47c-31.3,1.3-57.8,22.1-66.1,52.1c-0.8,2.8-1.5,3.9-4.8,3.2c-6.5-1.4-13.1-2.2-19.6-3
		c-2.1-0.3-2.8-1.1-2.7-3.1c0.1-2.2,0.1-4.4,0-6.6c-0.3-6.4-5.1-11.1-11.5-11.3c-4.9-0.1-9.8-0.1-14.7,0
		c-7.2,0.1-12.2,4.8-12.4,11.9c-0.1,2.4-0.5,2.9-3,2.4c-5.6-1-11.3-1.7-16.9-2.5c-6.8-1-9.6-4.1-9.6-10.9c0-21.7,0-43.3,0-65
		c0-7.8,3.4-11.2,11.3-11.2c49.4,0,98.8,0,148.2,0h147.2c9,0,12.1,3.1,12.1,12.2C416.7,207.9,416.7,229.1,416.7,250.3z"/>
	<path class="st0" d="M323.1,290.2c0,12.3-3.5,23.6-10.3,33.9c-3.1,4.7-2.9,5.9,1.1,9.9c3.1,3.1,6.2,6.3,9.4,9.4
		c1.2,1.2,1.2,1.8,0,3.1c-6.6,7.2-6.5,7.2-13.4,0.2c-1.6-1.7-3.3-3.3-4.9-5c-3.2-3.2-4.9-3.4-8.9-0.8c-11.6,7.8-24.4,11.1-38.3,10.5
		c-28.9-1.2-54.4-25.3-57.3-54c-3.3-33.7,17.6-61.7,50.9-68.1c32.8-6.3,66.5,18.1,70.9,51.2C322.8,283.7,323.1,286.9,323.1,290.2z
		 M261.6,341.9c28.6,0,51.7-23.1,51.8-51.8c0.1-28.7-23.2-52.1-51.9-52.1c-28.5,0-51.8,23.3-51.8,51.8
		C209.7,318.6,232.9,341.9,261.6,341.9z"/>
	<path class="st0" d="M378.5,390.2c-0.1,0.8-0.8,1.5-1.5,2.1c-4.4,4.4-8.9,8.8-13.3,13.3c-1.5,1.6-2.7,1.7-4.3,0.1
		c-12.9-13-25.8-25.9-38.7-38.7c-1.6-1.6-1.6-2.8,0-4.3c4.6-4.5,9.1-9,13.6-13.6c1.4-1.5,2.6-1.6,4.1-0.1c13,13,26,26,39,39
		C377.9,388.6,378.5,389.2,378.5,390.2z"/>
	<path class="st0" d="M156,274.5c0,3.7-0.1,7.5,0,11.2c0.1,2.5-0.8,3.7-3.4,3.6c-4.1-0.1-8.2-0.1-12.2,0c-2.3,0-3.4-0.9-3.4-3.3
		c0.1-7.6,0-15.1,0-22.7c0-2.4,0.9-3.7,3.5-3.6c4.1,0.1,8.2,0.1,12.2,0c2.4-0.1,3.3,1,3.3,3.4C156,266.8,156,270.6,156,274.5z"/>
	<path class="st0" d="M358.5,274.2c0-3.7,0.1-7.5,0-11.2c0-2.3,0.7-3.5,3.2-3.4c4.2,0.1,8.4,0.1,12.6,0c2.2,0,3.2,1,3.2,3.2
		c0,7.8,0,15.6,0,23.4c0,2.2-1.1,3.1-3.3,3.1c-4.2-0.1-8.4-0.1-12.6,0c-2.2,0-3.2-0.9-3.1-3.2C358.6,282.1,358.5,278.2,358.5,274.2z
		"/>
	<path class="st1" d="M261.6,341.9c-28.7,0-51.9-23.3-51.9-52c0-28.5,23.3-51.8,51.8-51.8c28.7,0,51.9,23.3,51.9,52.1
		C313.3,318.7,290.2,341.8,261.6,341.9z M261.7,332c23.2,0,41.9-18.8,41.9-42.1c0-23.2-18.9-42.1-42-42.1c-23.3,0-42.2,19-42.1,42.3
		C219.6,313.2,238.5,332,261.7,332z"/>
	<path class="st2" d="M261.7,332c-23.2,0-42.1-18.7-42.2-41.8c-0.1-23.3,18.9-42.3,42.1-42.3c23.1,0,42,18.9,42,42.1
		C303.6,313.2,284.9,331.9,261.7,332z"/>
</g>
</svg>
