<?xml version="1.0" encoding="utf-8"?>
<!-- Generator: Adobe Illustrator 25.0.0, SVG Export Plug-In . SVG Version: 6.00 Build 0)  -->
<svg version="1.1" id="Layer_1" xmlns="http://www.w3.org/2000/svg" xmlns:xlink="http://www.w3.org/1999/xlink" x="0px" y="0px"
	 viewBox="0 0 512 512" style="enable-background:new 0 0 512 512;" xml:space="preserve">
<style type="text/css">
	.st0{fill:#040403;}
	.st1{fill:#DB6D41;}
	.st2{fill:#E1E1E1;}
	.st3{fill:#A74024;}
	.st4{fill:#FEFEFE;}
	.st5{fill:#FAB03B;}
</style>
<g>
	<path class="st0" d="M230.2,400.1c-35.5,0-71,0-106.5,0c-14.6,0-23-8.3-23-22.9c0-35.4,0-70.7,0-106.1c0-2.2-0.4-3.4-2.7-4.4
		c-7-3.2-10.8-8.9-10.8-16.5c-0.1-23-0.1-46.1,0-69.1c0-10.8,8.4-18.7,19.7-18.7c27.6,0,55.1-0.1,82.7,0.1c3.4,0,4.2-0.9,4.1-4.2
		c-0.3-7.3,0.2-14.7-0.1-22c-0.7-17.7,14-27.6,27-27.7c23.7-0.2,47.5-0.3,71.2,0c13.4,0.2,27.6,10.3,26.9,27.8
		c-0.3,7.3,0.1,14.7-0.1,22c-0.1,3,0.5,4.1,3.9,4.1c27.2-0.2,54.4-0.1,81.7-0.1c13.3,0,21,7.7,21,21c0,21.5-0.1,43.1,0,64.6
		c0.1,9.1-3.5,15.8-11.9,19.4c-2.1,0.9-1.5,2.3-1.5,3.7c0,19.3,0,38.6,0,57.9c0,16.3,0,32.6,0,48.9c0,13.8-8.6,22.8-22.4,22.2
		c-7.5-0.3-13.3,1.3-17.6,7.5c-0.9,1.3-2.2,2.4-3.4,3.5c-4.9,4.4-11.3,4.3-16-0.2c-2.9-2.7-5.7-5.5-8.4-8.4
		c-1.5-1.7-3.2-2.3-5.4-2.3C302.3,400.1,266.3,400.1,230.2,400.1z M256.3,172.1c-49.3,0-98.6,0-148,0c-7.9,0-11.3,3.3-11.3,11.2
		c0,21.6,0,43.3,0,64.9c0,6.8,2.8,9.9,9.6,10.9c5.6,0.8,11.3,1.5,16.9,2.5c2.4,0.5,2.9,0,3-2.4c0.2-7.1,5.2-11.8,12.3-11.9
		c4.9-0.1,9.8-0.1,14.7,0c6.4,0.2,11.1,4.9,11.5,11.3c0.1,2.2,0.1,4.4,0,6.6c-0.1,2,0.5,2.8,2.7,3.1c6.6,0.8,13.2,1.6,19.6,3
		c3.3,0.7,4-0.5,4.8-3.2c8.3-29.9,34.8-50.7,66-52c30.5-1.3,58.8,17.8,69.5,46.9c0.9,2.5,0.7,6.2,2.9,7.1c2.3,0.9,5.4-0.4,8.2-0.8
		c2.8-0.5,6.5,0.2,8.3-1.8c1.8-2,0.5-5.6,0.6-8.4c0.3-6.8,5-11.6,11.8-11.7c4.7-0.1,9.3-0.1,14,0c7.6,0.1,12.4,4.6,12.7,12.3
		c0.1,2,0.5,2.6,2.6,2.2c5.6-1,11.2-1.8,16.9-2.6c7.2-1,9.9-4.1,9.9-11.4c0-21.2,0-42.3,0-63.5c0-9.1-3.1-12.2-12.1-12.2
		C354.3,172.1,305.3,172.1,256.3,172.1z M331.4,390.4c-0.6-0.8-0.8-1.2-1.1-1.5c-6-6-12-12-18-18c-2.3-2.3-4.4-5-3.8-8.3
		c0.9-4.4-1.4-6.9-4.2-9.4c-1.2-1.1-2.4-2.2-3.4-3.5c-1.5-1.9-2.8-1.9-4.9-0.7c-15.3,8.8-31.8,11.6-49.1,8.1
		c-34.9-7.1-58.4-36.8-57.5-72.4c0.1-2.6-0.7-3.5-3.1-3.8c-5.3-0.7-10.6-1.5-15.9-2.3c-5.4-0.8-5.4-0.7-5.5,4.8
		c-0.1,7.6-4,12.4-11.2,13c-5.3,0.4-10.7,0.4-16,0c-6.9-0.5-11.1-5.4-11.3-12.3c-0.1-3-0.1-6.1,0-9.1c0.1-2.2-0.3-3.4-2.9-3.6
		c-3.1-0.2-6.3-0.6-9.3-1.4c-3.2-0.8-3.9,0-3.9,3.2c0.1,34.4,0.1,68.9,0.1,103.3c0,9.9,3.9,13.8,13.7,13.8c67.8,0,135.6,0,203.4,0
		C328.7,390.4,329.8,390.4,331.4,390.4z M401.9,325.5c0-17.6-0.1-35.1,0.1-52.7c0-2.7-0.6-3.5-3.3-2.8c-2.5,0.6-5,0.8-7.6,1.2
		c-5,0.8-5,0.8-5,5.8c0,2.3,0,4.7,0,7c-0.1,7.1-4.4,11.9-11.4,12.5c-4.2,0.4-8.4,0-12.5,0.2c-9.4,0.4-15.4-5.4-14.5-14.4
		c0.1-0.6-0.1-1.2,0-1.7c0.2-2-0.5-2.8-2.5-2.4c-3.4,0.7-6.9,1.3-10.3,1.6c-2.5,0.2-3.2,1.1-3.1,3.7c0.8,14.3-2.4,27.7-9.6,40.1
		c-0.3,0.5-0.7,1-0.8,1.5c-0.2,1.6,9.8,10.7,11.5,10.6c0.1,0,0.2-0.1,0.3-0.1c4.1-0.7,7.6,0.5,10.5,3.4c13.3,13.3,26.6,26.6,40,40
		c2.6,2.6,4,5.8,3.5,9.4c-0.3,2,0.6,2,2.1,2.1c8.1,0.3,12.8-4.2,12.8-12.6C401.9,360.4,401.9,343,401.9,325.5z M321.9,287.6
		c0-3.3-0.3-6.5-0.7-9.7c-4.5-33.1-38.1-57.4-70.8-51.1c-33.2,6.4-54.1,34.3-50.8,68c2.8,28.7,28.4,52.7,57.2,53.9
		c13.9,0.6,26.7-2.7,38.3-10.5c3.9-2.6,5.6-2.4,8.8,0.8c1.7,1.6,3.3,3.3,4.9,5c6.8,7,6.8,6.9,13.4-0.2c1.1-1.2,1.2-1.9,0-3
		c-3.2-3-6.3-6.2-9.4-9.3c-4-4-4.2-5.2-1.1-9.9C318.4,311.1,321.9,299.9,321.9,287.6z M256.7,127.9c9.1,0,18.1-0.1,27.2,0
		c8,0.1,13.1,5,13.5,13c0.2,3.8,0.1,7.7,0.1,11.5c0,8.9,0,8.8,8.9,8.6c2.2-0.1,2.8-0.8,2.8-2.9c-0.1-7.2,0-14.4,0-21.6
		c0-10.8-6.9-18.2-17.7-18.2c-23.5-0.2-47-0.2-70.5,0c-10.8,0.1-17.3,7.2-17.3,18c0,5.5,0,10.9,0,16.4c0,8.8,0,8.7,8.8,8.3
		c2-0.1,2.6-0.9,2.5-2.7c-0.1-5-0.1-10,0-15c0.2-9.8,5.8-15.3,15.5-15.4C239.2,127.9,247.9,127.9,256.7,127.9z M256,162.2
		c9.8,0,19.5,0,29.3,0c1.6,0,2.6-0.1,2.5-2.1c-0.2-5.9-0.1-11.9-0.1-17.8c0-3.1-1.3-4.7-4.6-4.7c-17.7,0.1-35.3,0-53,0.1
		c-3.9,0-5.2,1.4-5.3,5.3c-0.1,5.5,0,10.9-0.1,16.4c-0.1,2.2,0.5,3,2.8,2.9C236.9,162.1,246.5,162.2,256,162.2z M377.3,387.5
		c0-1-0.6-1.6-1.2-2.2c-13-13-26-25.9-38.9-38.9c-1.5-1.5-2.6-1.4-4.1,0.1c-4.5,4.6-9,9.1-13.5,13.6c-1.6,1.6-1.7,2.7,0,4.3
		c12.9,12.8,25.8,25.7,38.7,38.7c1.6,1.7,2.8,1.5,4.3-0.1c4.4-4.5,8.8-8.9,13.3-13.3C376.4,388.9,377.1,388.3,377.3,387.5z
		 M155.1,271.9c0-3.8-0.1-7.7,0-11.5c0-2.3-0.8-3.4-3.3-3.4c-4.1,0.1-8.1,0.1-12.2,0c-2.6,0-3.5,1.2-3.5,3.6c0,7.6,0.1,15.1,0,22.7
		c0,2.4,1.1,3.3,3.4,3.3c4.1-0.1,8.1-0.1,12.2,0c2.6,0.1,3.5-1.1,3.4-3.6C155,279.4,155.1,275.6,155.1,271.9z M357.3,271.6
		c0,4,0.1,7.9,0,11.9c0,2.2,0.9,3.2,3.1,3.2c4.2,0,8.4-0.1,12.5,0c2.2,0,3.3-0.9,3.3-3.1c0-7.8,0-15.6,0-23.4c0-2.1-1-3.2-3.2-3.2
		c-4.2,0-8.4,0.1-12.5,0c-2.5-0.1-3.2,1.2-3.2,3.4C357.3,264.2,357.3,267.9,357.3,271.6z"/>
	<path class="st1" d="M256.3,172.1c49,0,97.9,0,146.9,0c9,0,12.1,3.1,12.1,12.2c0,21.2,0,42.3,0,63.5c0,7.2-2.7,10.3-9.9,11.4
		c-5.6,0.8-11.3,1.6-16.9,2.6c-2.1,0.4-2.5-0.2-2.6-2.2c-0.4-7.7-5.1-12.2-12.7-12.3c-4.7,0-9.3-0.1-14,0
		c-6.8,0.2-11.5,4.9-11.8,11.7c-0.1,2.9,1.2,6.4-0.6,8.4c-1.8,2-5.4,1.3-8.3,1.8c-2.7,0.4-5.9,1.7-8.2,0.8c-2.2-0.9-2-4.6-2.9-7.1
		c-10.7-29.1-38.9-48.2-69.5-46.9c-31.2,1.3-57.7,22.1-66,52c-0.8,2.8-1.5,3.9-4.8,3.2c-6.5-1.4-13.1-2.2-19.6-3
		c-2.1-0.3-2.8-1.1-2.7-3.1c0.1-2.2,0.1-4.4,0-6.6c-0.3-6.4-5.1-11.1-11.5-11.3c-4.9-0.1-9.8-0.1-14.7,0
		c-7.2,0.1-12.1,4.8-12.3,11.9c-0.1,2.4-0.5,2.9-3,2.4c-5.6-1-11.3-1.7-16.9-2.5c-6.8-1-9.6-4.1-9.6-10.9c0-21.6,0-43.3,0-64.9
		c0-7.8,3.4-11.2,11.3-11.2C157.7,172.1,207,172.1,256.3,172.1z"/>
	<path class="st1" d="M331.4,390.4c-1.6,0-2.7,0-3.8,0c-67.8,0-135.6,0-203.4,0c-9.8,0-13.7-3.9-13.7-13.8c0-34.4,0-68.9-0.1-103.3
		c0-3.2,0.7-4.1,3.9-3.2c3,0.8,6.2,1.2,9.3,1.4c2.5,0.2,3,1.4,2.9,3.6c-0.2,3-0.1,6,0,9.1c0.1,6.9,4.4,11.8,11.3,12.3
		c5.3,0.4,10.7,0.4,16,0c7.2-0.5,11.1-5.4,11.2-13c0.1-5.5,0.1-5.6,5.5-4.8c5.3,0.7,10.6,1.6,15.9,2.3c2.4,0.3,3.2,1.2,3.1,3.8
		c-0.9,35.6,22.6,65.3,57.5,72.4c17.3,3.5,33.8,0.7,49.1-8.1c2.2-1.2,3.4-1.2,4.9,0.7c1,1.3,2.2,2.4,3.4,3.5c2.8,2.5,5.1,5,4.2,9.4
		c-0.6,3.2,1.5,5.9,3.8,8.3c6,6,12,12,18,18C330.6,389.2,330.8,389.6,331.4,390.4z"/>
	<path class="st1" d="M401.9,325.5c0,17.4,0,34.9,0,52.3c0,8.3-4.7,12.8-12.8,12.6c-1.5-0.1-2.3-0.1-2.1-2.1
		c0.5-3.7-0.9-6.8-3.5-9.4c-13.3-13.3-26.6-26.6-40-40c-2.9-2.9-6.4-4.1-10.5-3.4c-0.1,0-0.2,0.1-0.3,0.1c-1.7,0.2-11.7-9-11.5-10.6
		c0.1-0.5,0.5-1,0.8-1.5c7.2-12.4,10.5-25.8,9.6-40.1c-0.2-2.6,0.6-3.4,3.1-3.7c3.5-0.3,6.9-1,10.3-1.6c2.1-0.4,2.8,0.4,2.5,2.4
		c-0.1,0.6,0,1.2,0,1.7c-0.9,9,5.1,14.8,14.5,14.4c4.2-0.2,8.4,0.2,12.5-0.2c7.1-0.6,11.3-5.4,11.4-12.5c0-2.3,0-4.7,0-7
		c0-5,0-5,5-5.8c2.5-0.4,5.1-0.6,7.6-1.2c2.7-0.7,3.3,0.2,3.3,2.8C401.9,290.4,401.9,307.9,401.9,325.5z"/>
	<path class="st2" d="M321.9,287.6c0,12.3-3.5,23.5-10.3,33.8c-3.1,4.7-2.9,5.8,1.1,9.9c3.1,3.1,6.2,6.3,9.4,9.3
		c1.2,1.2,1.2,1.8,0,3c-6.6,7.2-6.5,7.2-13.4,0.2c-1.6-1.7-3.3-3.3-4.9-5c-3.2-3.2-4.9-3.4-8.8-0.8c-11.6,7.8-24.4,11-38.3,10.5
		c-28.8-1.2-54.4-25.2-57.2-53.9c-3.3-33.7,17.6-61.6,50.8-68c32.7-6.3,66.4,18.1,70.8,51.1C321.6,281.1,322,284.3,321.9,287.6z
		 M260.5,339.2c28.5,0,51.6-23.1,51.7-51.7c0.1-28.7-23.1-52-51.8-52c-28.5,0-51.7,23.3-51.7,51.7
		C208.7,315.9,231.9,339.2,260.5,339.2z"/>
	<path class="st3" d="M256.7,127.9c-8.7,0-17.4,0-26.2,0c-9.8,0.1-15.4,5.6-15.5,15.4c-0.1,5-0.1,10,0,15c0,1.9-0.5,2.6-2.5,2.7
		c-8.8,0.4-8.8,0.5-8.8-8.3c0-5.5,0-10.9,0-16.4c0-10.8,6.5-17.9,17.3-18c23.5-0.2,47-0.2,70.5,0c10.8,0.1,17.7,7.4,17.7,18.2
		c0,7.2-0.1,14.4,0,21.6c0,2.1-0.6,2.8-2.8,2.9c-8.9,0.3-8.9,0.3-8.9-8.6c0-3.8,0.1-7.7-0.1-11.5c-0.4-8-5.5-12.9-13.5-13
		C274.8,127.9,265.7,127.9,256.7,127.9z"/>
	<path class="st4" d="M256,162.2c-9.5,0-19.1-0.1-28.6,0.1c-2.4,0-2.9-0.7-2.8-2.9c0.2-5.5,0-10.9,0.1-16.4c0.1-3.9,1.5-5.3,5.3-5.3
		c17.7-0.1,35.3,0,53-0.1c3.3,0,4.6,1.6,4.6,4.7c0,5.9,0,11.9,0.1,17.8c0.1,2.1-0.9,2.2-2.5,2.1C275.5,162.2,265.8,162.2,256,162.2z
		"/>
	<path class="st2" d="M377.3,387.5c-0.1,0.8-0.8,1.5-1.5,2.1c-4.4,4.4-8.9,8.8-13.3,13.3c-1.5,1.6-2.6,1.7-4.3,0.1
		c-12.8-12.9-25.7-25.8-38.7-38.7c-1.6-1.6-1.6-2.8,0-4.3c4.6-4.5,9.1-9,13.5-13.6c1.4-1.5,2.6-1.6,4.1-0.1
		c12.9,13,25.9,26,38.9,38.9C376.7,385.9,377.2,386.4,377.3,387.5z"/>
	<path class="st5" d="M155.1,271.9c0,3.7-0.1,7.4,0,11.2c0.1,2.5-0.8,3.7-3.4,3.6c-4.1-0.1-8.1-0.1-12.2,0c-2.3,0-3.4-0.9-3.4-3.3
		c0.1-7.6,0-15.1,0-22.7c0-2.4,0.9-3.7,3.5-3.6c4.1,0.1,8.1,0.1,12.2,0c2.4-0.1,3.3,1,3.3,3.4C155.1,264.2,155.1,268.1,155.1,271.9z
		"/>
	<path class="st5" d="M357.3,271.6c0-3.7,0.1-7.4,0-11.2c0-2.3,0.7-3.5,3.2-3.4c4.2,0.1,8.4,0.1,12.5,0c2.2,0,3.2,1,3.2,3.2
		c0,7.8,0,15.6,0,23.4c0,2.2-1.1,3.1-3.3,3.1c-4.2-0.1-8.4-0.1-12.5,0c-2.2,0-3.1-0.9-3.1-3.2C357.3,279.5,357.3,275.6,357.3,271.6z
		"/>
	<path class="st0" d="M260.5,339.2c-28.6,0-51.8-23.2-51.8-52c0-28.4,23.3-51.7,51.7-51.7c28.6,0,51.8,23.3,51.8,52
		C312.2,316.1,289.1,339.2,260.5,339.2z M260.6,329.3c23.2,0,41.8-18.8,41.8-42c0-23.1-18.8-42-41.9-42c-23.2,0-42.1,19-42.1,42.2
		C218.6,310.6,237.5,329.3,260.6,329.3z"/>
	<path class="st5" d="M260.6,329.3c-23.2,0-42.1-18.7-42.1-41.8c-0.1-23.3,18.8-42.2,42.1-42.2c23.1,0,41.9,18.9,41.9,42
		C302.5,310.5,283.8,329.3,260.6,329.3z"/>
</g>
</svg>
