<?xml version="1.0" encoding="utf-8"?>
<!-- Generator: Adobe Illustrator 25.0.0, SVG Export Plug-In . SVG Version: 6.00 Build 0)  -->
<svg version="1.1" id="Layer_1" xmlns="http://www.w3.org/2000/svg" xmlns:xlink="http://www.w3.org/1999/xlink" x="0px" y="0px"
	 viewBox="0 0 512 512" style="enable-background:new 0 0 512 512;" xml:space="preserve">
<style type="text/css">
	.st0{fill:#F5F5F5;}
	.st1{fill:#E1E1E1;}
	.st2{fill:#000003;}
	.st3{fill:none;}
	.st4{fill:#0184FF;}
	.st5{fill:#565656;}
	.st6{fill:#3B3B3B;}
	.st7{fill:#555555;}
	.st8{fill:#171715;}
	.st9{fill:#C2C2C2;}
	.st10{fill:#F7F7F7;}
	.st11{fill:#040404;}
	.st12{fill:#030303;}
	.st13{fill:#4DAFFF;}
	.st14{fill:#45BDFF;}
	.st15{fill:#85CEFF;}
	.st16{fill:#F4FFFB;}
	.st17{fill:#948370;}
	.st18{fill:#FBFFFC;}
	.st19{fill:#060700;}
	.st20{fill:#E4025A;}
	.st21{fill:#00DFBF;}
	.st22{fill:#002A64;}
	.st23{fill:#43AAFF;}
</style>
<g>
	<path id="Floor_7_" class="st0" d="M361.16,224.31c-60.53-34.81-158.68-34.81-219.21,0c-60.53,34.81-60.53,91.24,0,126.04
		c60.54,34.81,158.68,34.81,219.21,0C421.69,315.55,421.69,259.11,361.16,224.31z"/>
	<g>
		<ellipse id="Shadow_6_" class="st1" cx="252.65" cy="253.97" rx="49.79" ry="28.74"/>
		<g>
			<g>
				<rect x="220.13" y="234.63" class="st2" width="19.51" height="8.2"/>
				<ellipse cx="229.82" cy="233.09" rx="10.59" ry="4.52"/>
				<path class="st2" d="M230.41,235.23h-1.23c-7.26,0-13.14,5.89-13.14,13.14v3.78c0,0.36,0.16,0.7,0.44,0.92
					c3.17,2.6,8,4.27,13.4,4.27c5.31,0,10.06-1.6,13.23-4.13c0.28-0.23,0.45-0.57,0.45-0.93v-3.9
					C243.55,241.12,237.67,235.23,230.41,235.23z"/>
				<path class="st3" d="M242.32,247.11c-3.15,2.19-7.56,3.55-12.44,3.55c-4.89,0-9.3-1.36-12.45-3.55
					c0.16-6.17,5.67-11.12,12.45-11.12C236.65,235.99,242.16,240.94,242.32,247.11z"/>
				<path class="st4" d="M242.88,247.82v4.08c0,0.24-0.11,0.46-0.3,0.6c-3.16,2.3-7.68,3.73-12.7,3.73c-4.85,0-9.24-1.34-12.38-3.5
					c-0.29-0.2-0.47-0.53-0.47-0.88v-3.91c3.17,2.36,7.75,3.84,12.85,3.84C235.06,251.77,239.71,250.25,242.88,247.82z"/>
				<path class="st5" d="M242.32,247.11c-3.15,2.19-7.56,3.55-12.44,3.55c-4.89,0-9.3-1.36-12.45-3.55
					c0.16-6.17,5.67-11.12,12.45-11.12C236.65,235.99,242.16,240.94,242.32,247.11z"/>
				<path class="st5" d="M221.09,235.99v1.9c0,0,0.55-0.6,1.77-1.3L221.09,235.99z"/>
				<path class="st5" d="M238.73,235.99v1.9c0,0-0.55-0.6-1.77-1.3L238.73,235.99z"/>
				<g>
					<path class="st6" d="M239.27,232.63c-0.75,1.63-4.72,2.88-9.51,2.88c-4.79,0-8.76-1.25-9.51-2.88
						c-0.08,0.18-0.13,0.37-0.13,0.56c0,1.9,4.31,3.44,9.63,3.44c5.32,0,9.63-1.54,9.63-3.44C239.4,233,239.36,232.81,239.27,232.63
						z"/>
					<path class="st7" d="M229.76,235.51c4.79,0,8.76-1.25,9.51-2.88c-0.75-1.64-4.72-2.88-9.51-2.88c-4.79,0-8.76,1.25-9.51,2.88
						C221,234.26,224.98,235.51,229.76,235.51z"/>
				</g>
				<ellipse cx="229.91" cy="232.35" rx="5.93" ry="1.33"/>
				<path d="M229.95,197.37c0,0-5.53,15.75-2.98,33.64l0.16,1.07l7.36-0.59c0,0-3.09-19.81,3.18-34.13H229.95z"/>
			</g>
			<g>
				
					<rect x="262.46" y="234.63" transform="matrix(-1 -4.490243e-11 4.490243e-11 -1 544.4283 477.4531)" class="st2" width="19.51" height="8.2"/>
				<ellipse cx="272.27" cy="233.09" rx="10.59" ry="4.52"/>
				<path class="st2" d="M271.69,235.23h1.23c7.26,0,13.14,5.89,13.14,13.14v3.78c0,0.36-0.16,0.7-0.44,0.92
					c-3.17,2.6-8,4.27-13.4,4.27c-5.31,0-10.06-1.6-13.23-4.13c-0.28-0.23-0.45-0.57-0.45-0.93v-3.9
					C258.54,241.12,264.43,235.23,271.69,235.23z"/>
				<path class="st3" d="M259.78,247.11c3.15,2.19,7.56,3.55,12.44,3.55c4.89,0,9.3-1.36,12.45-3.55
					c-0.16-6.17-5.67-11.12-12.45-11.12C265.45,235.99,259.94,240.94,259.78,247.11z"/>
				<path class="st4" d="M259.22,247.82v4.08c0,0.24,0.11,0.46,0.3,0.6c3.16,2.3,7.68,3.73,12.7,3.73c4.85,0,9.24-1.34,12.38-3.5
					c0.29-0.2,0.47-0.53,0.47-0.88v-3.91c-3.17,2.36-7.75,3.84-12.85,3.84C267.04,251.77,262.39,250.25,259.22,247.82z"/>
				<path class="st5" d="M259.78,247.11c3.15,2.19,7.56,3.55,12.44,3.55c4.89,0,9.3-1.36,12.45-3.55
					c-0.16-6.17-5.67-11.12-12.45-11.12C265.45,235.99,259.94,240.94,259.78,247.11z"/>
				<path class="st5" d="M281.01,235.99v1.9c0,0-0.55-0.6-1.77-1.3L281.01,235.99z"/>
				<path class="st5" d="M263.37,235.99v1.9c0,0,0.55-0.6,1.77-1.3L263.37,235.99z"/>
				<g>
					<path class="st6" d="M262.83,232.63c0.75,1.63,4.72,2.88,9.51,2.88c4.79,0,8.76-1.25,9.51-2.88c0.08,0.18,0.13,0.37,0.13,0.56
						c0,1.9-4.31,3.44-9.63,3.44c-5.32,0-9.63-1.54-9.63-3.44C262.7,233,262.74,232.81,262.83,232.63z"/>
					<path class="st7" d="M272.34,235.51c-4.79,0-8.76-1.25-9.51-2.88c0.75-1.64,4.72-2.88,9.51-2.88c4.79,0,8.76,1.25,9.51,2.88
						C281.1,234.26,277.12,235.51,272.34,235.51z"/>
				</g>
				<ellipse cx="272.18" cy="232.35" rx="5.93" ry="1.33"/>
				<path d="M272.15,197.37c0,0,5.53,15.75,2.98,33.64l-0.16,1.07l-7.36-0.59c0,0,3.09-19.81-3.18-34.13H272.15z"/>
			</g>
			<g>
				<g>
					<path class="st8" d="M209.38,193.69c0.1-0.29,0.19-0.58,0.29-0.86c1.04,0.37,1.8,0.89,1.35,2.19
						c-0.17,0.49-0.02,0.86,0.47,1.19c1.84,1.26,2.89,3.08,3.47,5.19c0.42,1.52,1.02,2.92,2.11,4.12c0.96,1.06,1.12,2.32,0.48,3.63
						c-0.61,1.24-1.66,1.75-2.99,1.64c-0.64-0.06-0.77,0.14-0.62,0.7c0.33,1.26,0.61,2.53,0.98,3.78c0.52,1.75,0.29,2.92-0.82,3.78
						c-1.18,0.92-2.59,0.87-4.09-0.13c-0.21-0.14-0.38-0.44-0.67-0.3c-0.28,0.14-0.16,0.43-0.11,0.68c0.38,2.03-0.55,3.51-2.43,3.87
						c-1.8,0.35-3.58-0.89-3.9-2.77c-0.17-0.97-0.24-1.96-0.35-2.93c-0.34-0.17-0.37,0.12-0.48,0.27c-0.82,1.09-1.89,1.5-3.2,1.12
						c-1.27-0.37-2.16-1.54-2.17-2.93c-0.01-1.66,0.33-3.28,0.76-4.87c0.21-0.76,0.17-1.42-0.07-2.14c-0.85-2.56-1.16-5.16-0.5-7.82
						c0.41-1.65,1.21-3.08,2.54-4.15c0.63-0.51,0.85-1.04,0.62-1.78c-0.44-1.43,0.27-2.1,1.56-2.41c0.19,0.23,0.38,0.46,0.57,0.69
						c-1.33,0.77-1.33,0.77-0.86,2.14c0.36-0.14,0.71-0.31,1.09-0.4c0.46-0.1,1.09-0.66,1.35,0.07c0.28,0.77-0.59,0.68-1,0.85
						c-1.71,0.71-3.27,1.59-4.03,3.42c-1.09,1.64-1.37,3.48-1.09,5.36c0.47,3.08,1.49,6.12,0.28,9.25
						c-0.12,0.32-0.13,0.68-0.16,1.03c-0.15,1.61,0.55,2.7,1.81,2.82c1.14,0.11,1.87-0.7,2.08-2.32c0.22-1.63,0.51-3.26,0.96-4.85
						c0.1-0.35,0.18-0.74,0.61-0.7c0.55,0.05,0.49,0.5,0.46,0.9c-0.02,0.3-0.03,0.61-0.05,0.91c-0.15,2.74-0.14,5.47,0.28,8.18
						c0.25,1.62,1.59,2.45,3.02,1.96c1.19-0.4,1.64-1.35,1.39-2.98c-0.4-2.62-0.68-5.25-0.66-7.9c0-0.45-0.11-1.12,0.55-1.14
						c0.75-0.03,0.48,0.65,0.5,1.09c0.07,1.97,0.52,3.87,1.14,5.72c0.27,0.8,0.72,1.49,1.62,1.74c0.81,0.23,1.56,0.09,2.18-0.49
						c0.65-0.61,0.72-1.41,0.43-2.17c-1.44-3.76-1.48-7.63-0.97-11.55c0.06-0.44,0.03-0.87,0.49-1.13c0.68,0.23,0.57,0.79,0.53,1.3
						c-0.1,1.38-0.19,2.77-0.34,4.15c-0.1,0.93,0.4,1.14,1.15,1.12c0.87-0.02,1.46-0.49,1.82-1.25c0.43-0.9,0.2-1.73-0.42-2.41
						c-1.05-1.15-1.77-2.46-2.16-3.96c-0.82-3.21-2.49-5.62-5.98-6.28c-0.38-0.07-0.7-0.21-0.58-0.67c0.1-0.36,0.43-0.38,0.75-0.32
						c0.17,0.03,0.35,0.14,0.5,0.11c0.38-0.08,0.81,0.62,1.12-0.01C210.26,194.44,209.95,193.98,209.38,193.69z"/>
					<path class="st9" d="M198.7,199.54c0.77-1.82,2.32-2.7,4.03-3.42c0.41-0.17,1.28-0.08,1-0.85c-0.26-0.73-0.89-0.17-1.35-0.07
						c-0.37,0.08-0.72,0.26-1.09,0.4c-0.47-1.37-0.47-1.37,0.86-2.14c2.43-0.7,4.84-0.72,7.22,0.24c0.58,0.3,0.88,0.75,0.57,1.37
						c-0.32,0.63-0.74-0.07-1.12,0.01c-0.15,0.03-0.33-0.07-0.5-0.11c-0.32-0.07-0.65-0.04-0.75,0.32c-0.13,0.45,0.2,0.59,0.58,0.67
						c3.49,0.66,5.16,3.07,5.98,6.28c0.39,1.5,1.1,2.81,2.16,3.96c0.62,0.68,0.85,1.52,0.42,2.41c-0.36,0.76-0.95,1.23-1.82,1.25
						c-0.74,0.02-1.25-0.19-1.15-1.12c0.15-1.38,0.24-2.77,0.34-4.15c0.04-0.51,0.15-1.07-0.53-1.3c-0.52-3.23-2.18-5.48-5.56-5.96
						c-2.78-0.4-5.54-0.31-7.95,1.5C199.64,199.11,199.29,199.56,198.7,199.54z"/>
					<path class="st10" d="M198.7,199.54c0.59,0.02,0.94-0.43,1.34-0.73c2.41-1.81,5.17-1.9,7.95-1.5c3.38,0.49,5.03,2.73,5.56,5.96
						c-0.45,0.25-0.43,0.69-0.49,1.13c-0.52,3.92-0.47,7.79,0.97,11.55c0.29,0.76,0.22,1.56-0.43,2.17
						c-0.62,0.58-1.36,0.72-2.18,0.49c-0.89-0.25-1.35-0.94-1.62-1.74c-0.62-1.85-1.07-3.75-1.14-5.72
						c-0.01-0.43,0.25-1.11-0.5-1.09c-0.65,0.02-0.54,0.7-0.55,1.14c-0.02,2.65,0.27,5.28,0.66,7.9c0.25,1.63-0.2,2.58-1.39,2.98
						c-1.43,0.48-2.76-0.34-3.02-1.96c-0.42-2.71-0.43-5.45-0.28-8.18c0.02-0.3,0.03-0.61,0.05-0.91c0.03-0.4,0.08-0.85-0.46-0.9
						c-0.44-0.04-0.51,0.35-0.61,0.7c-0.46,1.59-0.74,3.21-0.96,4.85c-0.21,1.61-0.94,2.43-2.08,2.32
						c-1.26-0.12-1.96-1.21-1.81-2.82c0.03-0.34,0.04-0.71,0.16-1.03c1.21-3.13,0.19-6.17-0.28-9.25
						C197.33,203.02,197.61,201.18,198.7,199.54z M205.62,208.75c1.43,0.05,2.95-0.24,4.42-0.8c0.36-0.14,0.83-0.26,0.62-0.78
						c-0.2-0.51-0.61-0.29-0.99-0.16c-2.79,0.99-5.59,1.02-8.37-0.01c-0.39-0.15-0.81-0.3-0.96,0.22c-0.15,0.5,0.34,0.63,0.69,0.76
						C202.46,208.52,203.95,208.77,205.62,208.75z"/>
					<path class="st8" d="M205.62,208.75c-1.67,0.01-3.15-0.24-4.58-0.77c-0.36-0.13-0.84-0.26-0.69-0.76
						c0.15-0.52,0.57-0.36,0.96-0.22c2.79,1.03,5.58,1.01,8.37,0.01c0.37-0.13,0.79-0.35,0.99,0.16c0.21,0.52-0.26,0.64-0.62,0.78
						C208.57,208.51,207.05,208.8,205.62,208.75z"/>
				</g>
				<path class="st11" d="M216.54,164.99l-4.69-4.42l-2.37,2.74c-1.79,2.2-3.11,4.67-4.19,7.28c-2.75,6.65-3.48,13.62-3.37,20.74
					c0.01,0.5,0.21,1.05-0.32,1.43c0.19,0.23,0.38,0.46,0.57,0.69c2.43-0.7,4.84-0.72,7.22,0.24c0.1-0.29,0.19-0.58,0.29-0.86
					c-0.62-0.21-0.64-0.72-0.65-1.26c-0.17-7.63,0.71-15.04,4.55-21.84L216.54,164.99z"/>
			</g>
			<g>
				<g>
					<path class="st8" d="M293.74,193.69c-0.1-0.29-0.19-0.58-0.29-0.86c-1.04,0.37-1.8,0.89-1.35,2.19
						c0.17,0.49,0.02,0.86-0.47,1.19c-1.84,1.26-2.89,3.08-3.47,5.19c-0.42,1.52-1.02,2.92-2.11,4.12
						c-0.96,1.06-1.12,2.32-0.48,3.63c0.61,1.24,1.66,1.75,2.99,1.64c0.64-0.06,0.77,0.14,0.62,0.7c-0.33,1.26-0.61,2.53-0.98,3.78
						c-0.52,1.75-0.29,2.92,0.82,3.78c1.18,0.92,2.59,0.87,4.09-0.13c0.21-0.14,0.38-0.44,0.67-0.3c0.28,0.14,0.16,0.43,0.11,0.68
						c-0.38,2.03,0.55,3.51,2.43,3.87c1.8,0.35,3.58-0.89,3.9-2.77c0.17-0.97,0.24-1.96,0.35-2.93c0.34-0.17,0.37,0.12,0.48,0.27
						c0.82,1.09,1.89,1.5,3.2,1.12c1.27-0.37,2.16-1.54,2.17-2.93c0.01-1.66-0.33-3.28-0.76-4.87c-0.21-0.76-0.17-1.42,0.07-2.14
						c0.85-2.56,1.16-5.16,0.5-7.82c-0.41-1.65-1.21-3.08-2.54-4.15c-0.63-0.51-0.85-1.04-0.62-1.78c0.44-1.43-0.27-2.1-1.56-2.41
						c-0.19,0.23-0.38,0.46-0.57,0.69c1.33,0.77,1.33,0.77,0.86,2.14c-0.36-0.14-0.71-0.31-1.09-0.4c-0.46-0.1-1.09-0.66-1.35,0.07
						c-0.28,0.77,0.59,0.68,1,0.85c1.71,0.71,3.27,1.59,4.03,3.42c1.09,1.64,1.37,3.48,1.09,5.36c-0.47,3.08-1.49,6.12-0.28,9.25
						c0.12,0.32,0.13,0.68,0.16,1.03c0.15,1.61-0.55,2.7-1.81,2.82c-1.14,0.11-1.87-0.7-2.08-2.32c-0.22-1.63-0.51-3.26-0.96-4.85
						c-0.1-0.35-0.18-0.74-0.61-0.7c-0.55,0.05-0.49,0.5-0.46,0.9c0.02,0.3,0.03,0.61,0.05,0.91c0.15,2.74,0.14,5.47-0.28,8.18
						c-0.25,1.62-1.59,2.45-3.02,1.96c-1.19-0.4-1.64-1.35-1.39-2.98c0.4-2.62,0.68-5.25,0.66-7.9c0-0.45,0.11-1.12-0.55-1.14
						c-0.75-0.03-0.48,0.65-0.5,1.09c-0.07,1.97-0.52,3.87-1.14,5.72c-0.27,0.8-0.72,1.49-1.62,1.74c-0.81,0.23-1.56,0.09-2.18-0.49
						c-0.65-0.61-0.72-1.41-0.43-2.17c1.44-3.76,1.48-7.63,0.97-11.55c-0.06-0.44-0.03-0.87-0.49-1.13
						c-0.68,0.23-0.57,0.79-0.53,1.3c0.1,1.38,0.19,2.77,0.34,4.15c0.1,0.93-0.4,1.14-1.15,1.12c-0.87-0.02-1.46-0.49-1.82-1.25
						c-0.43-0.9-0.2-1.73,0.42-2.41c1.05-1.15,1.77-2.46,2.16-3.96c0.82-3.21,2.49-5.62,5.98-6.28c0.38-0.07,0.7-0.21,0.58-0.67
						c-0.1-0.36-0.43-0.38-0.75-0.32c-0.17,0.03-0.35,0.14-0.5,0.11c-0.38-0.08-0.81,0.62-1.12-0.01
						C292.85,194.44,293.16,193.98,293.74,193.69z"/>
					<path class="st9" d="M304.41,199.54c-0.77-1.82-2.32-2.7-4.03-3.42c-0.41-0.17-1.28-0.08-1-0.85c0.26-0.73,0.89-0.17,1.35-0.07
						c0.37,0.08,0.72,0.26,1.09,0.4c0.47-1.37,0.47-1.37-0.86-2.14c-2.43-0.7-4.84-0.72-7.22,0.24c-0.58,0.3-0.88,0.75-0.57,1.37
						c0.32,0.63,0.74-0.07,1.12,0.01c0.15,0.03,0.33-0.07,0.5-0.11c0.32-0.07,0.65-0.04,0.75,0.32c0.13,0.45-0.2,0.59-0.58,0.67
						c-3.49,0.66-5.16,3.07-5.98,6.28c-0.39,1.5-1.1,2.81-2.16,3.96c-0.62,0.68-0.85,1.52-0.42,2.41c0.36,0.76,0.95,1.23,1.82,1.25
						c0.74,0.02,1.25-0.19,1.15-1.12c-0.15-1.38-0.24-2.77-0.34-4.15c-0.04-0.51-0.15-1.07,0.53-1.3c0.52-3.23,2.18-5.48,5.56-5.96
						c2.78-0.4,5.54-0.31,7.95,1.5C303.47,199.11,303.82,199.56,304.41,199.54z"/>
					<path class="st10" d="M305.5,204.9c-0.47,3.08-1.49,6.12-0.28,9.25c0.12,0.32,0.13,0.68,0.16,1.03
						c0.15,1.61-0.55,2.7-1.81,2.82c-1.14,0.11-1.87-0.7-2.08-2.32c-0.22-1.63-0.51-3.26-0.96-4.85c-0.1-0.35-0.18-0.74-0.61-0.7
						c-0.55,0.05-0.49,0.5-0.46,0.9c0.02,0.3,0.03,0.61,0.05,0.91c0.15,2.74,0.14,5.47-0.28,8.18c-0.25,1.62-1.59,2.45-3.02,1.96
						c-1.19-0.4-1.64-1.35-1.39-2.98c0.4-2.62,0.68-5.25,0.66-7.9c0-0.45,0.11-1.12-0.55-1.14c-0.75-0.03-0.48,0.65-0.5,1.09
						c-0.07,1.97-0.52,3.87-1.14,5.72c-0.27,0.8-0.72,1.49-1.62,1.74c-0.81,0.23-1.56,0.09-2.18-0.49
						c-0.65-0.61-0.72-1.41-0.43-2.17c1.44-3.76,1.48-7.63,0.97-11.55c-0.06-0.44-0.03-0.87-0.49-1.13
						c0.52-3.23,2.18-5.48,5.56-5.96c2.78-0.4,5.54-0.31,7.95,1.5c0.4,0.3,0.75,0.75,1.34,0.73
						C305.5,201.18,305.78,203.02,305.5,204.9z M302.08,207.98c0.36-0.13,0.84-0.26,0.69-0.76c-0.15-0.52-0.57-0.36-0.96-0.22
						c-2.79,1.03-5.58,1.01-8.37,0.01c-0.37-0.13-0.79-0.35-0.99,0.16c-0.21,0.52,0.26,0.64,0.62,0.78c1.47,0.56,2.99,0.85,4.42,0.8
						C299.16,208.77,300.65,208.52,302.08,207.98z"/>
					<path class="st8" d="M297.49,208.75c1.67,0.01,3.15-0.24,4.58-0.77c0.36-0.13,0.84-0.26,0.69-0.76
						c-0.15-0.52-0.57-0.36-0.96-0.22c-2.79,1.03-5.58,1.01-8.37,0.01c-0.37-0.13-0.79-0.35-0.99,0.16
						c-0.21,0.52,0.26,0.64,0.62,0.78C294.54,208.51,296.06,208.8,297.49,208.75z"/>
				</g>
				<path class="st11" d="M286.57,164.99l4.69-4.42l2.37,2.74c1.79,2.2,3.11,4.67,4.19,7.28c2.75,6.65,3.48,13.62,3.37,20.74
					c-0.01,0.5-0.21,1.05,0.32,1.43c-0.19,0.23-0.38,0.46-0.57,0.69c-2.43-0.7-4.84-0.72-7.22,0.24c-0.1-0.29-0.19-0.58-0.29-0.86
					c0.62-0.21,0.64-0.72,0.65-1.26c0.17-7.63-0.71-15.04-4.55-21.84L286.57,164.99z"/>
			</g>
			<g>
				<path class="st12" d="M274.06,204c-2.86,0-5.21-0.81-5.57-0.94l-10.73-3.28l-0.03-0.01c-2.13-0.77-4.42-1.16-6.8-1.16
					c-3.78,0-6.51,0.99-6.54,1l-0.04,0.01l-13.07,3.98l-0.07,0.01c-1.28,0.24-2.5,0.37-3.63,0.37c-3.29,0-5.95-1.02-7.91-3.03
					c-3.34-3.43-3.36-8.54-3.35-9.11l-0.37-11.27l0-0.05c0.35-7.8-2.92-12.39-2.95-12.44c-4.85-6.37-8.43-12.42-8.63-12.76
					c-2.35-3.79-2.99-7.3-1.93-10.42c1.66-4.84,6.84-6.82,7.06-6.9c0.08-0.03,6.66-2.42,14.33-5.15c7.03-2.5,11.13-9.21,11.37-9.62
					c0.33-0.63,4.47-8.25,11.04-12.25c1.39-0.84,2.88-1.27,4.43-1.27c5.58,0,10.04,5.51,10.23,5.75c0.1,0.12,2.9,3.52,7.5,10.05
					c4.1,5.82,11.24,8.26,11.99,8.5c1.26,0.23,13.66,2.63,17.45,8.13c4.08,5.91-0.15,13.11-0.33,13.41l-0.03,0.04
					c-0.03,0.05-3.35,5.09-7.2,10.2c-3.41,4.53-4.4,10.27-4.51,10.95l-0.37,16.93l-0.02,0.1C283.77,202.67,277.6,204,274.06,204
					C274.06,204,274.06,204,274.06,204z"/>
				<g>
					<path class="st13" d="M217.84,164.53l-0.04-0.06c-4.75-6.23-8.22-12.14-8.25-12.2l-0.06-0.1c-0.93-1.49-1.92-3.63-1.37-5.29
						c0.57-1.72,2.65-2.91,3.48-3.25c0.01,0,0.01-0.01,0.02-0.01c0,0,0,0,0.01,0h0c0,0,0,0,0,0c0.65-0.23,6.95-2.52,14.22-5.11
						c9.27-3.3,14.35-11.91,14.56-12.28l0.05-0.09l0.05-0.09c0.03-0.06,3.61-6.74,8.86-9.94c0.45-0.27,0.86-0.4,1.31-0.4
						c2.03,0,4.62,2.37,5.56,3.51l0.04,0.05c0.15,0.19,2.89,3.54,7.23,9.69c0.29,0.41,0.59,0.8,0.9,1.19
						c1.07-2.07,1.82-3.73,2.28-4.81c-4.23-5.95-6.8-9.06-6.8-9.06s-6.48-8.12-12.97-4.17c-6.48,3.95-10.58,11.77-10.58,11.77
						s-4.32,7.45-12.07,10.21c-7.75,2.76-14.31,5.14-14.31,5.14s-11.4,4.25-4.47,15.42c0,0,3.58,6.11,8.57,12.67
						c0,0,1.51,2.04,2.46,5.77c1.51-0.54,2.98-1.12,4.4-1.73C219.8,167.3,218.13,164.92,217.84,164.53z"/>
					<path class="st4" d="M296.77,142.88c-3.65-5.29-16.69-7.6-16.69-7.6s-8.12-2.46-12.74-9.02c-0.22-0.32-0.44-0.62-0.65-0.92
						c-0.46,1.09-1.21,2.74-2.28,4.81c5.55,6.9,13.95,9.51,14.32,9.62l0.27,0.08l0.27,0.05c3.37,0.6,8.13,2.04,11.14,3.69
						c0,0,0,0,0.01,0c0.02,0.01,0.07,0.03,0.14,0.08c0.58,0.35,2.62,1.85,2.05,5.51c-0.67,4.25-5.3,10.58-16.43,22.13
						c-11.13,11.55-34.87,22.02-34.87,22.02s-14.98,5.59-16.88,2.01c-1.81-3.41-2.4-13.71-2.45-14.67c0-0.05,0-0.07,0-0.07
						c0.14-3.66-0.35-6.76-1.04-9.24c-1.43,0.61-2.9,1.19-4.4,1.73c0.52,2.02,0.87,4.53,0.74,7.49l0.37,11.25
						c0,0-0.37,13.11,13.34,10.51l12.97-3.95c0,0,6.78-2.53,14.23,0.15l10.73,3.28c0,0,12.82,4.84,15.2-8.27l0.37-16.92
						c0,0,0.89-6.48,4.77-11.62c3.87-5.14,7.15-10.13,7.15-10.13S300.43,148.17,296.77,142.88z"/>
					<path class="st14" d="M220.93,171.36c0.69,2.47,1.18,5.57,1.04,9.24c0,0,0,0.02,0,0.07c0.05,0.96,0.64,11.25,2.45,14.67
						c1.9,3.58,16.88-2.01,16.88-2.01s23.75-10.47,34.87-22.02c11.13-11.55,15.76-17.88,16.43-22.13c0.58-3.65-1.47-5.16-2.05-5.51
						c-0.08-0.05-0.13-0.07-0.14-0.08c-0.01,0-0.01,0-0.01,0c-3.01-1.65-7.77-3.08-11.14-3.69l-0.27-0.05l-0.27-0.08
						c-0.37-0.11-8.77-2.72-14.32-9.62C259.1,140.4,245.94,160.69,220.93,171.36z"/>
				</g>
				<g>
					<path class="st15" d="M263.5,128.96c-4.33-6.15-7.07-9.5-7.23-9.69l-0.04-0.05c-0.73-0.9-2.47-2.53-4.17-3.21
						c-0.11,0.05-3.99,1.89-6.69,7.5c-2.74,5.7-5.03,14.75-12.97,17.1c-7.17,2.12-23.35,2.78-24.12,9.1
						c0.3,0.88,0.75,1.74,1.19,2.45l0.06,0.1c0.03,0.06,3.51,5.96,8.25,12.2l0.04,0.06c0.29,0.39,1.96,2.77,3.09,6.83
						c25.02-10.67,38.17-30.97,43.47-41.21C264.09,129.77,263.79,129.37,263.5,128.96z"/>
					<path class="st16" d="M232.41,140.62c7.94-2.35,10.23-11.4,12.97-17.1c2.7-5.62,6.58-7.45,6.69-7.5
						c-0.47-0.19-0.94-0.3-1.39-0.3c-0.45,0-0.87,0.13-1.31,0.4c-5.25,3.2-8.83,9.88-8.86,9.94l-0.05,0.09l-0.05,0.09
						c-0.21,0.37-5.29,8.98-14.56,12.28c-7.27,2.59-13.57,4.87-14.22,5.11c0,0,0,0,0,0h0c0,0,0,0-0.01,0
						c-0.01,0-0.01,0.01-0.02,0.01c-0.83,0.35-2.91,1.53-3.48,3.25c-0.29,0.87-0.15,1.87,0.18,2.85
						C209.06,143.4,225.24,142.74,232.41,140.62z"/>
				</g>
				<g>
					<g>
						<path d="M260.1,159.62c-4.3,0-7.8-3.85-7.8-8.58s3.5-8.58,7.8-8.58c4.3,0,7.8,3.85,7.8,8.58S264.4,159.62,260.1,159.62z"/>
						<g>
							<path class="st17" d="M260.1,143.25c-3.7,0-6.74,3.19-6.99,7.24h13.99C266.84,146.44,263.81,143.25,260.1,143.25z"/>
							<path class="st3" d="M267.1,150.49h-13.99c-0.01,0.19-0.02,0.37-0.02,0.56c0,0.18,0.01,0.35,0.02,0.53h13.99
								c0.01-0.17,0.02-0.35,0.02-0.53C267.12,150.86,267.11,150.67,267.1,150.49z"/>
						</g>
						<g>
							<path class="st18" d="M260.12,151.58c0.09,0.69,0.48,1.76,2.13,1.45c0,0-0.05,2.1-1.53,3.31c-0.75,0.61-1.75,0.78-2.64,0.42
								c-1.13-0.46-2.5-1.73-1.84-5.18h-3.14c0.24,4.06,3.28,7.27,6.99,7.27c3.72,0,6.75-3.21,7-7.27H260.12z"/>
							<path d="M258.08,156.76c0.89,0.36,1.89,0.19,2.64-0.42c1.48-1.21,1.53-3.31,1.53-3.31c-1.65,0.31-2.04-0.77-2.13-1.45h-3.87
								C255.58,155.02,256.95,156.29,258.08,156.76z"/>
						</g>
					</g>
					<g>
						<path d="M261.84,140.43c-1.46,0-2.76-0.35-3.83-0.78c-1.36-0.56-2.47-1.32-3.24-1.95c-0.68-0.56-0.7-1.59-0.04-2.18v0
							c0.53-0.47,1.31-0.49,1.86-0.04c0.61,0.5,1.51,1.12,2.59,1.55c2.26,0.9,4.47,0.65,6.59-0.75c0.6-0.4,1.41-0.28,1.88,0.28l0,0
							c0.55,0.65,0.41,1.65-0.3,2.12C265.4,139.98,263.52,140.43,261.84,140.43z"/>
					</g>
				</g>
				<g>
					<g>
						<path d="M241.95,159.62c4.3,0,7.8-3.85,7.8-8.58s-3.5-8.58-7.8-8.58c-4.3,0-7.8,3.85-7.8,8.58S237.65,159.62,241.95,159.62z"
							/>
						<g>
							<path class="st17" d="M241.95,143.25c3.7,0,6.74,3.19,6.99,7.24h-13.99C235.21,146.44,238.24,143.25,241.95,143.25z"/>
							<path class="st3" d="M234.95,150.49h13.99c0.01,0.19,0.02,0.37,0.02,0.56c0,0.18-0.01,0.35-0.02,0.53h-13.99
								c-0.01-0.17-0.02-0.35-0.02-0.53C234.93,150.86,234.94,150.67,234.95,150.49z"/>
						</g>
						<g>
							<path class="st18" d="M241.93,151.58c-0.09,0.69-0.48,1.76-2.13,1.45c0,0,0.05,2.1,1.53,3.31c0.74,0.61,1.75,0.78,2.64,0.42
								c1.13-0.46,2.5-1.73,1.84-5.18h3.14c-0.24,4.06-3.28,7.27-6.99,7.27c-3.72,0-6.75-3.21-7-7.27H241.93z"/>
							<path d="M243.97,156.76c-0.89,0.36-1.89,0.19-2.64-0.42c-1.48-1.21-1.53-3.31-1.53-3.31c1.65,0.31,2.04-0.77,2.13-1.45h3.87
								C246.47,155.02,245.1,156.29,243.97,156.76z"/>
						</g>
					</g>
					<g>
						<g>
							<path d="M240.21,140.43c1.46,0,2.76-0.35,3.83-0.78c1.36-0.56,2.47-1.32,3.24-1.95c0.68-0.56,0.7-1.59,0.04-2.18v0
								c-0.53-0.47-1.31-0.49-1.86-0.04c-0.61,0.5-1.51,1.12-2.59,1.55c-2.26,0.9-4.47,0.65-6.59-0.75c-0.6-0.4-1.41-0.28-1.88,0.28
								l0,0c-0.55,0.65-0.41,1.65,0.3,2.12C236.65,139.98,238.53,140.43,240.21,140.43z"/>
						</g>
					</g>
				</g>
				<g>
					<path class="st19" d="M256.53,179.62c-1.34,0-2.56-0.38-2.7-0.43l-0.05-0.02c-1.14-0.41-2.35-0.62-3.61-0.62
						c-1.56,0-2.69,0.32-2.89,0.39c-0.88,0.36-1.66,0.53-2.37,0.53c-1.03,0-1.91-0.37-2.54-1.08c-1.24-1.39-1.02-3.56-0.99-3.81
						c0.42-3.08,2.11-5.48,4.9-6.95c1.32-0.7,2.82-1.07,4.33-1.07c1.72,0,3.43,0.47,4.93,1.36c0.79,0.47,1.47,0.95,1.91,1.28
						c1.72,1.26,3.7,4.98,2.89,7.94C260.14,177.89,259.36,179.62,256.53,179.62C256.53,179.62,256.53,179.62,256.53,179.62z"/>
					<path class="st20" d="M256.63,170.33c-0.48-0.35-1.09-0.79-1.79-1.2c-2.42-1.44-5.41-1.58-7.9-0.26
						c-1.84,0.97-3.74,2.73-4.16,5.88c0,0-0.57,4.79,4.03,2.88c0,0,3.49-1.2,7.46,0.23c0,0,4.08,1.31,4.73-1.08
						C259.65,174.38,257.91,171.27,256.63,170.33z"/>
				</g>
			</g>
		</g>
	</g>
	<g>
		<g id="Shadow_2_">
			<path class="st1" d="M252.8,335.72l-3.7-2.73l3.07-1.34c1.6-0.7,1.96-1.9,2.03-2.56c0.07-0.66-0.01-1.91-1.42-2.94l-6.71-4.95
				c-0.74-0.55-1.66-0.89-2.73-1.01c-1.07-0.12-2.04,0.01-2.88,0.38l-5.15,2.25l-23.38-17.25c-0.74-0.55-1.66-0.89-2.73-1.01
				c-1.07-0.12-2.04,0.01-2.89,0.38l-10.88,4.75c-0.94,0.41-1.58,0.85-2.01,1.39c-0.52,0.66-0.75,1.51-0.69,2.59l2.31,27.06
				c0.16,1.36,1.02,2.64,2.57,3.78l6.71,4.95c0.74,0.55,1.66,0.89,2.72,1.01l0.01,0c1.07,0.12,2.04-0.01,2.89-0.38l21.66-9.45
				l5.54,4.09c0.74,0.55,1.66,0.89,2.73,1.01c1.06,0.12,2.03-0.01,2.88-0.38l9.44-4.12c1.6-0.69,1.96-1.9,2.04-2.56
				C254.29,338.01,254.2,336.75,252.8,335.72z M213.29,332.42l-0.52-6.1l5.38,3.97L213.29,332.42z"/>
			<path class="st1" d="M297.26,299.01c-1.66-1.34-3.51-2.76-5.49-4.22c-1.96-1.45-3.95-2.86-5.92-4.19
				c-2.52-1.68-5.35-3.16-8.39-4.38c-3.07-1.23-6.36-2.07-9.78-2.5l-0.46-0.05c-3.27-0.37-6.71-0.33-10.21,0.12
				c-3.7,0.47-7.47,1.54-11.23,3.18c-3.89,1.7-6.69,3.52-8.57,5.56c-1.96,2.14-3.05,4.41-3.23,6.75c-0.18,2.34,0.49,4.67,1.97,6.93
				c1.35,2.06,3.19,4.06,5.49,5.94c1.72,1.38,3.61,2.83,5.62,4.31c2.01,1.48,3.95,2.86,5.79,4.1c2.53,1.69,5.35,3.16,8.39,4.38
				c3.07,1.23,6.36,2.07,9.78,2.5l0.46,0.05c3.28,0.37,6.71,0.33,10.21-0.12c3.69-0.47,7.47-1.54,11.23-3.18
				c3.89-1.7,6.7-3.52,8.57-5.56c1.97-2.14,3.05-4.41,3.23-6.75c0.18-2.33-0.49-4.67-1.97-6.94
				C301.39,302.88,299.55,300.88,297.26,299.01z M283.52,311.66c-0.21,0.26-0.8,0.79-2.31,1.45c-1.25,0.54-2.45,0.88-3.59,1
				c-0.9,0.09-1.8,0.09-2.65,0c-0.23-0.03-0.47-0.06-0.7-0.1c-1.07-0.19-2.12-0.52-3.11-0.98c-1.05-0.49-2.1-1.09-3.13-1.8
				c-3.75-2.49-7.27-5.09-10.5-7.75c-0.87-0.69-1.57-1.37-2.06-2.02c-0.37-0.48-0.58-0.92-0.62-1.27c-0.01-0.07-0.03-0.28,0.31-0.69
				c0.21-0.26,0.8-0.79,2.31-1.45c1.25-0.55,2.46-0.88,3.59-1c0.87-0.09,1.72-0.09,2.53,0c0.26,0.03,0.51,0.07,0.75,0.11
				c1.07,0.2,2.11,0.54,3.1,1c1.07,0.5,2.16,1.1,3.18,1.76c3.63,2.46,7.16,5.06,10.51,7.75c0.89,0.7,1.61,1.39,2.13,2.05
				c0.35,0.44,0.56,0.84,0.58,1.17C283.86,310.98,283.88,311.22,283.52,311.66z"/>
			<path class="st1" d="M358.07,289.77l-3.7-2.73l3.07-1.34c1.6-0.7,1.96-1.9,2.03-2.56c0.07-0.65-0.01-1.91-1.42-2.95l-6.71-4.95
				c-0.74-0.55-1.66-0.89-2.73-1.01c-1.07-0.12-2.04,0.01-2.88,0.38l-5.15,2.25l-23.38-17.25c-0.74-0.55-1.66-0.89-2.73-1.01
				c-1.07-0.12-2.04,0.01-2.89,0.38l-10.88,4.75c-0.94,0.41-1.57,0.85-2.02,1.39c-0.52,0.66-0.75,1.51-0.69,2.59l2.31,27.06
				c0.16,1.36,1.02,2.63,2.57,3.78l6.71,4.95c0.74,0.55,1.66,0.89,2.72,1.01l0.01,0c1.07,0.12,2.04-0.01,2.89-0.38l21.66-9.45
				l5.54,4.09c0.74,0.55,1.66,0.89,2.73,1.01c1.06,0.12,2.03-0.01,2.88-0.38l9.44-4.12c1.6-0.69,1.96-1.9,2.04-2.57
				C359.56,292.05,359.47,290.8,358.07,289.77z M318.56,286.47l-0.52-6.1l5.38,3.97L318.56,286.47z"/>
		</g>
		<g id="_x34_04_1_">
			<g id="_x34_04">
				<g>
					<g>
						<path class="st21" d="M251.61,330.4l-9.44,4.12c-0.53,0.23-1.15,0.31-1.88,0.23c-0.72-0.08-1.31-0.29-1.77-0.64l-6.46-4.76
							l-22.7,9.91c-0.53,0.23-1.15,0.31-1.88,0.23c-0.72-0.08-1.31-0.3-1.78-0.64L199,333.9c-1.1-0.81-1.69-1.61-1.79-2.42l-2.31-27
							c-0.01-0.18,0-0.33,0.01-0.48c-0.06,0.51-0.81,7.1-0.83,7.42c-0.01,0.13-0.01,0.26-0.01,0.41l2.31,27
							c0.09,0.8,0.68,1.61,1.79,2.42l6.71,4.95c0.47,0.34,1.06,0.56,1.78,0.64c0.72,0.08,1.35,0,1.88-0.23l22.7-9.91l6.46,4.76
							c0.46,0.35,1.05,0.56,1.77,0.64c0.72,0.08,1.35,0.01,1.88-0.23l9.44-4.12c0.53-0.23,0.82-0.55,0.86-0.98l0.83-7.36
							C252.43,329.84,252.14,330.17,251.61,330.4z"/>
						<path class="st21" d="M251.63,327.21l0.83-7.36c-0.05,0.42-0.34,0.74-0.86,0.98l-6.2,2.7l5.88,4.33
							C251.47,327.68,251.6,327.46,251.63,327.21z"/>
						<polygon class="st21" points="211.38,321.64 215.5,324.69 222.3,321.73 210.66,313.13 211.38,321.64 						"/>
					</g>
					<g>
						<polygon class="st22" points="211.38,321.64 215.5,324.69 222.3,321.73 210.66,313.13 211.38,321.64 						"/>
						<path class="st22" d="M251.63,327.21l0.83-7.36c-0.05,0.42-0.34,0.74-0.86,0.98l-6.2,2.7l5.88,4.33
							C251.47,327.68,251.6,327.46,251.63,327.21z"/>
						<path class="st23" d="M251.61,330.4l-9.44,4.12c-0.53,0.23-1.15,0.31-1.88,0.23l-0.83,7.36c0.72,0.08,1.35,0.01,1.88-0.23
							l9.44-4.12c0.53-0.23,0.82-0.55,0.86-0.98l0.83-7.36C252.43,329.84,252.14,330.17,251.61,330.4z"/>
						<path class="st23" d="M197.21,331.48l-2.31-27c-0.01-0.18,0-0.33,0.01-0.48c-0.06,0.51-0.81,7.1-0.83,7.42
							c-0.01,0.13-0.01,0.26-0.01,0.41l2.31,27c0.01,0.15,0.05,0.31,0.11,0.47l0.83-7.36C197.27,331.79,197.23,331.64,197.21,331.48
							z"/>
						<path class="st22" d="M207.48,339.49c-0.72-0.08-1.31-0.3-1.78-0.64L199,333.9c-0.89-0.65-1.45-1.3-1.67-1.95l-0.83,7.36
							c0.22,0.65,0.78,1.3,1.67,1.95l6.71,4.95c0.47,0.34,1.06,0.56,1.78,0.64c0.07,0.01,0.13,0.02,0.21,0.01l0.83-7.36
							C207.62,339.5,207.55,339.5,207.48,339.49z"/>
						<path class="st23" d="M209.36,339.26c-0.48,0.21-1.03,0.29-1.67,0.23l-0.83,7.36c0.64,0.06,1.19-0.02,1.67-0.23l22.7-9.91
							l0.83-7.36L209.36,339.26z"/>
						<path class="st22" d="M238.52,334.11l-6.46-4.76l-0.83,7.36l6.46,4.76c0.46,0.35,1.05,0.56,1.77,0.64l0.83-7.36
							C239.57,334.67,238.98,334.46,238.52,334.11z"/>
					</g>
					<path class="st4" d="M242.17,334.52c-0.53,0.23-1.16,0.31-1.88,0.22c-0.72-0.08-1.31-0.29-1.78-0.64l-6.45-4.76l-22.7,9.91
						c-0.53,0.23-1.15,0.31-1.88,0.22c-0.72-0.08-1.31-0.29-1.78-0.64L199,333.9c-1.1-0.81-1.69-1.61-1.78-2.42l-2.31-27.01
						c-0.03-0.53,0.06-0.93,0.27-1.2c0.21-0.27,0.63-0.54,1.26-0.81l10.88-4.75c0.53-0.23,1.15-0.3,1.88-0.22
						c0.72,0.08,1.31,0.29,1.78,0.64l24.3,17.93l6.2-2.71c0.53-0.23,1.15-0.3,1.88-0.22c0.72,0.08,1.31,0.29,1.78,0.64l6.71,4.95
						c0.46,0.34,0.67,0.72,0.63,1.14c-0.05,0.42-0.34,0.74-0.86,0.97l-6.2,2.71l6.45,4.76c0.47,0.34,0.67,0.72,0.63,1.14
						c-0.05,0.42-0.34,0.74-0.86,0.97L242.17,334.52z M222.3,321.72l-11.64-8.59l1.12,13.18L222.3,321.72z"/>
				</g>
				<g>
					<g>
						<path class="st21" d="M302.93,303.08c-0.23,1.77-1.13,3.5-2.68,5.2c-1.67,1.81-4.3,3.51-7.91,5.09
							c-3.6,1.57-7.16,2.58-10.69,3.03c-3.52,0.45-6.92,0.47-10.19,0.06c-3.26-0.41-6.36-1.2-9.29-2.37
							c-2.93-1.17-5.61-2.57-8.03-4.19c-1.82-1.23-3.72-2.58-5.71-4.04c-1.98-1.46-3.83-2.88-5.55-4.26
							c-2.13-1.74-3.83-3.57-5.07-5.47c-1.25-1.91-1.8-3.81-1.65-5.71c-0.09,1.17-0.73,6.07-0.83,7.36c-0.15,1.9,0.4,3.8,1.65,5.71
							c1.24,1.9,2.93,3.73,5.07,5.47c1.72,1.39,3.57,2.8,5.55,4.26c1.99,1.46,3.89,2.81,5.71,4.05c2.42,1.62,5.1,3.01,8.03,4.18
							c2.93,1.17,6.03,1.97,9.29,2.37c3.27,0.41,6.66,0.38,10.19-0.06c3.52-0.45,7.08-1.46,10.69-3.03
							c3.61-1.57,6.24-3.27,7.91-5.09c1.67-1.81,2.57-3.68,2.72-5.57C302.22,308.99,302.76,304.76,302.93,303.08z"/>
						<path class="st22" d="M273.28,316.63c-0.61-0.05-1.21-0.09-1.81-0.16c-3.26-0.41-6.36-1.2-9.29-2.37
							c-2.93-1.17-5.61-2.57-8.03-4.19c-1.82-1.23-3.72-2.58-5.71-4.04c-1.98-1.46-3.83-2.88-5.55-4.26
							c-2.13-1.74-3.83-3.57-5.07-5.47c-1.25-1.91-1.8-3.81-1.65-5.71c-0.09,1.17-0.73,6.07-0.83,7.36c-0.15,1.9,0.4,3.8,1.65,5.71
							c1.24,1.9,2.93,3.73,5.07,5.47c1.72,1.39,3.57,2.8,5.55,4.26c1.99,1.46,3.89,2.81,5.71,4.05c2.42,1.62,5.1,3.01,8.03,4.18
							c2.93,1.17,6.03,1.97,9.29,2.37c0.6,0.07,1.2,0.12,1.81,0.16L273.28,316.63z"/>
						<path class="st23" d="M302.93,303.08c-0.23,1.77-1.13,3.5-2.68,5.2c-1.67,1.81-4.3,3.51-7.91,5.09
							c-3.6,1.57-7.16,2.58-10.69,3.03c-2.88,0.36-5.67,0.43-8.37,0.23l-0.83,7.36c2.71,0.2,5.5,0.14,8.37-0.23
							c3.52-0.45,7.08-1.46,10.69-3.03c3.61-1.57,6.24-3.27,7.91-5.09c1.67-1.81,2.57-3.68,2.72-5.57
							C302.22,308.99,302.76,304.76,302.93,303.08z"/>
					</g>
					<g>
						<path class="st21" d="M254.13,293.64c0.33,0.43,0.73,0.88,1.19,1.31c0.24-0.12,0.49-0.25,0.76-0.37
							c1.44-0.62,2.83-1.01,4.17-1.15c1.34-0.14,2.63-0.09,3.86,0.14c1.23,0.23,2.42,0.61,3.57,1.15c1.15,0.54,2.3,1.18,3.45,1.91
							c3.69,2.5,7.24,5.11,10.63,7.85c0.44,0.35,0.85,0.71,1.22,1.05c1.04-0.51,1.8-1.05,2.27-1.63c0.58-0.7,0.84-1.42,0.79-2.17
							c-0.05-0.74-0.39-1.5-1.01-2.27c-0.63-0.77-1.44-1.55-2.45-2.35c-3.39-2.73-6.94-5.35-10.63-7.85
							c-1.15-0.73-2.3-1.37-3.45-1.91c-1.16-0.54-2.34-0.92-3.57-1.15c-1.23-0.23-2.52-0.28-3.86-0.14
							c-1.34,0.14-2.73,0.53-4.17,1.15c-1.44,0.63-2.45,1.3-3.03,2c-0.58,0.7-0.83,1.42-0.76,2.15
							C253.2,292.1,253.54,292.86,254.13,293.64z"/>
						<path class="st22" d="M254.13,293.64c0.33,0.43,0.73,0.88,1.19,1.31c0.24-0.12,0.49-0.25,0.76-0.37
							c1.44-0.62,2.83-1.01,4.17-1.15c1.34-0.14,2.63-0.09,3.86,0.14c1.23,0.23,2.42,0.61,3.57,1.15c1.15,0.54,2.3,1.18,3.45,1.91
							c3.69,2.5,7.24,5.11,10.63,7.85c0.44,0.35,0.85,0.71,1.22,1.05c1.04-0.51,1.8-1.05,2.27-1.63c0.58-0.7,0.84-1.42,0.79-2.17
							c-0.05-0.74-0.39-1.5-1.01-2.27c-0.63-0.77-1.44-1.55-2.45-2.35c-3.39-2.73-6.94-5.35-10.63-7.85
							c-1.15-0.73-2.3-1.37-3.45-1.91c-1.16-0.54-2.34-0.92-3.57-1.15c-1.23-0.23-2.52-0.28-3.86-0.14
							c-1.34,0.14-2.73,0.53-4.17,1.15c-1.44,0.63-2.45,1.3-3.03,2c-0.58,0.7-0.83,1.42-0.76,2.15
							C253.2,292.1,253.54,292.86,254.13,293.64z"/>
					</g>
					<path class="st4" d="M246.78,279.75c3.6-1.57,7.17-2.58,10.69-3.03c3.52-0.45,6.92-0.47,10.18-0.06
						c3.26,0.41,6.36,1.2,9.29,2.37c2.93,1.17,5.6,2.57,8.03,4.19c1.91,1.3,3.86,2.68,5.84,4.14c1.98,1.46,3.79,2.85,5.42,4.17
						c2.13,1.74,3.82,3.57,5.07,5.48c1.25,1.91,1.8,3.81,1.65,5.71c-0.14,1.9-1.05,3.75-2.72,5.57c-1.67,1.82-4.3,3.51-7.91,5.09
						c-3.6,1.57-7.17,2.58-10.69,3.03c-3.52,0.45-6.92,0.47-10.18,0.06c-3.27-0.41-6.37-1.2-9.29-2.37
						c-2.93-1.17-5.61-2.57-8.03-4.19c-1.83-1.23-3.73-2.58-5.71-4.05c-1.98-1.46-3.83-2.88-5.55-4.26
						c-2.13-1.74-3.82-3.57-5.07-5.48c-1.25-1.91-1.8-3.81-1.65-5.71c0.15-1.9,1.05-3.75,2.72-5.57
						C240.55,283.02,243.18,281.33,246.78,279.75z M282.59,297.12c-3.39-2.73-6.94-5.34-10.63-7.84c-1.15-0.74-2.3-1.37-3.45-1.91
						c-1.15-0.54-2.34-0.92-3.57-1.15c-1.23-0.23-2.52-0.28-3.86-0.14c-1.34,0.14-2.73,0.52-4.17,1.15
						c-1.44,0.63-2.45,1.29-3.03,1.99c-0.58,0.7-0.83,1.42-0.76,2.15c0.08,0.73,0.42,1.49,1.01,2.27c0.6,0.78,1.4,1.57,2.41,2.37
						c3.26,2.69,6.8,5.3,10.63,7.84c1.1,0.76,2.23,1.4,3.38,1.94c1.15,0.54,2.35,0.92,3.61,1.14c1.26,0.22,2.55,0.26,3.89,0.12
						c1.34-0.14,2.73-0.52,4.17-1.15c1.44-0.63,2.45-1.29,3.03-1.99c0.58-0.7,0.85-1.42,0.79-2.17c-0.05-0.74-0.39-1.5-1.01-2.27
						C284.41,298.7,283.6,297.91,282.59,297.12z"/>
				</g>
				<g>
					<g>
						<path class="st21" d="M356.88,284.45l-9.44,4.12c-0.53,0.23-1.15,0.31-1.88,0.23c-0.72-0.08-1.31-0.29-1.77-0.64l-6.46-4.76
							l-22.7,9.91c-0.53,0.23-1.15,0.31-1.88,0.23c-0.72-0.08-1.31-0.3-1.78-0.64l-6.71-4.95c-1.1-0.81-1.69-1.61-1.79-2.42
							l-2.31-27c-0.01-0.18,0-0.33,0.01-0.48c-0.06,0.51-0.81,7.1-0.83,7.42c-0.01,0.13-0.01,0.26-0.01,0.41l2.31,27
							c0.09,0.8,0.68,1.61,1.79,2.42l6.71,4.95c0.47,0.34,1.06,0.56,1.78,0.64c0.72,0.08,1.35,0,1.88-0.23l22.7-9.91l6.46,4.76
							c0.46,0.35,1.05,0.56,1.77,0.64c0.72,0.08,1.35,0.01,1.88-0.23l9.44-4.12c0.53-0.23,0.82-0.55,0.86-0.98l0.83-7.36
							C357.7,283.89,357.41,284.22,356.88,284.45z"/>
						<path class="st21" d="M356.9,281.26l0.83-7.36c-0.05,0.42-0.34,0.74-0.86,0.98l-6.2,2.7l5.88,4.33
							C356.74,281.73,356.87,281.51,356.9,281.26z"/>
						<polygon class="st21" points="316.65,275.68 320.78,278.74 327.57,275.77 315.93,267.18 316.65,275.68 						"/>
					</g>
					<g>
						<polygon class="st22" points="316.65,275.68 320.78,278.74 327.57,275.77 315.93,267.18 316.65,275.68 						"/>
						<path class="st22" d="M356.9,281.26l0.83-7.36c-0.05,0.42-0.34,0.74-0.86,0.98l-6.2,2.7l5.88,4.33
							C356.74,281.73,356.87,281.51,356.9,281.26z"/>
						<path class="st23" d="M356.88,284.45l-9.44,4.12c-0.53,0.23-1.15,0.31-1.88,0.23l-0.83,7.36c0.72,0.08,1.35,0.01,1.88-0.23
							l9.44-4.12c0.53-0.23,0.82-0.55,0.86-0.98l0.83-7.36C357.7,283.89,357.41,284.22,356.88,284.45z"/>
						<path class="st23" d="M302.48,285.53l-2.31-27c-0.01-0.18,0-0.33,0.01-0.48c-0.06,0.51-0.81,7.1-0.83,7.42
							c-0.01,0.13-0.01,0.26-0.01,0.41l2.31,27c0.01,0.15,0.05,0.31,0.11,0.47l0.83-7.36C302.54,285.84,302.5,285.68,302.48,285.53z
							"/>
						<path class="st22" d="M312.75,293.54c-0.72-0.08-1.31-0.3-1.78-0.64l-6.71-4.95c-0.89-0.65-1.45-1.3-1.67-1.95l-0.83,7.36
							c0.22,0.65,0.78,1.3,1.67,1.95l6.71,4.95c0.47,0.34,1.06,0.56,1.78,0.64c0.07,0.01,0.13,0.01,0.21,0.01l0.83-7.36
							C312.89,293.55,312.83,293.54,312.75,293.54z"/>
						<path class="st23" d="M314.63,293.31c-0.48,0.21-1.03,0.29-1.67,0.23l-0.83,7.36c0.64,0.06,1.19-0.02,1.67-0.23l22.7-9.91
							l0.83-7.36L314.63,293.31z"/>
						<path class="st22" d="M343.79,288.16l-6.46-4.76l-0.83,7.36l6.46,4.76c0.46,0.35,1.05,0.56,1.77,0.64l0.83-7.36
							C344.84,288.71,344.25,288.51,343.79,288.16z"/>
					</g>
					<path class="st4" d="M347.44,288.57c-0.53,0.23-1.16,0.31-1.88,0.22c-0.72-0.08-1.31-0.29-1.78-0.64l-6.45-4.76l-22.7,9.91
						c-0.53,0.23-1.15,0.31-1.88,0.22c-0.72-0.08-1.31-0.29-1.78-0.64l-6.71-4.95c-1.1-0.81-1.69-1.61-1.78-2.42l-2.31-27.01
						c-0.03-0.53,0.06-0.93,0.27-1.2c0.21-0.27,0.63-0.54,1.26-0.81l10.88-4.75c0.53-0.23,1.15-0.3,1.88-0.22
						c0.72,0.08,1.31,0.29,1.78,0.64l24.3,17.93l6.2-2.71c0.53-0.23,1.15-0.3,1.88-0.22c0.72,0.08,1.31,0.29,1.78,0.64l6.71,4.95
						c0.46,0.34,0.67,0.72,0.63,1.14c-0.05,0.42-0.34,0.74-0.86,0.97l-6.2,2.71l6.45,4.76c0.47,0.34,0.67,0.72,0.63,1.14
						c-0.05,0.42-0.34,0.74-0.86,0.97L347.44,288.57z M327.57,275.77l-11.64-8.59l1.12,13.18L327.57,275.77z"/>
				</g>
			</g>
			<g>
				<path class="st22" d="M295.13,340.62c0.16-0.07,0.35-0.09,0.57-0.07c0.22,0.02,0.4,0.09,0.54,0.19l2.04,1.51
					c0.14,0.1,0.21,0.22,0.19,0.35c-0.01,0.13-0.1,0.23-0.26,0.3l-10.41,4.54c-0.16,0.07-0.35,0.09-0.57,0.07
					c-0.22-0.02-0.4-0.09-0.54-0.19l-12.46-9.19c-0.14-0.1-0.2-0.22-0.19-0.35c0.01-0.13,0.1-0.23,0.26-0.3l10.24-4.47
					c0.16-0.07,0.35-0.09,0.57-0.07c0.22,0.02,0.4,0.09,0.54,0.19l2.04,1.51c0.14,0.1,0.2,0.22,0.19,0.35
					c-0.01,0.13-0.1,0.23-0.26,0.3l-6.77,2.95l2.08,1.54l6.28-2.74c0.16-0.07,0.35-0.09,0.57-0.07c0.22,0.02,0.4,0.09,0.54,0.19
					l2.04,1.51c0.14,0.1,0.21,0.22,0.19,0.35c-0.01,0.13-0.1,0.23-0.26,0.3l-6.28,2.74l2.16,1.59L295.13,340.62z"/>
				<path class="st22" d="M299.56,330.53c0.16-0.07,0.35-0.09,0.57-0.07c0.22,0.02,0.4,0.09,0.54,0.19l1.95,1.44
					c0.14,0.1,0.2,0.22,0.19,0.35c-0.01,0.13-0.1,0.23-0.26,0.3l-2,0.87c-1.35,0.59-1.43,1.32-0.25,2.19l4.74,3.5
					c0.14,0.1,0.21,0.22,0.19,0.35c-0.01,0.13-0.1,0.23-0.26,0.3l-2.77,1.21c-0.16,0.07-0.35,0.09-0.57,0.07
					c-0.22-0.02-0.4-0.09-0.54-0.19l-8.99-6.63c-0.14-0.1-0.21-0.22-0.19-0.35c0.01-0.13,0.1-0.23,0.26-0.3l2.55-1.11
					c0.16-0.07,0.35-0.09,0.57-0.07c0.22,0.02,0.4,0.09,0.54,0.19l0.44,0.33c0.05-0.35,0.23-0.7,0.52-1.04
					c0.3-0.34,0.77-0.66,1.43-0.94L299.56,330.53z"/>
				<path class="st22" d="M310.2,325.89c0.16-0.07,0.35-0.09,0.57-0.07c0.22,0.02,0.4,0.09,0.54,0.19l1.95,1.44
					c0.14,0.1,0.2,0.22,0.19,0.35c-0.01,0.13-0.1,0.23-0.26,0.3l-2,0.87c-1.35,0.59-1.43,1.32-0.25,2.19l4.74,3.5
					c0.14,0.1,0.21,0.22,0.19,0.35c-0.01,0.13-0.1,0.23-0.26,0.3l-2.77,1.21c-0.16,0.07-0.35,0.09-0.57,0.07
					c-0.22-0.02-0.4-0.09-0.54-0.19l-8.99-6.63c-0.14-0.1-0.21-0.22-0.19-0.35c0.01-0.13,0.1-0.23,0.26-0.3l2.55-1.11
					c0.16-0.07,0.35-0.09,0.57-0.07c0.22,0.02,0.4,0.09,0.54,0.19l0.44,0.33c0.05-0.36,0.23-0.7,0.53-1.04
					c0.3-0.34,0.77-0.65,1.43-0.94L310.2,325.89z"/>
				<path class="st22" d="M328.49,322.93c0.21,0.14,0.46,0.32,0.76,0.54c0.3,0.22,0.54,0.41,0.72,0.56
					c0.59,0.47,1.01,0.97,1.25,1.49c0.25,0.53,0.32,1.05,0.21,1.57c-0.11,0.52-0.41,1.03-0.9,1.51c-0.49,0.49-1.19,0.93-2.08,1.32
					c-0.89,0.39-1.82,0.66-2.77,0.8c-0.96,0.15-1.89,0.18-2.81,0.11c-0.92-0.07-1.79-0.25-2.63-0.52c-0.83-0.27-1.57-0.63-2.22-1.07
					c-0.21-0.14-0.46-0.31-0.76-0.54c-0.3-0.22-0.54-0.41-0.72-0.56c-0.6-0.46-1.03-0.96-1.27-1.48c-0.25-0.53-0.31-1.05-0.2-1.58
					c0.11-0.53,0.42-1.03,0.9-1.53c0.49-0.49,1.18-0.93,2.07-1.32s1.82-0.66,2.78-0.8c0.96-0.14,1.91-0.18,2.83-0.1
					c0.92,0.07,1.8,0.24,2.63,0.52C327.11,322.13,327.85,322.49,328.49,322.93z M321.88,327.45c0.53,0.34,1.12,0.54,1.75,0.58
					c0.64,0.05,1.25-0.06,1.83-0.31c0.59-0.26,0.92-0.56,1-0.92c0.08-0.36-0.1-0.73-0.54-1.11c-0.16-0.16-0.37-0.32-0.61-0.5
					c-0.24-0.18-0.48-0.34-0.7-0.46c-0.53-0.34-1.12-0.54-1.75-0.58c-0.64-0.05-1.25,0.06-1.83,0.31c-0.59,0.26-0.92,0.56-1,0.92
					c-0.08,0.36,0.1,0.73,0.54,1.11c0.16,0.16,0.37,0.32,0.61,0.5C321.43,327.16,321.66,327.32,321.88,327.45z"/>
				<path class="st22" d="M334.8,315.15c0.16-0.07,0.35-0.09,0.57-0.07c0.22,0.03,0.4,0.09,0.54,0.19l1.95,1.44
					c0.14,0.1,0.2,0.22,0.19,0.35c-0.01,0.13-0.1,0.23-0.26,0.3l-2,0.87c-1.35,0.59-1.43,1.32-0.25,2.19l4.74,3.5
					c0.14,0.1,0.21,0.22,0.19,0.35c-0.01,0.13-0.1,0.23-0.26,0.3l-2.77,1.21c-0.16,0.07-0.35,0.09-0.57,0.07
					c-0.22-0.02-0.4-0.09-0.54-0.19l-8.99-6.63c-0.14-0.1-0.21-0.22-0.19-0.35c0.01-0.13,0.1-0.23,0.26-0.3l2.55-1.11
					c0.16-0.07,0.35-0.09,0.57-0.07c0.22,0.02,0.4,0.09,0.54,0.19l0.44,0.33c0.05-0.35,0.23-0.7,0.52-1.04
					c0.3-0.34,0.77-0.65,1.43-0.94L334.8,315.15z"/>
			</g>
		</g>
	</g>
</g>
</svg>
