<?xml version="1.0" encoding="utf-8"?>
<!-- Generator: Adobe Illustrator 25.0.0, SVG Export Plug-In . SVG Version: 6.00 Build 0)  -->
<svg version="1.1" id="Layer_1" xmlns="http://www.w3.org/2000/svg" xmlns:xlink="http://www.w3.org/1999/xlink" x="0px" y="0px"
	 viewBox="0 0 512 512" style="enable-background:new 0 0 512 512;" xml:space="preserve">
<style type="text/css">
	.st0{display:none;}
	.st1{display:inline;}
	.st2{fill:#948370;}
	.st3{fill:none;}
	.st4{fill:#FBFFFC;}
	.st5{fill:#060700;}
	.st6{fill:#E4025A;}
	.st7{fill:#C9C9C9;}
	.st8{fill:#FFFFFF;}
	.st9{fill:#449AE3;}
	.st10{fill:#000105;}
	.st11{fill:#BDE7FF;}
	.st12{fill:#F5F5F5;}
	.st13{fill:#E1E1E1;}
	.st14{fill:#00DFBF;}
	.st15{fill:#002A64;}
	.st16{fill:#43AAFF;}
	.st17{fill:#0184FF;}
	.st18{fill:#000003;}
	.st19{fill:#7C7C7C;}
	.st20{fill:#565656;}
	.st21{fill:#3B3B3B;}
	.st22{fill:#171715;}
	.st23{fill:#C2C2C2;}
	.st24{fill:#F7F7F7;}
	.st25{fill:#040404;}
	.st26{fill:#030303;}
	.st27{fill:#4DAFFF;}
	.st28{fill:#45BDFF;}
	.st29{fill:#85CEFF;}
</style>
<g class="st0">
	<g class="st1">
		<g>
			<path d="M260.1,159.6c-4.3,0-7.8-3.9-7.8-8.6s3.5-8.6,7.8-8.6c4.3,0,7.8,3.9,7.8,8.6S264.4,159.6,260.1,159.6z"/>
			<g>
				<path class="st2" d="M260.1,143.2c-3.7,0-6.7,3.2-7,7.2h14C266.8,146.4,263.8,143.2,260.1,143.2z"/>
				<path class="st3" d="M267.1,150.5h-14c0,0.2,0,0.4,0,0.6c0,0.2,0,0.4,0,0.5h14c0-0.2,0-0.4,0-0.5
					C267.1,150.9,267.1,150.7,267.1,150.5z"/>
			</g>
			<g>
				<path class="st4" d="M260.1,151.6c0.1,0.7,0.5,1.8,2.1,1.4c0,0,0,2.1-1.5,3.3c-0.8,0.6-1.8,0.8-2.6,0.4
					c-1.1-0.5-2.5-1.7-1.8-5.2h-3.1c0.2,4.1,3.3,7.3,7,7.3c3.7,0,6.8-3.2,7-7.3H260.1z"/>
				<path d="M258.1,156.8c0.9,0.4,1.9,0.2,2.6-0.4c1.5-1.2,1.5-3.3,1.5-3.3c-1.6,0.3-2-0.8-2.1-1.4h-3.9
					C255.6,155,257,156.3,258.1,156.8z"/>
			</g>
		</g>
		<g>
			<path d="M261.8,140.4c-1.5,0-2.8-0.4-3.8-0.8c-1.4-0.6-2.5-1.3-3.2-1.9c-0.7-0.6-0.7-1.6,0-2.2l0,0c0.5-0.5,1.3-0.5,1.9,0
				c0.6,0.5,1.5,1.1,2.6,1.6c2.3,0.9,4.5,0.6,6.6-0.8c0.6-0.4,1.4-0.3,1.9,0.3l0,0c0.5,0.6,0.4,1.6-0.3,2.1
				C265.4,140,263.5,140.4,261.8,140.4z"/>
		</g>
	</g>
	<g class="st1">
		<g>
			<path d="M241.9,159.6c4.3,0,7.8-3.9,7.8-8.6s-3.5-8.6-7.8-8.6s-7.8,3.9-7.8,8.6S237.6,159.6,241.9,159.6z"/>
			<g>
				<path class="st2" d="M241.9,143.2c3.7,0,6.7,3.2,7,7.2h-14C235.2,146.4,238.2,143.2,241.9,143.2z"/>
				<path class="st3" d="M234.9,150.5h14c0,0.2,0,0.4,0,0.6c0,0.2,0,0.4,0,0.5h-14c0-0.2,0-0.4,0-0.5
					C234.9,150.9,234.9,150.7,234.9,150.5z"/>
			</g>
			<g>
				<path class="st4" d="M241.9,151.6c-0.1,0.7-0.5,1.8-2.1,1.4c0,0,0.1,2.1,1.5,3.3c0.7,0.6,1.8,0.8,2.6,0.4
					c1.1-0.5,2.5-1.7,1.8-5.2h3.1c-0.2,4.1-3.3,7.3-7,7.3c-3.7,0-6.8-3.2-7-7.3H241.9z"/>
				<path d="M244,156.8c-0.9,0.4-1.9,0.2-2.6-0.4c-1.5-1.2-1.5-3.3-1.5-3.3c1.6,0.3,2-0.8,2.1-1.4h3.9
					C246.5,155,245.1,156.3,244,156.8z"/>
			</g>
		</g>
		<g>
			<g>
				<path d="M240.2,140.4c1.5,0,2.8-0.4,3.8-0.8c1.4-0.6,2.5-1.3,3.2-1.9c0.7-0.6,0.7-1.6,0-2.2l0,0c-0.5-0.5-1.3-0.5-1.9,0
					c-0.6,0.5-1.5,1.1-2.6,1.6c-2.3,0.9-4.5,0.6-6.6-0.8c-0.6-0.4-1.4-0.3-1.9,0.3l0,0c-0.6,0.6-0.4,1.6,0.3,2.1
					C236.6,140,238.5,140.4,240.2,140.4z"/>
			</g>
		</g>
	</g>
	<g class="st1">
		<path class="st5" d="M256.5,179.6c-1.3,0-2.6-0.4-2.7-0.4l-0.1,0c-1.1-0.4-2.4-0.6-3.6-0.6c-1.6,0-2.7,0.3-2.9,0.4
			c-0.9,0.4-1.7,0.5-2.4,0.5c-1,0-1.9-0.4-2.5-1.1c-1.2-1.4-1-3.6-1-3.8c0.4-3.1,2.1-5.5,4.9-6.9c1.3-0.7,2.8-1.1,4.3-1.1
			c1.7,0,3.4,0.5,4.9,1.4c0.8,0.5,1.5,0.9,1.9,1.3c1.7,1.3,3.7,5,2.9,7.9C260.1,177.9,259.4,179.6,256.5,179.6L256.5,179.6z"/>
		<path class="st6" d="M256.6,170.3c-0.5-0.4-1.1-0.8-1.8-1.2c-2.4-1.4-5.4-1.6-7.9-0.3c-1.8,1-3.7,2.7-4.2,5.9c0,0-0.6,4.8,4,2.9
			c0,0,3.5-1.2,7.5,0.2c0,0,4.1,1.3,4.7-1.1C259.6,174.4,257.9,171.3,256.6,170.3z"/>
	</g>
</g>
<image style="display:none;overflow:visible;" width="813" height="1000" xlink:href="96E9A022.jpg"  transform="matrix(1 0 0 1 646.6221 -232.82)">
</image>
<g class="st0">
	<g class="st1">
		<g>
			<path d="M261.1,143.2c0.1,0,0.1,0,0.2,0c2.1,0.1,4,1.1,5.4,3c1.4,1.9,2.1,4.3,2.1,6.9c-0.1,3.6-1.7,6.7-4.1,8.3
				c3.1-0.1,4.3,1.8,4.3,1.8c-2.4-1.4-6.8-0.7-6.8-0.7l0,0c-0.4,0.1-0.8,0.1-1.2,0.1c-0.1,0-0.1,0-0.2,0c-2.1-0.1-4-1.1-5.4-3
				c-1.4-1.9-2.1-4.3-2.1-6.9C253.4,147.3,256.9,143.2,261.1,143.2z"/>
			<path class="st7" d="M253.8,152.5c0.1-2.1,0.7-3.9,1.6-5.4c0,0,0,0,0.1,0c1.4-0.3,2.8-0.4,4-0.2c0.3,0.1,0.7,0.1,1,0.2
				c0.9,0.2,1.8,0.6,2.6,1c0.3,0.2,0.6,0.3,0.8,0.5c1.8,1.2,3.2,2.7,4.1,3.8c0.1,0.2,0.2,0.3,0.3,0.5c0,0,0,0,0,0
				c-0.1,5-3.5,9-7.5,8.9C256.9,161.7,253.7,157.5,253.8,152.5z"/>
			<path class="st8" d="M261.1,160.6c3.5,0.1,6.5-3.5,7-8.2c0-0.1,0-0.3,0-0.4c-0.9-1.2-2.4-2.6-4.2-3.8c-0.3-0.2-0.6-0.4-0.9-0.5
				c-0.7-0.4-1.4-0.7-2.2-0.9c-0.3-0.1-0.7-0.2-1.1-0.2c-1.3-0.2-2.6-0.2-4.1,0.1c-0.1,0.1-0.1,0.2-0.1,0.3
				c-0.6,1.3-0.9,2.7-0.9,4.3C254.5,156.3,257.4,160.5,261.1,160.6z"/>
			<path class="st9" d="M261,154c1.6,0.1,2.9-1.6,3.1-3.9c0-0.5,0-1-0.1-1.4c0-0.1-0.1-0.3-0.1-0.4c-0.3-0.2-0.6-0.4-0.9-0.5
				c-0.7-0.4-1.4-0.7-2.2-0.9c-0.3-0.1-0.7-0.2-1.1-0.2c-0.1,0.1-0.2,0.2-0.2,0.3c-0.6,0.7-1,1.7-1,2.9
				C258.3,152,259.5,153.9,261,154z"/>
			<path class="st10" d="M261.3,152.4c1,0.1,1.9-1.2,2-2.8c0-0.5,0-1.1-0.2-1.5c0-0.1-0.1-0.3-0.2-0.4c-0.7-0.4-1.4-0.7-2.2-0.9
				c-0.1,0.1-0.2,0.1-0.3,0.2c-0.5,0.5-0.8,1.3-0.9,2.3C259.5,151,260.3,152.4,261.3,152.4z"/>
			
				<ellipse transform="matrix(0.3904 -0.9207 0.9207 0.3904 22.3235 329.0528)" class="st8" cx="259.6" cy="147.7" rx="0.6" ry="0.4"/>
			<g>
				<path class="st11" d="M263.9,148.2c-0.3-0.2-0.6-0.4-0.9-0.5c-0.7-0.4-1.4-0.7-2.2-0.9c-0.3-0.1-0.7-0.2-1.1-0.2
					c-1.2-0.2-2.6-0.2-4,0.1c1.4-2,3.4-3.2,5.7-3.1c3.9,0.1,7,4,7.1,8.8c-0.1-0.1-0.2-0.3-0.3-0.4
					C267.2,150.8,265.7,149.3,263.9,148.2z"/>
				<path d="M264,148.6c-0.3-0.2-0.6-0.3-0.8-0.5c-0.8-0.4-1.7-0.8-2.6-1c-0.3-0.1-0.7-0.2-1-0.2c-1.2-0.2-2.6-0.2-4,0.2
					c0,0,0,0-0.1,0c0.1-0.1,0.2-0.2,0.2-0.4c1.4-0.3,2.8-0.3,4-0.1c0.4,0.1,0.7,0.1,1.1,0.2c0.8,0.2,1.5,0.5,2.2,0.9
					c0.3,0.2,0.6,0.3,0.9,0.5c1.8,1.1,3.3,2.6,4.2,3.8c0.1,0.1,0.2,0.3,0.3,0.4c0,0.2,0,0.3,0,0.5c-0.1-0.1-0.2-0.3-0.3-0.5
					C267.2,151.3,265.8,149.8,264,148.6z"/>
			</g>
			<path d="M259.7,141.1c0,0,4.8-1.9,8.1,3c0,0,0.1-5-3.3-5.3C261.1,138.6,259.7,141.1,259.7,141.1z"/>
		</g>
		<g>
			<path d="M240.6,143.2c-0.1,0-0.1,0-0.2,0c-2.1,0.1-4,1.1-5.4,3c-1.4,1.9-2.1,4.3-2.1,6.9c0.1,3.6,1.7,6.7,4.1,8.3
				c-3.1-0.1-4.3,1.8-4.3,1.8c2.4-1.4,6.8-0.7,6.8-0.7l0,0c0.4,0.1,0.8,0.1,1.2,0.1c0.1,0,0.1,0,0.2,0c2.1-0.1,4-1.1,5.4-3
				c1.4-1.9,2.1-4.3,2.1-6.9C248.3,147.3,244.9,143.2,240.6,143.2z"/>
			<path class="st7" d="M247.9,152.5c-0.1-2.1-0.7-3.9-1.6-5.4c0,0,0,0-0.1,0c-1.4-0.3-2.8-0.4-4-0.2c-0.3,0.1-0.7,0.1-1,0.2
				c-0.9,0.2-1.8,0.6-2.6,1c-0.3,0.2-0.6,0.3-0.8,0.5c-1.8,1.2-3.2,2.7-4.1,3.8c-0.1,0.2-0.2,0.3-0.3,0.5c0,0,0,0,0,0
				c0.1,5,3.5,9,7.5,8.9C244.9,161.7,248,157.5,247.9,152.5z"/>
			<path class="st8" d="M240.6,160.6c-3.5,0.1-6.5-3.5-7-8.2c0-0.1,0-0.3,0-0.4c0.9-1.2,2.4-2.6,4.2-3.8c0.3-0.2,0.6-0.4,0.9-0.5
				c0.7-0.4,1.4-0.7,2.2-0.9c0.3-0.1,0.7-0.2,1.1-0.2c1.3-0.2,2.6-0.2,4.1,0.1c0.1,0.1,0.1,0.2,0.1,0.3c0.6,1.3,0.9,2.7,0.9,4.3
				C247.3,156.3,244.3,160.5,240.6,160.6z"/>
			<path class="st9" d="M240.7,154c-1.6,0.1-2.9-1.6-3.1-3.9c0-0.5,0-1,0.1-1.4c0-0.1,0.1-0.3,0.1-0.4c0.3-0.2,0.6-0.4,0.9-0.5
				c0.7-0.4,1.4-0.7,2.2-0.9c0.3-0.1,0.7-0.2,1.1-0.2c0.1,0.1,0.2,0.2,0.2,0.3c0.6,0.7,1,1.7,1,2.9C243.4,152,242.3,153.9,240.7,154
				z"/>
			<path class="st10" d="M240.5,152.4c-1,0.1-1.9-1.2-2-2.8c0-0.5,0-1.1,0.2-1.5c0-0.1,0.1-0.3,0.2-0.4c0.7-0.4,1.4-0.7,2.2-0.9
				c0.1,0.1,0.2,0.1,0.3,0.2c0.5,0.5,0.8,1.3,0.9,2.3C242.2,151,241.5,152.4,240.5,152.4z"/>
			
				<ellipse transform="matrix(0.9207 -0.3904 0.3904 0.9207 -38.4371 106.2252)" class="st8" cx="242.1" cy="147.7" rx="0.4" ry="0.6"/>
			<g>
				<path class="st11" d="M237.8,148.2c0.3-0.2,0.6-0.4,0.9-0.5c0.7-0.4,1.4-0.7,2.2-0.9c0.3-0.1,0.7-0.2,1.1-0.2
					c1.2-0.2,2.6-0.2,4,0.1c-1.4-2-3.4-3.2-5.7-3.1c-3.9,0.1-7,4-7.1,8.8c0.1-0.1,0.2-0.3,0.3-0.4
					C234.6,150.8,236,149.3,237.8,148.2z"/>
				<path d="M237.7,148.6c0.3-0.2,0.6-0.3,0.8-0.5c0.8-0.4,1.7-0.8,2.6-1c0.3-0.1,0.7-0.2,1-0.2c1.2-0.2,2.6-0.2,4,0.2
					c0,0,0,0,0.1,0c-0.1-0.1-0.2-0.2-0.2-0.4c-1.4-0.3-2.8-0.3-4-0.1c-0.4,0.1-0.7,0.1-1.1,0.2c-0.8,0.2-1.5,0.5-2.2,0.9
					c-0.3,0.2-0.6,0.3-0.9,0.5c-1.8,1.1-3.3,2.6-4.2,3.8c-0.1,0.1-0.2,0.3-0.3,0.4c0,0.2,0,0.3,0,0.5c0.1-0.1,0.2-0.3,0.3-0.5
					C234.5,151.3,235.9,149.8,237.7,148.6z"/>
			</g>
			<path d="M242,141.1c0,0-4.8-1.9-8.1,3c0,0-0.1-5,3.3-5.3C240.7,138.6,242,141.1,242,141.1z"/>
		</g>
	</g>
	<g class="st1">
		<g>
			<g>
				<path d="M261.5,172.5c0.9-0.1,1.7-0.1,2.4,0c0.7,0.1,1.4,0.4,1.9,0.8c0.1,0.1,0.2,0.2,0.3,0.4l0.3,0.4c0.1,0.3,0.2,0.6,0.2,0.9
					c0,0.3-0.1,0.7-0.2,1c-0.2,0.3-0.4,0.6-0.7,1c0.4-0.1,0.8-0.3,1.2-0.6c0.3-0.3,0.6-0.8,0.7-1.3c0.1-0.5,0.1-1-0.1-1.5
					c0-0.1-0.1-0.1-0.1-0.2l-0.1-0.2l-0.2-0.3c-0.1-0.2-0.3-0.4-0.5-0.6c-0.7-0.7-1.8-1-2.7-0.9C263,171.6,262.2,171.9,261.5,172.5z
					"/>
			</g>
			<g>
				<path d="M231.5,169.6c-0.6,0.2-1.1,0.7-1.3,1.4c-0.3,0.6-0.2,1.5,0.1,2.1c0.4,0.6,1,1.1,1.7,1.2c0.7,0.1,1.4,0,1.9-0.3
					c-0.6-0.1-1.1-0.3-1.6-0.5c-0.4-0.2-0.8-0.5-1-0.9c-0.2-0.4-0.3-0.8-0.3-1.3C231.1,170.8,231.3,170.2,231.5,169.6z"/>
			</g>
			<g>
				<path d="M245.7,173.8c-0.4-0.4-0.8-0.8-1.2-1.1c-0.4-0.3-0.9-0.6-1.4-0.8c-0.3-0.1-0.5-0.2-0.8-0.2c-0.1,0-0.3,0-0.5,0
					c-0.1,0-0.2,0-0.3,0c-0.1,0-0.2,0.1-0.3,0.1c-0.3,0.1-0.6,0.4-0.7,0.7c-0.1,0.3-0.1,0.6,0,0.9c0-0.3,0.1-0.5,0.3-0.7
					c0.1-0.2,0.3-0.2,0.6-0.3c0.2,0,0.4,0,0.6,0.1c0.2,0.1,0.5,0.2,0.7,0.3l1.4,0.6C244.6,173.4,245.1,173.6,245.7,173.8z"/>
			</g>
			<path d="M234.3,170.2c0.1-0.1,0.3-0.2,0.4-0.3c1.7-2.9,3.6-3.6,8.9-2.7c5.5,1,13.8,6.1,14.2,6.4c1.3,0.9,2.5,1.3,3.5,1.1
				c0.2,0,0.4-0.1,0.6-0.2c0.2-0.1,0.3-0.3,0.4-0.5c0.2-0.4,0.6-0.7,1.1-0.5c0.3,0.1,0.5,0.3,0.6,0.6c0.2,0.6-0.3,1.1-0.8,1.1
				c0,0-0.1,0-0.2,0c0,0,0,0,0,0c-0.3,0.2-0.8,0.5-1.3,0.6c-0.3,0.1-0.5,0.1-0.8,0.1c-1.1,0-2.3-0.5-3.6-1.4
				c-0.1-0.1-8.5-5.2-13.8-6.2c-4.9-0.9-6.4-0.2-7.7,2.3c0,0,0,0.1,0,0.2c0,0,0,0,0,0c0,0,0,0.1,0,0.1c0,0.4-0.2,0.7-0.6,0.8
				c0,0,0,0,0,0l0,0c-0.2,0.1-0.5,0.1-0.8-0.1c-0.2-0.2-0.4-0.4-0.4-0.7C233.8,170.6,234,170.3,234.3,170.2z"/>
		</g>
	</g>
</g>
<g>
	<path id="Floor_7_" class="st12" d="M356.1,224.3c-60.5-34.8-158.7-34.8-219.2,0s-60.5,91.2,0,126c60.5,34.8,158.7,34.8,219.2,0
		C416.7,315.5,416.7,259.1,356.1,224.3z"/>
	<ellipse id="Shadow_6_" class="st13" cx="252.6" cy="254" rx="49.8" ry="28.7"/>
	<g>
		<g id="Shadow_2_">
			<path class="st13" d="M252.8,335.7l-3.7-2.7l3.1-1.3c1.6-0.7,2-1.9,2-2.6c0.1-0.7,0-1.9-1.4-2.9l-6.7-5c-0.7-0.5-1.7-0.9-2.7-1
				c-1.1-0.1-2,0-2.9,0.4l-5.1,2.2l-23.4-17.2c-0.7-0.5-1.7-0.9-2.7-1c-1.1-0.1-2,0-2.9,0.4l-10.9,4.8c-0.9,0.4-1.6,0.9-2,1.4
				c-0.5,0.7-0.8,1.5-0.7,2.6l2.3,27.1c0.2,1.4,1,2.6,2.6,3.8l6.7,5c0.7,0.5,1.7,0.9,2.7,1h0c1.1,0.1,2,0,2.9-0.4l21.7-9.5l5.5,4.1
				c0.7,0.5,1.7,0.9,2.7,1c1.1,0.1,2,0,2.9-0.4l9.4-4.1c1.6-0.7,2-1.9,2-2.6C254.3,338,254.2,336.8,252.8,335.7z M213.3,332.4
				l-0.5-6.1l5.4,4L213.3,332.4z"/>
			<path class="st13" d="M297.3,299c-1.7-1.3-3.5-2.8-5.5-4.2c-2-1.5-4-2.9-5.9-4.2c-2.5-1.7-5.4-3.2-8.4-4.4
				c-3.1-1.2-6.4-2.1-9.8-2.5l-0.5,0c-3.3-0.4-6.7-0.3-10.2,0.1c-3.7,0.5-7.5,1.5-11.2,3.2c-3.9,1.7-6.7,3.5-8.6,5.6
				c-2,2.1-3.1,4.4-3.2,6.8s0.5,4.7,2,6.9c1.4,2.1,3.2,4.1,5.5,5.9c1.7,1.4,3.6,2.8,5.6,4.3s3.9,2.9,5.8,4.1
				c2.5,1.7,5.3,3.2,8.4,4.4c3.1,1.2,6.4,2.1,9.8,2.5l0.5,0c3.3,0.4,6.7,0.3,10.2-0.1c3.7-0.5,7.5-1.5,11.2-3.2
				c3.9-1.7,6.7-3.5,8.6-5.6c2-2.1,3-4.4,3.2-6.8c0.2-2.3-0.5-4.7-2-6.9C301.4,302.9,299.5,300.9,297.3,299z M283.5,311.7
				c-0.2,0.3-0.8,0.8-2.3,1.5c-1.2,0.5-2.5,0.9-3.6,1c-0.9,0.1-1.8,0.1-2.6,0c-0.2,0-0.5-0.1-0.7-0.1c-1.1-0.2-2.1-0.5-3.1-1
				c-1-0.5-2.1-1.1-3.1-1.8c-3.8-2.5-7.3-5.1-10.5-7.8c-0.9-0.7-1.6-1.4-2.1-2c-0.4-0.5-0.6-0.9-0.6-1.3c0-0.1,0-0.3,0.3-0.7
				c0.2-0.3,0.8-0.8,2.3-1.5c1.2-0.5,2.5-0.9,3.6-1c0.9-0.1,1.7-0.1,2.5,0c0.3,0,0.5,0.1,0.8,0.1c1.1,0.2,2.1,0.5,3.1,1
				c1.1,0.5,2.2,1.1,3.2,1.8c3.6,2.5,7.2,5.1,10.5,7.8c0.9,0.7,1.6,1.4,2.1,2c0.4,0.4,0.6,0.8,0.6,1.2
				C283.9,311,283.9,311.2,283.5,311.7z"/>
			<path class="st13" d="M358.1,289.8l-3.7-2.7l3.1-1.3c1.6-0.7,2-1.9,2-2.6c0.1-0.6,0-1.9-1.4-3l-6.7-5c-0.7-0.5-1.7-0.9-2.7-1
				s-2,0-2.9,0.4l-5.1,2.2l-23.4-17.2c-0.7-0.5-1.7-0.9-2.7-1s-2,0-2.9,0.4l-10.9,4.8c-0.9,0.4-1.6,0.9-2,1.4
				c-0.5,0.7-0.8,1.5-0.7,2.6l2.3,27.1c0.2,1.4,1,2.6,2.6,3.8l6.7,5c0.7,0.5,1.7,0.9,2.7,1h0c1.1,0.1,2,0,2.9-0.4l21.7-9.5l5.5,4.1
				c0.7,0.5,1.7,0.9,2.7,1c1.1,0.1,2,0,2.9-0.4l9.4-4.1c1.6-0.7,2-1.9,2-2.6C359.6,292,359.5,290.8,358.1,289.8z M318.6,286.5
				l-0.5-6.1l5.4,4L318.6,286.5z"/>
		</g>
		<g id="_x34_04_1_">
			<g id="_x34_04">
				<g>
					<g>
						<path class="st14" d="M251.6,330.4l-9.4,4.1c-0.5,0.2-1.1,0.3-1.9,0.2c-0.7-0.1-1.3-0.3-1.8-0.6l-6.5-4.8l-22.7,9.9
							c-0.5,0.2-1.1,0.3-1.9,0.2c-0.7-0.1-1.3-0.3-1.8-0.6l-6.7-4.9c-1.1-0.8-1.7-1.6-1.8-2.4l-2.3-27c0-0.2,0-0.3,0-0.5
							c-0.1,0.5-0.8,7.1-0.8,7.4c0,0.1,0,0.3,0,0.4l2.3,27c0.1,0.8,0.7,1.6,1.8,2.4l6.7,5c0.5,0.3,1.1,0.6,1.8,0.6
							c0.7,0.1,1.4,0,1.9-0.2l22.7-9.9l6.5,4.8c0.5,0.4,1.1,0.6,1.8,0.6c0.7,0.1,1.4,0,1.9-0.2l9.4-4.1c0.5-0.2,0.8-0.5,0.9-1
							l0.8-7.4C252.4,329.8,252.1,330.2,251.6,330.4z"/>
						<path class="st14" d="M251.6,327.2l0.8-7.4c-0.1,0.4-0.3,0.7-0.9,1l-6.2,2.7l5.9,4.3C251.5,327.7,251.6,327.5,251.6,327.2z"/>
						<polygon class="st14" points="211.4,321.6 215.5,324.7 222.3,321.7 210.7,313.1 						"/>
					</g>
					<g>
						<polygon class="st15" points="211.4,321.6 215.5,324.7 222.3,321.7 210.7,313.1 						"/>
						<path class="st15" d="M251.6,327.2l0.8-7.4c-0.1,0.4-0.3,0.7-0.9,1l-6.2,2.7l5.9,4.3C251.5,327.7,251.6,327.5,251.6,327.2z"/>
						<path class="st16" d="M251.6,330.4l-9.4,4.1c-0.5,0.2-1.1,0.3-1.9,0.2l-0.8,7.4c0.7,0.1,1.4,0,1.9-0.2l9.4-4.1
							c0.5-0.2,0.8-0.5,0.9-1l0.8-7.4C252.4,329.8,252.1,330.2,251.6,330.4z"/>
						<path class="st16" d="M197.2,331.5l-2.3-27c0-0.2,0-0.3,0-0.5c-0.1,0.5-0.8,7.1-0.8,7.4c0,0.1,0,0.3,0,0.4l2.3,27
							c0,0.1,0.1,0.3,0.1,0.5l0.8-7.4C197.3,331.8,197.2,331.6,197.2,331.5z"/>
						<path class="st15" d="M207.5,339.5c-0.7-0.1-1.3-0.3-1.8-0.6l-6.7-4.9c-0.9-0.6-1.4-1.3-1.7-2l-0.8,7.4c0.2,0.6,0.8,1.3,1.7,2
							l6.7,5c0.5,0.3,1.1,0.6,1.8,0.6c0.1,0,0.1,0,0.2,0l0.8-7.4C207.6,339.5,207.6,339.5,207.5,339.5z"/>
						<path class="st16" d="M209.4,339.3c-0.5,0.2-1,0.3-1.7,0.2l-0.8,7.4c0.6,0.1,1.2,0,1.7-0.2l22.7-9.9l0.8-7.4L209.4,339.3z"/>
						<path class="st15" d="M238.5,334.1l-6.5-4.8l-0.8,7.4l6.5,4.8c0.5,0.4,1.1,0.6,1.8,0.6l0.8-7.4
							C239.6,334.7,239,334.5,238.5,334.1z"/>
					</g>
					<path class="st17" d="M242.2,334.5c-0.5,0.2-1.2,0.3-1.9,0.2c-0.7-0.1-1.3-0.3-1.8-0.6l-6.4-4.8l-22.7,9.9
						c-0.5,0.2-1.1,0.3-1.9,0.2c-0.7-0.1-1.3-0.3-1.8-0.6l-6.7-4.9c-1.1-0.8-1.7-1.6-1.8-2.4l-2.3-27c0-0.5,0.1-0.9,0.3-1.2
						c0.2-0.3,0.6-0.5,1.3-0.8l10.9-4.8c0.5-0.2,1.1-0.3,1.9-0.2c0.7,0.1,1.3,0.3,1.8,0.6l24.3,17.9l6.2-2.7
						c0.5-0.2,1.1-0.3,1.9-0.2c0.7,0.1,1.3,0.3,1.8,0.6l6.7,5c0.5,0.3,0.7,0.7,0.6,1.1c-0.1,0.4-0.3,0.7-0.9,1l-6.2,2.7l6.4,4.8
						c0.5,0.3,0.7,0.7,0.6,1.1c-0.1,0.4-0.3,0.7-0.9,1L242.2,334.5z M222.3,321.7l-11.6-8.6l1.1,13.2L222.3,321.7z"/>
				</g>
				<g>
					<g>
						<path class="st14" d="M302.9,303.1c-0.2,1.8-1.1,3.5-2.7,5.2c-1.7,1.8-4.3,3.5-7.9,5.1c-3.6,1.6-7.2,2.6-10.7,3
							c-3.5,0.5-6.9,0.5-10.2,0.1c-3.3-0.4-6.4-1.2-9.3-2.4c-2.9-1.2-5.6-2.6-8-4.2c-1.8-1.2-3.7-2.6-5.7-4c-2-1.5-3.8-2.9-5.6-4.3
							c-2.1-1.7-3.8-3.6-5.1-5.5c-1.2-1.9-1.8-3.8-1.6-5.7c-0.1,1.2-0.7,6.1-0.8,7.4c-0.1,1.9,0.4,3.8,1.6,5.7
							c1.2,1.9,2.9,3.7,5.1,5.5c1.7,1.4,3.6,2.8,5.6,4.3c2,1.5,3.9,2.8,5.7,4c2.4,1.6,5.1,3,8,4.2c2.9,1.2,6,2,9.3,2.4
							c3.3,0.4,6.7,0.4,10.2-0.1c3.5-0.5,7.1-1.5,10.7-3c3.6-1.6,6.2-3.3,7.9-5.1c1.7-1.8,2.6-3.7,2.7-5.6
							C302.2,309,302.8,304.8,302.9,303.1z"/>
						<path class="st15" d="M273.3,316.6c-0.6,0-1.2-0.1-1.8-0.2c-3.3-0.4-6.4-1.2-9.3-2.4c-2.9-1.2-5.6-2.6-8-4.2
							c-1.8-1.2-3.7-2.6-5.7-4c-2-1.5-3.8-2.9-5.6-4.3c-2.1-1.7-3.8-3.6-5.1-5.5c-1.2-1.9-1.8-3.8-1.6-5.7c-0.1,1.2-0.7,6.1-0.8,7.4
							c-0.1,1.9,0.4,3.8,1.6,5.7c1.2,1.9,2.9,3.7,5.1,5.5c1.7,1.4,3.6,2.8,5.6,4.3c2,1.5,3.9,2.8,5.7,4c2.4,1.6,5.1,3,8,4.2
							c2.9,1.2,6,2,9.3,2.4c0.6,0.1,1.2,0.1,1.8,0.2L273.3,316.6z"/>
						<path class="st16" d="M302.9,303.1c-0.2,1.8-1.1,3.5-2.7,5.2c-1.7,1.8-4.3,3.5-7.9,5.1c-3.6,1.6-7.2,2.6-10.7,3
							c-2.9,0.4-5.7,0.4-8.4,0.2l-0.8,7.4c2.7,0.2,5.5,0.1,8.4-0.2c3.5-0.5,7.1-1.5,10.7-3c3.6-1.6,6.2-3.3,7.9-5.1
							c1.7-1.8,2.6-3.7,2.7-5.6C302.2,309,302.8,304.8,302.9,303.1z"/>
					</g>
					<g>
						<path class="st14" d="M254.1,293.6c0.3,0.4,0.7,0.9,1.2,1.3c0.2-0.1,0.5-0.2,0.8-0.4c1.4-0.6,2.8-1,4.2-1.1
							c1.3-0.1,2.6-0.1,3.9,0.1c1.2,0.2,2.4,0.6,3.6,1.1s2.3,1.2,3.5,1.9c3.7,2.5,7.2,5.1,10.6,7.9c0.4,0.4,0.9,0.7,1.2,1
							c1-0.5,1.8-1,2.3-1.6c0.6-0.7,0.8-1.4,0.8-2.2c0-0.7-0.4-1.5-1-2.3c-0.6-0.8-1.4-1.5-2.5-2.4c-3.4-2.7-6.9-5.4-10.6-7.9
							c-1.1-0.7-2.3-1.4-3.5-1.9c-1.2-0.5-2.3-0.9-3.6-1.1c-1.2-0.2-2.5-0.3-3.9-0.1c-1.3,0.1-2.7,0.5-4.2,1.1c-1.4,0.6-2.4,1.3-3,2
							s-0.8,1.4-0.8,2.1C253.2,292.1,253.5,292.9,254.1,293.6z"/>
						<path class="st15" d="M254.1,293.6c0.3,0.4,0.7,0.9,1.2,1.3c0.2-0.1,0.5-0.2,0.8-0.4c1.4-0.6,2.8-1,4.2-1.1
							c1.3-0.1,2.6-0.1,3.9,0.1c1.2,0.2,2.4,0.6,3.6,1.1s2.3,1.2,3.5,1.9c3.7,2.5,7.2,5.1,10.6,7.9c0.4,0.4,0.9,0.7,1.2,1
							c1-0.5,1.8-1,2.3-1.6c0.6-0.7,0.8-1.4,0.8-2.2c0-0.7-0.4-1.5-1-2.3c-0.6-0.8-1.4-1.5-2.5-2.4c-3.4-2.7-6.9-5.4-10.6-7.9
							c-1.1-0.7-2.3-1.4-3.5-1.9c-1.2-0.5-2.3-0.9-3.6-1.1c-1.2-0.2-2.5-0.3-3.9-0.1c-1.3,0.1-2.7,0.5-4.2,1.1c-1.4,0.6-2.4,1.3-3,2
							s-0.8,1.4-0.8,2.1C253.2,292.1,253.5,292.9,254.1,293.6z"/>
					</g>
					<path class="st17" d="M246.8,279.8c3.6-1.6,7.2-2.6,10.7-3c3.5-0.5,6.9-0.5,10.2-0.1c3.3,0.4,6.4,1.2,9.3,2.4
						c2.9,1.2,5.6,2.6,8,4.2c1.9,1.3,3.9,2.7,5.8,4.1c2,1.5,3.8,2.9,5.4,4.2c2.1,1.7,3.8,3.6,5.1,5.5s1.8,3.8,1.6,5.7
						c-0.1,1.9-1,3.8-2.7,5.6s-4.3,3.5-7.9,5.1c-3.6,1.6-7.2,2.6-10.7,3s-6.9,0.5-10.2,0.1c-3.3-0.4-6.4-1.2-9.3-2.4
						c-2.9-1.2-5.6-2.6-8-4.2c-1.8-1.2-3.7-2.6-5.7-4c-2-1.5-3.8-2.9-5.6-4.3c-2.1-1.7-3.8-3.6-5.1-5.5s-1.8-3.8-1.6-5.7
						c0.1-1.9,1.1-3.8,2.7-5.6C240.6,283,243.2,281.3,246.8,279.8z M282.6,297.1c-3.4-2.7-6.9-5.3-10.6-7.8
						c-1.1-0.7-2.3-1.4-3.5-1.9c-1.1-0.5-2.3-0.9-3.6-1.1c-1.2-0.2-2.5-0.3-3.9-0.1c-1.3,0.1-2.7,0.5-4.2,1.1s-2.4,1.3-3,2
						c-0.6,0.7-0.8,1.4-0.8,2.1c0.1,0.7,0.4,1.5,1,2.3c0.6,0.8,1.4,1.6,2.4,2.4c3.3,2.7,6.8,5.3,10.6,7.8c1.1,0.8,2.2,1.4,3.4,1.9
						s2.4,0.9,3.6,1.1c1.3,0.2,2.5,0.3,3.9,0.1c1.3-0.1,2.7-0.5,4.2-1.1s2.5-1.3,3-2c0.6-0.7,0.9-1.4,0.8-2.2c0-0.7-0.4-1.5-1-2.3
						C284.4,298.7,283.6,297.9,282.6,297.1z"/>
				</g>
				<g>
					<g>
						<path class="st14" d="M356.9,284.5l-9.4,4.1c-0.5,0.2-1.1,0.3-1.9,0.2c-0.7-0.1-1.3-0.3-1.8-0.6l-6.5-4.8l-22.7,9.9
							c-0.5,0.2-1.1,0.3-1.9,0.2c-0.7-0.1-1.3-0.3-1.8-0.6l-6.7-5c-1.1-0.8-1.7-1.6-1.8-2.4l-2.3-27c0-0.2,0-0.3,0-0.5
							c-0.1,0.5-0.8,7.1-0.8,7.4c0,0.1,0,0.3,0,0.4l2.3,27c0.1,0.8,0.7,1.6,1.8,2.4l6.7,5c0.5,0.3,1.1,0.6,1.8,0.6
							c0.7,0.1,1.4,0,1.9-0.2l22.7-9.9l6.5,4.8c0.5,0.4,1,0.6,1.8,0.6c0.7,0.1,1.4,0,1.9-0.2l9.4-4.1c0.5-0.2,0.8-0.5,0.9-1l0.8-7.4
							C357.7,283.9,357.4,284.2,356.9,284.5z"/>
						<path class="st14" d="M356.9,281.3l0.8-7.4c0,0.4-0.3,0.7-0.9,1l-6.2,2.7l5.9,4.3C356.7,281.7,356.9,281.5,356.9,281.3z"/>
						<polygon class="st14" points="316.6,275.7 320.8,278.7 327.6,275.8 315.9,267.2 						"/>
					</g>
					<g>
						<polygon class="st15" points="316.6,275.7 320.8,278.7 327.6,275.8 315.9,267.2 						"/>
						<path class="st15" d="M356.9,281.3l0.8-7.4c0,0.4-0.3,0.7-0.9,1l-6.2,2.7l5.9,4.3C356.7,281.7,356.9,281.5,356.9,281.3z"/>
						<path class="st16" d="M356.9,284.5l-9.4,4.1c-0.5,0.2-1.1,0.3-1.9,0.2l-0.8,7.4c0.7,0.1,1.4,0,1.9-0.2l9.4-4.1
							c0.5-0.2,0.8-0.5,0.9-1l0.8-7.4C357.7,283.9,357.4,284.2,356.9,284.5z"/>
						<path class="st16" d="M302.5,285.5l-2.3-27c0-0.2,0-0.3,0-0.5c-0.1,0.5-0.8,7.1-0.8,7.4c0,0.1,0,0.3,0,0.4l2.3,27
							c0,0.1,0,0.3,0.1,0.5l0.8-7.4C302.5,285.8,302.5,285.7,302.5,285.5z"/>
						<path class="st15" d="M312.8,293.5c-0.7-0.1-1.3-0.3-1.8-0.6l-6.7-5c-0.9-0.6-1.5-1.3-1.7-2l-0.8,7.4c0.2,0.6,0.8,1.3,1.7,2
							l6.7,5c0.5,0.3,1.1,0.6,1.8,0.6c0.1,0,0.1,0,0.2,0l0.8-7.4C312.9,293.5,312.8,293.5,312.8,293.5z"/>
						<path class="st16" d="M314.6,293.3c-0.5,0.2-1,0.3-1.7,0.2l-0.8,7.4c0.6,0.1,1.2,0,1.7-0.2l22.7-9.9l0.8-7.4L314.6,293.3z"/>
						<path class="st15" d="M343.8,288.2l-6.5-4.8l-0.8,7.4l6.5,4.8c0.5,0.4,1,0.6,1.8,0.6l0.8-7.4
							C344.8,288.7,344.2,288.5,343.8,288.2z"/>
					</g>
					<path class="st17" d="M347.4,288.6c-0.5,0.2-1.2,0.3-1.9,0.2c-0.7-0.1-1.3-0.3-1.8-0.6l-6.5-4.8l-22.7,9.9
						c-0.5,0.2-1.1,0.3-1.9,0.2c-0.7-0.1-1.3-0.3-1.8-0.6l-6.7-5c-1.1-0.8-1.7-1.6-1.8-2.4l-2.3-27c0-0.5,0.1-0.9,0.3-1.2
						c0.2-0.3,0.6-0.5,1.3-0.8l10.9-4.8c0.5-0.2,1.1-0.3,1.9-0.2c0.7,0.1,1.3,0.3,1.8,0.6l24.3,17.9l6.2-2.7
						c0.5-0.2,1.1-0.3,1.9-0.2c0.7,0.1,1.3,0.3,1.8,0.6l6.7,5c0.5,0.3,0.7,0.7,0.6,1.1c0,0.4-0.3,0.7-0.9,1l-6.2,2.7l6.5,4.8
						c0.5,0.3,0.7,0.7,0.6,1.1c0,0.4-0.3,0.7-0.9,1L347.4,288.6z M327.6,275.8l-11.6-8.6l1.1,13.2L327.6,275.8z"/>
				</g>
			</g>
		</g>
	</g>
	<g>
		<path class="st15" d="M243.9,351.5l12.7,12.1l-4,1.7l-14.5-4.6l7.8,7.5l-4,1.7l-12.7-12.1l4-1.7l14.5,4.6l-7.9-7.5L243.9,351.5z"
			/>
		<path class="st15" d="M266.8,359.4c-3.8,1.6-8.7,1-11.9-2.1c-3.2-3.1-2.2-6.2,1.6-7.9c3.8-1.6,8.8-1,12,2
			C271.6,354.6,270.6,357.8,266.8,359.4z M264.1,356.9c1.4-0.6,1.9-2,0.2-3.6c-1.7-1.6-3.8-1.8-5.2-1.2c-1.5,0.6-1.9,1.9-0.2,3.6
			C260.6,357.2,262.6,357.5,264.1,356.9z"/>
		<path class="st15" d="M269.9,347.5l-1.6,0.7l-2.6-2.5l1.6-0.7l-2.5-2.3l4-1.7l2.5,2.3l2.6-1.1l2.6,2.5l-2.6,1.1l4,3.9
			c0.6,0.6,1.2,0.7,2.1,0.3l1.4-0.6l2.6,2.5l-2,0.9c-2.7,1.2-5.5,1.1-8.1-1.4L269.9,347.5z"/>
		<path class="st15" d="M287.3,332.8l10.7-4.6l2.5,2.4l-6.7,2.9l2.7,2.6l5-2.2l2.4,2.3l-5,2.2l5.1,4.9l-4,1.7L287.3,332.8z"/>
		<path class="st15" d="M320,336.5c-3.8,1.6-8.7,1-11.9-2.1c-3.2-3.1-2.2-6.2,1.6-7.9c3.8-1.6,8.8-1,12,2
			C324.9,331.7,323.9,334.9,320,336.5z M317.4,334c1.4-0.6,1.9-2,0.2-3.6c-1.7-1.6-3.8-1.8-5.2-1.2c-1.5,0.6-1.9,1.9-0.2,3.6
			C313.9,334.3,315.9,334.6,317.4,334z"/>
		<path class="st15" d="M343,326.5l-4,1.7l-1.4-1.3c0.1,1.2-0.7,2.4-2.5,3.1c-3,1.3-6.7,0.6-9.3-1.9l-5.9-5.6l4-1.7l5.5,5.2
			c1.4,1.3,3.1,1.6,4.6,1c1.5-0.7,1.8-1.8,0.4-3.1l-5.5-5.2l4-1.7L343,326.5z"/>
		<path class="st15" d="M350.6,315.6c-1.4-1.3-3.1-1.6-4.6-1c-1.5,0.7-1.7,1.8-0.4,3.1l5.5,5.2l-4,1.7l-10.1-9.6l4-1.7l1.3,1.3
			c-0.1-1.2,0.8-2.3,2.5-3.1c3-1.3,6.6-0.6,9.3,1.9l5.9,5.6l-4,1.7L350.6,315.6z"/>
		<path class="st15" d="M358.8,305.5c1.7-0.7,3.8-0.8,5.6-0.3l-4.7-4.5l4-1.7l13.4,12.8l-4,1.7l-1.4-1.4c0.2,1.2-0.5,2.4-2.4,3.2
			c-3.2,1.4-7.8,0.5-11-2.5S355.6,306.9,358.8,305.5z M362.7,307.6c-1.5,0.6-2,2.1-0.4,3.6c1.6,1.5,3.9,1.8,5.4,1.2
			c1.5-0.7,2-2.1,0.4-3.6C366.4,307.2,364.2,306.9,362.7,307.6z"/>
	</g>
</g>
<g>
	<g>
		<rect x="219" y="233.2" class="st18" width="20.9" height="8.8"/>
		<ellipse cx="229.4" cy="231.6" rx="11.3" ry="4.8"/>
		<path class="st18" d="M230,233.9h-1.3c-7.8,0-14.1,6.3-14.1,14.1v4.1c0,0.4,0.2,0.8,0.5,1c3.4,2.8,8.6,4.6,14.4,4.6
			c5.7,0,10.8-1.7,14.2-4.4c0.3-0.2,0.5-0.6,0.5-1V248C244.1,240.2,237.8,233.9,230,233.9z"/>
		<path class="st3" d="M242.7,246.6c-3.4,2.3-8.1,3.8-13.3,3.8c-5.2,0-10-1.5-13.3-3.8c0.2-6.6,6.1-11.9,13.3-11.9
			C236.7,234.7,242.6,240,242.7,246.6z"/>
		<path class="st17" d="M243.3,247.4v4.4c0,0.3-0.1,0.5-0.3,0.6c-3.4,2.5-8.2,4-13.6,4c-5.2,0-9.9-1.4-13.3-3.8
			c-0.3-0.2-0.5-0.6-0.5-0.9v-4.2c3.4,2.5,8.3,4.1,13.8,4.1C235,251.6,240,250,243.3,247.4z"/>
		<path class="st19" d="M242.7,246.6c-3.4,2.3-8.1,3.8-13.3,3.8c-5.2,0-10-1.5-13.3-3.8c0.2-6.6,6.1-11.9,13.3-11.9
			C236.7,234.7,242.6,240,242.7,246.6z"/>
		<path class="st20" d="M220,234.7v2c0,0,0.6-0.6,1.9-1.4L220,234.7z"/>
		<path class="st20" d="M238.9,234.7v2c0,0-0.6-0.6-1.9-1.4L238.9,234.7z"/>
		<g>
			<path class="st21" d="M239.5,231.1c-0.8,1.7-5.1,3.1-10.2,3.1c-5.1,0-9.4-1.3-10.2-3.1c-0.1,0.2-0.1,0.4-0.1,0.6
				c0,2,4.6,3.7,10.3,3.7s10.3-1.7,10.3-3.7C239.6,231.5,239.6,231.3,239.5,231.1z"/>
			<path class="st19" d="M229.3,234.2c5.1,0,9.4-1.3,10.2-3.1c-0.8-1.8-5.1-3.1-10.2-3.1c-5.1,0-9.4,1.3-10.2,3.1
				C219.9,232.8,224.2,234.2,229.3,234.2z"/>
		</g>
		<ellipse cx="229.4" cy="230.8" rx="6.4" ry="1.4"/>
		<path d="M229.5,193.3c0,0-5.9,16.9-3.2,36.1l0.2,1.1l7.9-0.6c0,0-3.3-21.2,3.4-36.6L229.5,193.3L229.5,193.3z"/>
	</g>
	<g>
		<rect x="264.3" y="233.2" class="st18" width="20.9" height="8.8"/>
		<ellipse cx="274.8" cy="231.6" rx="11.3" ry="4.8"/>
		<path class="st18" d="M274.2,233.9h1.3c7.8,0,14.1,6.3,14.1,14.1v4.1c0,0.4-0.2,0.8-0.5,1c-3.4,2.8-8.6,4.6-14.4,4.6
			c-5.7,0-10.8-1.7-14.2-4.4c-0.3-0.2-0.5-0.6-0.5-1V248C260.1,240.2,266.4,233.9,274.2,233.9z"/>
		<path class="st3" d="M261.5,246.6c3.4,2.3,8.1,3.8,13.3,3.8c5.2,0,10-1.5,13.3-3.8c-0.2-6.6-6.1-11.9-13.3-11.9
			C267.5,234.7,261.6,240,261.5,246.6z"/>
		<path class="st17" d="M260.9,247.4v4.4c0,0.3,0.1,0.5,0.3,0.6c3.4,2.5,8.2,4,13.6,4c5.2,0,9.9-1.4,13.3-3.8
			c0.3-0.2,0.5-0.6,0.5-0.9v-4.2c-3.4,2.5-8.3,4.1-13.8,4.1C269.2,251.6,264.3,250,260.9,247.4z"/>
		<path class="st19" d="M261.5,246.6c3.4,2.3,8.1,3.8,13.3,3.8c5.2,0,10-1.5,13.3-3.8c-0.2-6.6-6.1-11.9-13.3-11.9
			C267.5,234.7,261.6,240,261.5,246.6z"/>
		<path class="st20" d="M284.2,234.7v2c0,0-0.6-0.6-1.9-1.4L284.2,234.7z"/>
		<path class="st20" d="M265.3,234.7v2c0,0,0.6-0.6,1.9-1.4L265.3,234.7z"/>
		<g>
			<path class="st21" d="M264.7,231.1c0.8,1.7,5.1,3.1,10.2,3.1c5.1,0,9.4-1.3,10.2-3.1c0.1,0.2,0.1,0.4,0.1,0.6
				c0,2-4.6,3.7-10.3,3.7s-10.3-1.7-10.3-3.7C264.6,231.5,264.6,231.3,264.7,231.1z"/>
			<path class="st19" d="M274.9,234.2c-5.1,0-9.4-1.3-10.2-3.1c0.8-1.8,5.1-3.1,10.2-3.1c5.1,0,9.4,1.3,10.2,3.1
				C284.3,232.8,280,234.2,274.9,234.2z"/>
		</g>
		<ellipse cx="274.7" cy="230.8" rx="6.4" ry="1.4"/>
		<path d="M274.7,193.3c0,0,5.9,16.9,3.2,36.1l-0.2,1.1l-7.9-0.6c0,0,3.3-21.2-3.4-36.6L274.7,193.3L274.7,193.3z"/>
	</g>
	<g>
		<g>
			<path class="st22" d="M207.4,189.3c0.1-0.3,0.2-0.6,0.3-0.9c1.1,0.4,1.9,1,1.4,2.3c-0.2,0.5,0,0.9,0.5,1.3c2,1.4,3.1,3.3,3.7,5.6
				c0.5,1.6,1.1,3.1,2.3,4.4c1,1.1,1.2,2.5,0.5,3.9c-0.7,1.3-1.8,1.9-3.2,1.8c-0.7-0.1-0.8,0.2-0.7,0.8c0.4,1.4,0.7,2.7,1.1,4.1
				c0.6,1.9,0.3,3.1-0.9,4.1c-1.3,1-2.8,0.9-4.4-0.1c-0.2-0.2-0.4-0.5-0.7-0.3c-0.3,0.2-0.2,0.5-0.1,0.7c0.4,2.2-0.6,3.8-2.6,4.1
				c-1.9,0.4-3.8-1-4.2-3c-0.2-1-0.3-2.1-0.4-3.1c-0.4-0.2-0.4,0.1-0.5,0.3c-0.9,1.2-2,1.6-3.4,1.2c-1.4-0.4-2.3-1.7-2.3-3.1
				c0-1.8,0.4-3.5,0.8-5.2c0.2-0.8,0.2-1.5-0.1-2.3c-0.9-2.7-1.2-5.5-0.5-8.4c0.4-1.8,1.3-3.3,2.7-4.4c0.7-0.5,0.9-1.1,0.7-1.9
				c-0.5-1.5,0.3-2.3,1.7-2.6c0.2,0.2,0.4,0.5,0.6,0.7c-1.4,0.8-1.4,0.8-0.9,2.3c0.4-0.2,0.8-0.3,1.2-0.4c0.5-0.1,1.2-0.7,1.4,0.1
				c0.3,0.8-0.6,0.7-1.1,0.9c-1.8,0.8-3.5,1.7-4.3,3.7c-1.2,1.8-1.5,3.7-1.2,5.7c0.5,3.3,1.6,6.6,0.3,9.9c-0.1,0.3-0.1,0.7-0.2,1.1
				c-0.2,1.7,0.6,2.9,1.9,3c1.2,0.1,2-0.8,2.2-2.5c0.2-1.7,0.5-3.5,1-5.2c0.1-0.4,0.2-0.8,0.7-0.8c0.6,0.1,0.5,0.5,0.5,1
				c0,0.3,0,0.7-0.1,1c-0.2,2.9-0.2,5.9,0.3,8.8c0.3,1.7,1.7,2.6,3.2,2.1c1.3-0.4,1.8-1.4,1.5-3.2c-0.4-2.8-0.7-5.6-0.7-8.5
				c0-0.5-0.1-1.2,0.6-1.2c0.8,0,0.5,0.7,0.5,1.2c0.1,2.1,0.6,4.1,1.2,6.1c0.3,0.9,0.8,1.6,1.7,1.9c0.9,0.2,1.7,0.1,2.3-0.5
				c0.7-0.7,0.8-1.5,0.5-2.3c-1.5-4-1.6-8.2-1-12.4c0.1-0.5,0-0.9,0.5-1.2c0.7,0.2,0.6,0.8,0.6,1.4c-0.1,1.5-0.2,3-0.4,4.4
				c-0.1,1,0.4,1.2,1.2,1.2c0.9,0,1.6-0.5,2-1.3c0.5-1,0.2-1.9-0.5-2.6c-1.1-1.2-1.9-2.6-2.3-4.2c-0.9-3.4-2.7-6-6.4-6.7
				c-0.4-0.1-0.8-0.2-0.6-0.7c0.1-0.4,0.5-0.4,0.8-0.3c0.2,0,0.4,0.2,0.5,0.1c0.4-0.1,0.9,0.7,1.2,0
				C208.4,190.1,208.1,189.7,207.4,189.3z"/>
			<path class="st23" d="M196,195.6c0.8-2,2.5-2.9,4.3-3.7c0.4-0.2,1.4-0.1,1.1-0.9c-0.3-0.8-1-0.2-1.4-0.1
				c-0.4,0.1-0.8,0.3-1.2,0.4c-0.5-1.5-0.5-1.5,0.9-2.3c2.6-0.8,5.2-0.8,7.7,0.3c0.6,0.3,0.9,0.8,0.6,1.5c-0.3,0.7-0.8-0.1-1.2,0
				c-0.2,0-0.4-0.1-0.5-0.1c-0.3-0.1-0.7,0-0.8,0.3c-0.1,0.5,0.2,0.6,0.6,0.7c3.7,0.7,5.5,3.3,6.4,6.7c0.4,1.6,1.2,3,2.3,4.2
				c0.7,0.7,0.9,1.6,0.5,2.6c-0.4,0.8-1,1.3-2,1.3c-0.8,0-1.3-0.2-1.2-1.2c0.2-1.5,0.3-3,0.4-4.4c0-0.5,0.2-1.1-0.6-1.4
				c-0.6-3.5-2.3-5.9-6-6.4c-3-0.4-5.9-0.3-8.5,1.6C197,195.2,196.6,195.6,196,195.6z"/>
			<path class="st24" d="M196,195.6c0.6,0,1-0.5,1.4-0.8c2.6-1.9,5.5-2,8.5-1.6c3.6,0.5,5.4,2.9,6,6.4c-0.5,0.3-0.5,0.7-0.5,1.2
				c-0.6,4.2-0.5,8.3,1,12.4c0.3,0.8,0.2,1.7-0.5,2.3c-0.7,0.6-1.5,0.8-2.3,0.5c-1-0.3-1.4-1-1.7-1.9c-0.7-2-1.1-4-1.2-6.1
				c0-0.5,0.3-1.2-0.5-1.2c-0.7,0-0.6,0.8-0.6,1.2c0,2.8,0.3,5.7,0.7,8.5c0.3,1.7-0.2,2.8-1.5,3.2c-1.5,0.5-3-0.4-3.2-2.1
				c-0.5-2.9-0.5-5.8-0.3-8.8c0-0.3,0-0.7,0.1-1c0-0.4,0.1-0.9-0.5-1c-0.5,0-0.5,0.4-0.7,0.8c-0.5,1.7-0.8,3.4-1,5.2
				c-0.2,1.7-1,2.6-2.2,2.5c-1.4-0.1-2.1-1.3-1.9-3c0-0.4,0-0.8,0.2-1.1c1.3-3.4,0.2-6.6-0.3-9.9C194.5,199.3,194.8,197.4,196,195.6
				z M203.4,205.5c1.5,0.1,3.2-0.3,4.7-0.9c0.4-0.2,0.9-0.3,0.7-0.8c-0.2-0.5-0.7-0.3-1.1-0.2c-3,1.1-6,1.1-9,0
				c-0.4-0.2-0.9-0.3-1,0.2c-0.2,0.5,0.4,0.7,0.7,0.8C200,205.2,201.6,205.5,203.4,205.5z"/>
			<path class="st22" d="M203.4,205.5c-1.8,0-3.4-0.3-4.9-0.8c-0.4-0.1-0.9-0.3-0.7-0.8c0.2-0.6,0.6-0.4,1-0.2c3,1.1,6,1.1,9,0
				c0.4-0.1,0.8-0.4,1.1,0.2c0.2,0.6-0.3,0.7-0.7,0.8C206.6,205.2,204.9,205.5,203.4,205.5z"/>
		</g>
		<path class="st25" d="M215.1,158.6l-5-4.7l-2.5,2.9c-1.9,2.4-3.3,5-4.5,7.8c-2.9,7.1-3.7,14.6-3.6,22.2c0,0.5,0.2,1.1-0.3,1.5
			c0.2,0.2,0.4,0.5,0.6,0.7c2.6-0.8,5.2-0.8,7.7,0.3c0.1-0.3,0.2-0.6,0.3-0.9c-0.7-0.2-0.7-0.8-0.7-1.4c-0.2-8.2,0.8-16.1,4.9-23.4
			L215.1,158.6z"/>
	</g>
	<g>
		<g>
			<path class="st22" d="M297.9,189.3c-0.1-0.3-0.2-0.6-0.3-0.9c-1.1,0.4-1.9,1-1.4,2.3c0.2,0.5,0,0.9-0.5,1.3
				c-2,1.4-3.1,3.3-3.7,5.6c-0.5,1.6-1.1,3.1-2.3,4.4c-1,1.1-1.2,2.5-0.5,3.9c0.7,1.3,1.8,1.9,3.2,1.8c0.7-0.1,0.8,0.2,0.7,0.8
				c-0.4,1.4-0.7,2.7-1.1,4.1c-0.6,1.9-0.3,3.1,0.9,4.1c1.3,1,2.8,0.9,4.4-0.1c0.2-0.2,0.4-0.5,0.7-0.3c0.3,0.2,0.2,0.5,0.1,0.7
				c-0.4,2.2,0.6,3.8,2.6,4.1c1.9,0.4,3.8-1,4.2-3c0.2-1,0.3-2.1,0.4-3.1c0.4-0.2,0.4,0.1,0.5,0.3c0.9,1.2,2,1.6,3.4,1.2
				c1.4-0.4,2.3-1.7,2.3-3.1c0-1.8-0.4-3.5-0.8-5.2c-0.2-0.8-0.2-1.5,0.1-2.3c0.9-2.7,1.2-5.5,0.5-8.4c-0.4-1.8-1.3-3.3-2.7-4.4
				c-0.7-0.5-0.9-1.1-0.7-1.9c0.5-1.5-0.3-2.3-1.7-2.6c-0.2,0.2-0.4,0.5-0.6,0.7c1.4,0.8,1.4,0.8,0.9,2.3c-0.4-0.2-0.8-0.3-1.2-0.4
				c-0.5-0.1-1.2-0.7-1.4,0.1c-0.3,0.8,0.6,0.7,1.1,0.9c1.8,0.8,3.5,1.7,4.3,3.7c1.2,1.8,1.5,3.7,1.2,5.7c-0.5,3.3-1.6,6.6-0.3,9.9
				c0.1,0.3,0.1,0.7,0.2,1.1c0.2,1.7-0.6,2.9-1.9,3c-1.2,0.1-2-0.8-2.2-2.5c-0.2-1.7-0.5-3.5-1-5.2c-0.1-0.4-0.2-0.8-0.7-0.8
				c-0.6,0.1-0.5,0.5-0.5,1c0,0.3,0,0.7,0.1,1c0.2,2.9,0.2,5.9-0.3,8.8c-0.3,1.7-1.7,2.6-3.2,2.1c-1.3-0.4-1.8-1.4-1.5-3.2
				c0.4-2.8,0.7-5.6,0.7-8.5c0-0.5,0.1-1.2-0.6-1.2c-0.8,0-0.5,0.7-0.5,1.2c-0.1,2.1-0.6,4.1-1.2,6.1c-0.3,0.9-0.8,1.6-1.7,1.9
				c-0.9,0.2-1.7,0.1-2.3-0.5c-0.7-0.7-0.8-1.5-0.5-2.3c1.5-4,1.6-8.2,1-12.4c-0.1-0.5,0-0.9-0.5-1.2c-0.7,0.2-0.6,0.8-0.6,1.4
				c0.1,1.5,0.2,3,0.4,4.4c0.1,1-0.4,1.2-1.2,1.2c-0.9,0-1.6-0.5-2-1.3c-0.5-1-0.2-1.9,0.5-2.6c1.1-1.2,1.9-2.6,2.3-4.2
				c0.9-3.4,2.7-6,6.4-6.7c0.4-0.1,0.8-0.2,0.6-0.7c-0.1-0.4-0.5-0.4-0.8-0.3c-0.2,0-0.4,0.2-0.5,0.1c-0.4-0.1-0.9,0.7-1.2,0
				C296.9,190.1,297.2,189.7,297.9,189.3z"/>
			<path class="st23" d="M309.3,195.6c-0.8-2-2.5-2.9-4.3-3.7c-0.4-0.2-1.4-0.1-1.1-0.9c0.3-0.8,1-0.2,1.4-0.1
				c0.4,0.1,0.8,0.3,1.2,0.4c0.5-1.5,0.5-1.5-0.9-2.3c-2.6-0.8-5.2-0.8-7.7,0.3c-0.6,0.3-0.9,0.8-0.6,1.5c0.3,0.7,0.8-0.1,1.2,0
				c0.2,0,0.4-0.1,0.5-0.1c0.3-0.1,0.7,0,0.8,0.3c0.1,0.5-0.2,0.6-0.6,0.7c-3.7,0.7-5.5,3.3-6.4,6.7c-0.4,1.6-1.2,3-2.3,4.2
				c-0.7,0.7-0.9,1.6-0.5,2.6c0.4,0.8,1,1.3,2,1.3c0.8,0,1.3-0.2,1.2-1.2c-0.2-1.5-0.3-3-0.4-4.4c0-0.5-0.2-1.1,0.6-1.4
				c0.6-3.5,2.3-5.9,6-6.4c3-0.4,5.9-0.3,8.5,1.6C308.3,195.2,308.7,195.6,309.3,195.6z"/>
			<path class="st24" d="M310.5,201.4c-0.5,3.3-1.6,6.6-0.3,9.9c0.1,0.3,0.1,0.7,0.2,1.1c0.2,1.7-0.6,2.9-1.9,3
				c-1.2,0.1-2-0.8-2.2-2.5c-0.2-1.7-0.5-3.5-1-5.2c-0.1-0.4-0.2-0.8-0.7-0.8c-0.6,0.1-0.5,0.5-0.5,1c0,0.3,0,0.7,0.1,1
				c0.2,2.9,0.2,5.9-0.3,8.8c-0.3,1.7-1.7,2.6-3.2,2.1c-1.3-0.4-1.8-1.4-1.5-3.2c0.4-2.8,0.7-5.6,0.7-8.5c0-0.5,0.1-1.2-0.6-1.2
				c-0.8,0-0.5,0.7-0.5,1.2c-0.1,2.1-0.6,4.1-1.2,6.1c-0.3,0.9-0.8,1.6-1.7,1.9c-0.9,0.2-1.7,0.1-2.3-0.5c-0.7-0.7-0.8-1.5-0.5-2.3
				c1.5-4,1.6-8.2,1-12.4c-0.1-0.5,0-0.9-0.5-1.2c0.6-3.5,2.3-5.9,6-6.4c3-0.4,5.9-0.3,8.5,1.6c0.4,0.3,0.8,0.8,1.4,0.8
				C310.5,197.4,310.8,199.3,310.5,201.4z M306.8,204.7c0.4-0.1,0.9-0.3,0.7-0.8c-0.2-0.6-0.6-0.4-1-0.2c-3,1.1-6,1.1-9,0
				c-0.4-0.1-0.8-0.4-1.1,0.2c-0.2,0.6,0.3,0.7,0.7,0.8c1.6,0.6,3.2,0.9,4.7,0.9C303.7,205.5,305.3,205.2,306.8,204.7z"/>
			<path class="st22" d="M301.9,205.5c1.8,0,3.4-0.3,4.9-0.8c0.4-0.1,0.9-0.3,0.7-0.8c-0.2-0.6-0.6-0.4-1-0.2c-3,1.1-6,1.1-9,0
				c-0.4-0.1-0.8-0.4-1.1,0.2c-0.2,0.6,0.3,0.7,0.7,0.8C298.7,205.2,300.3,205.5,301.9,205.5z"/>
		</g>
		<path class="st25" d="M290.2,158.6l5-4.7l2.5,2.9c1.9,2.4,3.3,5,4.5,7.8c2.9,7.1,3.7,14.6,3.6,22.2c0,0.5-0.2,1.1,0.3,1.5
			c-0.2,0.2-0.4,0.5-0.6,0.7c-2.6-0.8-5.2-0.8-7.7,0.3c-0.1-0.3-0.2-0.6-0.3-0.9c0.7-0.2,0.7-0.8,0.7-1.4c0.2-8.2-0.8-16.1-4.9-23.4
			L290.2,158.6z"/>
	</g>
	<path class="st26" d="M276.8,200.4c-3.1,0-5.6-0.9-6-1l-11.5-3.5l0,0c-2.3-0.8-4.7-1.2-7.3-1.2c-4.1,0-7,1.1-7,1.1l0,0l-14,4.3
		l-0.1,0c-1.4,0.3-2.7,0.4-3.9,0.4c-3.5,0-6.4-1.1-8.5-3.2c-3.6-3.7-3.6-9.2-3.6-9.8l-0.4-12.1v-0.1c0.4-8.4-3.1-13.3-3.2-13.3
		c-5.2-6.8-9-13.3-9.2-13.7c-2.5-4.1-3.2-7.8-2.1-11.2c1.8-5.2,7.3-7.3,7.6-7.4c0.1,0,7.1-2.6,15.4-5.5c7.5-2.7,11.9-9.9,12.2-10.3
		c0.4-0.7,4.8-8.8,11.8-13.1c1.5-0.9,3.1-1.4,4.7-1.4c6,0,10.8,5.9,11,6.2c0.1,0.1,3.1,3.8,8,10.8c4.4,6.2,12,8.9,12.8,9.1
		c1.4,0.2,14.6,2.8,18.7,8.7c4.4,6.3-0.2,14.1-0.4,14.4l0,0c0,0.1-3.6,5.5-7.7,10.9c-3.7,4.9-4.7,11-4.8,11.7l-0.4,18.1l0,0.1
		C287.2,199,280.6,200.4,276.8,200.4L276.8,200.4z"/>
	<g>
		<path class="st27" d="M216.5,158.1L216.5,158.1c-5.1-6.7-8.9-13.1-8.9-13.1l-0.1-0.1c-1-1.6-2.1-3.9-1.5-5.7
			c0.6-1.8,2.8-3.1,3.7-3.5c0,0,0,0,0,0c0,0,0,0,0,0l0,0l0,0c0.7-0.2,7.4-2.7,15.2-5.5c9.9-3.5,15.4-12.8,15.6-13.2l0.1-0.1l0.1-0.1
			c0-0.1,3.9-7.2,9.5-10.7c0.5-0.3,0.9-0.4,1.4-0.4c2.2,0,5,2.5,6,3.8l0,0.1c0.2,0.2,3.1,3.8,7.7,10.4c0.3,0.4,0.6,0.9,1,1.3
			c1.1-2.2,2-4,2.4-5.2c-4.5-6.4-7.3-9.7-7.3-9.7s-6.9-8.7-13.9-4.5c-6.9,4.2-11.3,12.6-11.3,12.6s-4.6,8-12.9,10.9
			c-8.3,3-15.3,5.5-15.3,5.5s-12.2,4.6-4.8,16.5c0,0,3.8,6.5,9.2,13.6c0,0,1.6,2.2,2.6,6.2c1.6-0.6,3.2-1.2,4.7-1.9
			C218.6,161.1,216.8,158.5,216.5,158.1z"/>
		<path class="st17" d="M301.1,134.9c-3.9-5.7-17.9-8.1-17.9-8.1s-8.7-2.6-13.7-9.7c-0.2-0.3-0.5-0.7-0.7-1
			c-0.5,1.2-1.3,2.9-2.4,5.2c5.9,7.4,15,10.2,15.3,10.3l0.3,0.1l0.3,0.1c3.6,0.6,8.7,2.2,11.9,4c0,0,0,0,0,0c0,0,0.1,0,0.2,0.1
			c0.6,0.4,2.8,2,2.2,5.9c-0.7,4.6-5.7,11.3-17.6,23.7c-11.9,12.4-37.4,23.6-37.4,23.6s-16.1,6-18.1,2.2c-1.9-3.7-2.6-14.7-2.6-15.7
			c0-0.1,0-0.1,0-0.1c0.2-3.9-0.4-7.2-1.1-9.9c-1.5,0.7-3.1,1.3-4.7,1.9c0.6,2.2,0.9,4.9,0.8,8l0.4,12.1c0,0-0.4,14.1,14.3,11.3
			l13.9-4.2c0,0,7.3-2.7,15.3,0.2l11.5,3.5c0,0,13.7,5.2,16.3-8.9l0.4-18.1c0,0,1-6.9,5.1-12.5c4.1-5.5,7.7-10.9,7.7-10.9
			S305,140.6,301.1,134.9z"/>
		<path class="st28" d="M219.8,165.4c0.7,2.6,1.3,6,1.1,9.9c0,0,0,0,0,0.1c0.1,1,0.7,12.1,2.6,15.7c2,3.8,18.1-2.2,18.1-2.2
			s25.5-11.2,37.4-23.6c11.9-12.4,16.9-19.2,17.6-23.7c0.6-3.9-1.6-5.5-2.2-5.9c-0.1-0.1-0.1-0.1-0.2-0.1c0,0,0,0,0,0
			c-3.2-1.8-8.3-3.3-11.9-4l-0.3-0.1l-0.3-0.1c-0.4-0.1-9.4-2.9-15.3-10.3C260.7,132.2,246.6,154,219.8,165.4z"/>
	</g>
	<g>
		<path class="st29" d="M265.4,120c-4.6-6.6-7.6-10.2-7.7-10.4l0-0.1c-0.8-1-2.6-2.7-4.5-3.4c-0.1,0.1-4.3,2-7.2,8
			c-2.9,6.1-5.4,15.8-13.9,18.3c-7.7,2.3-25,3-25.8,9.8c0.3,0.9,0.8,1.9,1.3,2.6l0.1,0.1c0,0.1,3.8,6.4,8.8,13.1l0,0.1
			c0.3,0.4,2.1,3,3.3,7.3c26.8-11.4,40.9-33.2,46.6-44.2C266.1,120.8,265.8,120.4,265.4,120z"/>
		<path class="st11" d="M232.1,132.5c8.5-2.5,11-12.2,13.9-18.3c2.9-6,7.1-8,7.2-8c-0.5-0.2-1-0.3-1.5-0.3s-0.9,0.1-1.4,0.4
			c-5.6,3.4-9.5,10.6-9.5,10.7l-0.1,0.1l-0.1,0.1c-0.2,0.4-5.7,9.6-15.6,13.2c-7.8,2.8-14.5,5.2-15.2,5.5l0,0l0,0c0,0,0,0,0,0
			s0,0,0,0c-0.9,0.4-3.1,1.6-3.7,3.5c-0.3,0.9-0.2,2,0.2,3.1C207.1,135.4,224.4,134.7,232.1,132.5z"/>
	</g>
	<g>
		<g>
			<g>
				<path d="M264.8,132.7c0.1,0,0.1,0,0.2,0c2.6,0.1,5,1.4,6.8,3.8c1.7,2.3,2.7,5.4,2.6,8.6c-0.1,4.5-2.1,8.4-5.1,10.4
					c3.8-0.2,5.4,2.2,5.4,2.2c-3-1.8-8.6-0.9-8.6-0.9l0,0c-0.5,0.1-1,0.2-1.5,0.2c-0.1,0-0.1,0-0.2,0c-2.6-0.1-5-1.4-6.8-3.8
					c-1.7-2.3-2.7-5.4-2.6-8.6C255.1,137.9,259.4,132.7,264.8,132.7z"/>
				<path class="st7" d="M255.6,144.3c0.1-2.6,0.8-4.9,2-6.8c0,0,0.1,0,0.1,0c1.8-0.4,3.4-0.4,5-0.2c0.4,0.1,0.9,0.2,1.3,0.3
					c1.2,0.3,2.3,0.8,3.3,1.3c0.4,0.2,0.7,0.4,1.1,0.6c2.3,1.5,4,3.3,5.1,4.7c0.2,0.2,0.3,0.4,0.4,0.6c0,0,0,0,0,0
					c-0.2,6.3-4.4,11.3-9.4,11.1C259.4,155.8,255.5,150.6,255.6,144.3z"/>
				<path class="st8" d="M264.8,154.4c4.4,0.1,8.2-4.4,8.7-10.2c0-0.2,0-0.4,0-0.5c-1.2-1.4-3-3.3-5.3-4.7c-0.4-0.2-0.7-0.4-1.1-0.6
					c-0.9-0.4-1.8-0.8-2.7-1.1c-0.4-0.1-0.9-0.2-1.3-0.3c-1.6-0.3-3.3-0.3-5.1,0.1c-0.1,0.1-0.1,0.3-0.2,0.4
					c-0.7,1.6-1.1,3.4-1.2,5.4C256.4,149.1,260.1,154.3,264.8,154.4z"/>
				<path class="st9" d="M264.6,146.2c1.9,0.1,3.7-2.1,3.8-4.9c0-0.6,0-1.2-0.1-1.8c0-0.2-0.1-0.3-0.1-0.5c-0.4-0.2-0.7-0.4-1.1-0.6
					c-0.9-0.4-1.8-0.8-2.7-1.1c-0.4-0.1-0.9-0.2-1.3-0.3c-0.1,0.1-0.2,0.2-0.3,0.3c-0.7,0.9-1.2,2.1-1.3,3.6
					C261.3,143.7,262.7,146.1,264.6,146.2z"/>
				<path class="st10" d="M264.9,144.3c1.3,0.1,2.4-1.5,2.5-3.5c0-0.7,0-1.3-0.2-1.9c-0.1-0.2-0.1-0.4-0.2-0.5
					c-0.9-0.4-1.8-0.8-2.7-1.1c-0.1,0.1-0.2,0.2-0.3,0.3c-0.6,0.6-1,1.7-1.1,2.9C262.8,142.5,263.7,144.2,264.9,144.3z"/>
				
					<ellipse transform="matrix(0.3904 -0.9207 0.9207 0.3904 32.9251 326.3332)" class="st8" cx="262.9" cy="138.3" rx="0.7" ry="0.4"/>
				<g>
					<path class="st11" d="M268.2,139c-0.4-0.2-0.7-0.4-1.1-0.6c-0.9-0.4-1.8-0.8-2.7-1.1c-0.4-0.1-0.9-0.2-1.3-0.3
						c-1.6-0.3-3.2-0.3-5.1,0.1c1.7-2.4,4.3-3.9,7.1-3.9c4.9,0.1,8.7,5,8.8,11c-0.1-0.2-0.3-0.3-0.4-0.5
						C272.3,142.2,270.5,140.4,268.2,139z"/>
					<path d="M268.3,139.5c-0.3-0.2-0.7-0.4-1.1-0.6c-1-0.5-2.1-1-3.3-1.3c-0.4-0.1-0.8-0.2-1.3-0.3c-1.5-0.2-3.2-0.2-5,0.2
						c0,0-0.1,0-0.1,0c0.1-0.2,0.2-0.3,0.3-0.4c1.8-0.4,3.5-0.4,5.1-0.1c0.5,0.1,0.9,0.2,1.3,0.3c1,0.3,1.9,0.6,2.7,1.1
						c0.4,0.2,0.8,0.4,1.1,0.6c2.3,1.4,4.1,3.3,5.3,4.7c0.1,0.2,0.3,0.3,0.4,0.5c0,0.2,0,0.4,0,0.6c-0.1-0.2-0.3-0.4-0.4-0.6
						C272.3,142.8,270.6,141,268.3,139.5z"/>
				</g>
				<path d="M263,130.1c0,0,6-2.4,10.1,3.8c0,0,0.1-6.2-4.2-6.6C264.7,126.9,263,130.1,263,130.1z"/>
			</g>
			<g>
				<path d="M239.1,132.7c-0.1,0-0.1,0-0.2,0c-2.6,0.1-5,1.4-6.8,3.8c-1.7,2.3-2.7,5.4-2.6,8.6c0.1,4.5,2.1,8.4,5.1,10.4
					c-3.8-0.2-5.4,2.2-5.4,2.2c3-1.8,8.6-0.9,8.6-0.9l0,0c0.5,0.1,1,0.2,1.5,0.2c0.1,0,0.1,0,0.2,0c2.6-0.1,5-1.4,6.8-3.8
					c1.7-2.3,2.7-5.4,2.6-8.6C248.7,137.9,244.4,132.7,239.1,132.7z"/>
				<path class="st7" d="M248.2,144.3c-0.1-2.6-0.8-4.9-2-6.8c0,0-0.1,0-0.1,0c-1.8-0.4-3.4-0.4-5-0.2c-0.4,0.1-0.9,0.2-1.3,0.3
					c-1.2,0.3-2.3,0.8-3.3,1.3c-0.4,0.2-0.7,0.4-1.1,0.6c-2.3,1.5-4,3.3-5.1,4.7c-0.2,0.2-0.3,0.4-0.4,0.6c0,0,0,0,0,0
					c0.2,6.3,4.4,11.3,9.4,11.1C244.4,155.8,248.4,150.6,248.2,144.3z"/>
				<path class="st8" d="M239.1,154.4c-4.4,0.1-8.2-4.4-8.7-10.2c0-0.2,0-0.4,0-0.5c1.2-1.4,3-3.3,5.3-4.7c0.4-0.2,0.7-0.4,1.1-0.6
					c0.9-0.4,1.8-0.8,2.7-1.1c0.4-0.1,0.9-0.2,1.3-0.3c1.6-0.3,3.3-0.3,5.1,0.1c0.1,0.1,0.1,0.3,0.2,0.4c0.7,1.6,1.1,3.4,1.2,5.4
					C247.4,149.1,243.8,154.3,239.1,154.4z"/>
				<path class="st9" d="M239.2,146.2c-1.9,0.1-3.7-2.1-3.8-4.9c0-0.6,0-1.2,0.1-1.8c0-0.2,0.1-0.3,0.1-0.5c0.4-0.2,0.7-0.4,1.1-0.6
					c0.9-0.4,1.8-0.8,2.7-1.1c0.4-0.1,0.9-0.2,1.3-0.3c0.1,0.1,0.2,0.2,0.3,0.3c0.7,0.9,1.2,2.1,1.3,3.6
					C242.6,143.7,241.2,146.1,239.2,146.2z"/>
				<path class="st10" d="M238.9,144.3c-1.3,0.1-2.4-1.5-2.5-3.5c0-0.7,0-1.3,0.2-1.9c0.1-0.2,0.1-0.4,0.2-0.5
					c0.9-0.4,1.8-0.8,2.7-1.1c0.1,0.1,0.2,0.2,0.3,0.3c0.6,0.6,1,1.7,1.1,2.9C241.1,142.5,240.2,144.2,238.9,144.3z"/>
				
					<ellipse transform="matrix(0.9207 -0.3904 0.3904 0.9207 -34.8719 105.0365)" class="st8" cx="241" cy="138.3" rx="0.4" ry="0.7"/>
				<g>
					<path class="st11" d="M235.6,139c0.4-0.2,0.7-0.4,1.1-0.6c0.9-0.4,1.8-0.8,2.7-1.1c0.4-0.1,0.9-0.2,1.3-0.3
						c1.6-0.3,3.2-0.3,5.1,0.1c-1.7-2.4-4.3-3.9-7.1-3.9c-4.9,0.1-8.7,5-8.8,11c0.1-0.2,0.3-0.3,0.4-0.5
						C231.5,142.2,233.3,140.4,235.6,139z"/>
					<path d="M235.5,139.5c0.3-0.2,0.7-0.4,1.1-0.6c1-0.5,2.1-1,3.3-1.3c0.4-0.1,0.8-0.2,1.3-0.3c1.5-0.2,3.2-0.2,5,0.2
						c0,0,0.1,0,0.1,0c-0.1-0.2-0.2-0.3-0.3-0.4c-1.8-0.4-3.5-0.4-5.1-0.1c-0.5,0.1-0.9,0.2-1.3,0.3c-1,0.3-1.9,0.6-2.7,1.1
						c-0.4,0.2-0.8,0.4-1.1,0.6c-2.3,1.4-4.1,3.3-5.3,4.7c-0.1,0.2-0.3,0.3-0.4,0.5c0,0.2,0,0.4,0,0.6c0.1-0.2,0.3-0.4,0.4-0.6
						C231.5,142.8,233.2,141,235.5,139.5z"/>
				</g>
				<path d="M240.8,130.1c0,0-6-2.4-10.1,3.8c0,0-0.1-6.2,4.2-6.6S240.8,130.1,240.8,130.1z"/>
			</g>
		</g>
		<g>
			<g>
				
					<ellipse transform="matrix(0.2052 -0.9787 0.9787 0.2052 17.0484 363.1327)" class="st29" cx="232.1" cy="171.1" rx="3" ry="1.6"/>
			</g>
			<g>
				
					<ellipse transform="matrix(0.9787 -0.2052 0.2052 0.9787 -29.7714 59.3065)" class="st29" cx="271" cy="173.2" rx="1.6" ry="3"/>
			</g>
			<path class="st8" d="M262.9,174.6L262.9,174.6c-0.1,0.1-0.2,0.1-0.2,0c0,0-0.1-0.1-0.1-0.1l-0.7-0.4c-0.2-0.1-0.5-0.3-0.7-0.4
				c-0.5-0.2-1-0.5-1.5-0.7l-0.7-0.3c-0.3-0.1-0.5-0.2-0.8-0.3l-0.4-0.1c-0.1,0-0.3-0.1-0.4-0.1l-0.8-0.3c-0.3-0.1-0.5-0.1-0.8-0.2
				l-0.4-0.1l-0.4-0.1c-0.3-0.1-0.5-0.1-0.8-0.2l-0.8-0.2l-0.2,0l-0.2,0l-0.4-0.1l-0.4-0.1c-0.1,0-0.3,0-0.4,0
				c-1.1-0.1-2.1-0.2-3.2-0.1c-1.1,0-2.1,0.2-3.2,0.3c-1.1,0.2-2.1,0.4-3.2,0.8c-0.5,0.2-1,0.3-1.6,0.5c-0.2,0.1-0.4-0.2-0.2-0.3
				c0,0,0,0,0,0c0.5-0.3,1-0.6,1.5-0.8c1-0.5,2.1-0.9,3.2-1.2c1.1-0.3,2.2-0.5,3.4-0.6c0.3,0,0.6,0,0.9,0l0.9,0l0.9,0
				c0.1,0,0.3,0,0.4,0l0.4,0c0.1,0,0.3,0,0.4,0l0.4,0.1l0.4,0.1l0.2,0l0.2,0l0.8,0.2c0.3,0.1,0.5,0.1,0.8,0.2l0.4,0.1l0.4,0.1
				c0.3,0.1,0.5,0.2,0.8,0.3l0.8,0.3c0.1,0.1,0.3,0.1,0.4,0.2l0.4,0.2c1.6,0.8,3,1.8,4.3,2.9C263,174.5,263,174.6,262.9,174.6z"/>
			<path class="st26" d="M269,176.4c-0.2-1.4-0.8-4.5-2.1-7.2c-0.1-0.3-0.6-0.2-0.5,0.1c0.1,1,0,2.2-0.8,2c-1.3-0.4-8.8-6.1-22-3.9
				l-4.1,0.8c-0.4,0.1-0.9-0.3-0.8-0.7c0-0.3,0.1-0.6,0.2-1c0.1-0.5-0.5-0.8-0.8-0.5c-1.1,1.1-2.7,3.3-3.5,7.7
				c-0.1,0.5,0.5,0.8,0.8,0.4c1.9-2.2,6.4-6,13.5-6c0,0,10.8-1.2,19.9,8.5C268.7,176.8,269,176.6,269,176.4z"/>
			<path class="st29" d="M258.3,174.6C258.3,174.6,258.3,174.6,258.3,174.6c0-0.1-0.1-0.2-0.2-0.3c0,0,0,0,0,0
				c-0.7-0.5-1.4-0.8-2.2-1.2c-0.4-0.2-0.8-0.3-1.2-0.5c-0.4-0.1-0.8-0.3-1.3-0.4c-0.4-0.1-0.9-0.2-1.3-0.3c-0.2,0-0.4-0.1-0.7-0.1
				c-0.1,0-0.2,0-0.3,0l-0.1,0l0,0l0,0l0,0l-0.2,0c-0.5,0-0.9,0-1.3,0c-0.4,0-0.9,0-1.3,0.1c-0.2,0-0.4,0-0.7,0.1l-0.3,0l-0.3,0.1
				c-0.2,0-0.4,0.1-0.7,0.1c-0.2,0-0.4,0.1-0.7,0.1c-0.9,0.2-1.7,0.5-2.5,0.9l0,0c-0.1,0.1-0.2,0.3-0.2,0.4c0,0.1,0,0.1,0,0.2
				c0.1,0.2,0.3,0.4,0.5,0.3c0,0,0,0,0,0c0.8-0.2,1.6-0.3,2.5-0.3c0.8-0.1,1.6-0.1,2.5-0.1c0.4,0,0.8,0,1.2,0c0.4,0,0.8,0,1.2,0
				l0.2,0l0,0h0c0,0,0,0,0,0c0,0,0,0,0,0l0.1,0l0.3,0l0.6,0.1c0.4,0.1,0.8,0.1,1.2,0.2c0.8,0.1,1.6,0.3,2.4,0.5
				c0.7,0.2,1.5,0.4,2.2,0.6c0,0,0,0,0,0c0,0,0,0,0,0c0,0,0.3,0.1,0.4-0.1c0,0,0,0,0,0c0,0,0,0,0,0
				C258.3,174.9,258.3,174.7,258.3,174.6z"/>
		</g>
	</g>
</g>
</svg>
