<?xml version="1.0" encoding="utf-8"?>
<!-- Generator: Adobe Illustrator 25.0.0, SVG Export Plug-In . SVG Version: 6.00 Build 0)  -->
<svg version="1.1" id="Layer_1" xmlns="http://www.w3.org/2000/svg" xmlns:xlink="http://www.w3.org/1999/xlink" x="0px" y="0px"
	 viewBox="0 0 512 512" style="enable-background:new 0 0 512 512;" xml:space="preserve">
<style type="text/css">
	.st0{fill:#0084FF;}
</style>
<path class="st0" d="M395.5,275.7l-104-101.5v41.9c0,3.8-2.9,6.9-6.6,7.3c-37,7.4-70.7,7.4-101.3-1.9c-24.7-7.5-47.2-21-67.8-41.7
	c6.5,40.1,23.2,73.7,48.3,98.6c29.4,29.1,70.5,46.4,120.3,48.5c3.9,0.2,7,3.4,7,7.3l0,42.9L395.5,275.7z M289.3,151.5l122,119.1
	c2.8,2.9,2.8,7.5-0.1,10.3L289.7,399.5c-1.4,1.6-3.4,2.5-5.5,2.5c-4,0-7.3-3.3-7.3-7.3v-53.4c-50.5-3.6-92.4-22.1-123-52.4
	c-32.2-31.9-51.7-76.7-55.1-130.5c-0.1-2.3,0.8-4.6,2.7-6.2c3.2-2.5,7.8-2,10.3,1.1c22.7,28.3,48,45.7,76.1,54.2
	c26.8,8.1,56.3,8.4,89,2.5v-53.3c0-1.8,0.7-3.7,2.1-5.1C281.7,148.8,286.4,148.7,289.3,151.5L289.3,151.5z"/>
</svg>
