<?xml version="1.0" encoding="utf-8"?>
<!-- Generator: Adobe Illustrator 25.0.0, SVG Export Plug-In . SVG Version: 6.00 Build 0)  -->
<svg version="1.1" id="Layer_1" xmlns="http://www.w3.org/2000/svg" xmlns:xlink="http://www.w3.org/1999/xlink" x="0px" y="0px"
	 viewBox="0 0 512 512" style="enable-background:new 0 0 512 512;" xml:space="preserve">
<style type="text/css">
	.st0{fill-rule:evenodd;clip-rule:evenodd;fill:#848484;}
	.st1{fill-rule:evenodd;clip-rule:evenodd;fill:#FFFFFF;}
</style>
<g>
	<path class="st0" d="M419.1,208.6c-5.2-5.4-10.5-10.9-12.3-15.1c-1.8-4.4-1.9-11.9-2-19.4c-0.3-18.1-0.5-35.9-15.8-51.2
		c-15.3-15.3-33.1-15.6-51.2-15.8c-7.5-0.1-15-0.2-19.4-2c-4.2-1.7-9.7-7-15.1-12.3c-13-12.6-25.7-25-47.4-25s-34.4,12.4-47.4,25
		c-5.4,5.2-10.9,10.5-15.1,12.3c-4.4,1.8-11.9,1.9-19.4,2c-18.1,0.3-35.9,0.5-51.2,15.8c-15.3,15.3-15.6,33.1-15.8,51.2
		c-0.1,7.5-0.2,15-2,19.4c-1.7,4.2-7,9.7-12.3,15.1c-12.6,13-25,25.7-25,47.4s12.4,34.4,25,47.4c5.2,5.4,10.5,10.9,12.3,15.1
		c1.8,4.4,1.9,11.9,2,19.4c0.3,18.1,0.5,35.9,15.8,51.2s33.1,15.6,51.2,15.8c7.5,0.1,15,0.2,19.4,2c4.2,1.7,9.7,7,15.1,12.3
		c13,12.6,25.7,25,47.4,25s34.4-12.4,47.4-25c5.4-5.2,10.9-10.5,15.1-12.3c4.4-1.8,11.9-1.9,19.4-2c18.1-0.3,35.9-0.5,51.2-15.8
		c15.3-15.3,15.6-33.1,15.8-51.2c0.1-7.5,0.2-15,2-19.4c1.7-4.2,7-9.7,12.3-15.1c12.6-13,25-25.7,25-47.4
		C444.1,234.3,431.7,221.6,419.1,208.6z"/>
	<path class="st1" d="M316.1,188.7c-26,28-52.2,56.2-78,83.9c-3.1,3.3-7.7,2.8-10.9-0.2l-32.6-30.3c-3.7-3.5-9.6-3.2-13,0.5
		L169,256.1c-3.5,3.7-3.2,9.6,0.5,13l58.8,54.7c3.7,3.5,9.6,3.2,13-0.5L343,213.8c3.5-3.7,3.2-9.6-0.5-13l-13.4-12.5
		C325.4,184.8,319.5,185,316.1,188.7L316.1,188.7L316.1,188.7z"/>
</g>
</svg>
