<?xml version="1.0" encoding="utf-8"?>
<!-- Generator: Adobe Illustrator 25.0.0, SVG Export Plug-In . SVG Version: 6.00 Build 0)  -->
<svg version="1.1" id="Layer_1" xmlns="http://www.w3.org/2000/svg" xmlns:xlink="http://www.w3.org/1999/xlink" x="0px" y="0px"
	 viewBox="0 0 512 512" style="enable-background:new 0 0 512 512;" xml:space="preserve">
<style type="text/css">
	.st0{fill:#002A64;}
	.st1{fill:#0084FF;}
</style>
<g>
	<path class="st0" d="M433.7,159.2L397.9,220c2.8,11.1,4.4,22.7,4.4,34.4c0,0.2,0,0.4,0,0.6c0,2.2,0,4.4-0.1,6.5
		c0,0.6-0.1,1.1-0.1,1.7c-0.1,1.8-0.2,3.6-0.4,5.4c-0.1,1.1-0.3,2.1-0.4,3.2c-0.1,1.3-0.3,2.6-0.5,3.9c-0.3,2.4-0.7,4.7-1.2,7.1v0.1
		c-0.5,2.4-1,4.7-1.6,7.1c-0.1,0.3-0.2,0.7-0.3,1.1c-0.5,2-1,4-1.6,6c-0.2,0.6-0.4,1.2-0.6,1.8c-0.5,1.7-1.1,3.4-1.7,5.1
		c-0.1,0.2-0.1,0.3-0.2,0.5c-0.5,1.4-1.1,2.9-1.6,4.3c-0.2,0.4-0.3,0.8-0.5,1.2c-0.8,2.1-1.8,4.2-2.7,6.3c-1,2.1-2,4.2-3,6.2
		c-0.1,0.1-0.1,0.2-0.2,0.3c-1,2-2.1,3.9-3.2,5.8c0,0.1-0.1,0.1-0.1,0.2c-4.7,8.1-10.1,15.7-16.1,22.6c-0.1,0.1-0.2,0.3-0.4,0.4
		c-1.3,1.5-2.6,2.9-3.9,4.3c-0.4,0.5-0.9,0.9-1.3,1.4c-1,1-2,2.1-3.1,3.1c-0.6,0.6-1.3,1.2-1.9,1.8c-0.8,0.7-1.6,1.4-2.4,2.1
		c-3.5,3.1-7.2,6.1-11.1,9c-0.1,0.1-0.3,0.2-0.4,0.3c-1.5,1.1-3,2.1-4.5,3.2c0,0,0,0,0,0c-11.1,7.4-23.5,13.5-36.8,17.8
		c-7.2,2.3-14.5,4-21.8,5.1l0,0c-0.4,0.1-0.8,0.1-1.3,0.2c-0.4,0.1-0.7,0.1-1.1,0.2c-1.4,0.2-2.9,0.4-4.3,0.5
		c-0.5,0-0.9,0.1-1.4,0.1c-1.7,0.2-3.5,0.3-5.2,0.4c-0.4,0-0.8,0.1-1.2,0.1c-1.3,0.1-2.6,0.1-4,0.2c-0.7,0-1.5,0-2.2,0.1
		c-1,0-2,0-3,0c-0.8,0-1.6,0-2.4,0c-1,0-2-0.1-3-0.1c-1.2-0.1-2.4-0.1-3.6-0.2c-1.1-0.1-2.1-0.1-3.2-0.2c-0.9-0.1-1.8-0.2-2.7-0.3
		c-0.8-0.1-1.6-0.2-2.5-0.3c-0.9-0.1-1.8-0.2-2.7-0.4c-0.8-0.1-1.6-0.3-2.3-0.4c-0.9-0.1-1.8-0.3-2.8-0.5c-0.8-0.1-1.6-0.3-2.3-0.5
		c-1.6-0.3-3.2-0.7-4.8-1c-0.8-0.2-1.6-0.4-2.4-0.6c-0.9-0.2-1.7-0.5-2.6-0.7c-0.8-0.2-1.7-0.5-2.5-0.7c-0.8-0.2-1.6-0.5-2.4-0.7
		c-1-0.3-1.9-0.6-2.9-0.9c-0.4-0.1-0.9-0.3-1.3-0.4v0c-0.5-0.2-1-0.3-1.5-0.5c-20.2-7.2-37.7-18.3-52.2-32.2v0c-0.7-0.6-1.4-1.3-2-2
		c-0.3-0.3-0.5-0.5-0.8-0.8c-1.5-1.5-2.9-3.1-4.4-4.6c-0.2-0.2-0.3-0.4-0.5-0.6c-9.1-10.2-16.9-21.7-23-34.5c0-0.1-0.1-0.1-0.1-0.2
		c-0.9-2-1.8-4-2.7-6c-0.2-0.4-0.3-0.8-0.5-1.2c-0.6-1.5-1.2-3-1.8-4.5c-0.2-0.6-0.5-1.2-0.7-1.8c-0.6-1.6-1.1-3.2-1.6-4.8
		c0-0.1,0-0.2-0.1-0.3c-0.7-2.3-1.4-4.5-2-6.9c0,0,0-0.1,0-0.1c-3.1-11.7-4.7-23.8-4.9-36.1c0-0.5,0-1,0-1.5c0-1.9,0-3.7,0.1-5.6
		c0-0.9,0.1-1.8,0.2-2.8c0.1-1.4,0.2-2.9,0.3-4.3c0.1-1.7,0.4-3.3,0.6-5c0.1-0.7,0.1-1.4,0.2-2.1c0.7-4.8,1.6-9.6,2.7-14.3
		c0.1-0.2,0.1-0.4,0.2-0.6c0.5-2.2,1.1-4.3,1.8-6.4c0.1-0.5,0.3-1,0.5-1.5c0.6-1.8,1.1-3.6,1.8-5.4c0.1-0.1,0.1-0.3,0.1-0.5
		c0.2-0.7,0.5-1.3,0.7-1.9c0.5-1.4,1.1-2.8,1.6-4.2c0.5-1.1,1-2.3,1.4-3.4c0.4-1,0.9-2,1.3-3c0.6-1.4,1.3-2.8,2-4.1
		c0.3-0.7,0.7-1.4,1-2c0.8-1.6,1.7-3.1,2.5-4.6c0.3-0.5,0.5-0.9,0.8-1.4c1-1.6,1.9-3.2,3-4.9c0.2-0.3,0.5-0.7,0.7-1.1
		c1-1.6,2.1-3.2,3.2-4.8c0.3-0.3,0.5-0.7,0.7-1c1.1-1.5,2.2-3.1,3.4-4.5c0.3-0.4,0.6-0.8,1-1.2c1.1-1.4,2.2-2.7,3.3-4
		c0.5-0.5,0.9-1.1,1.4-1.6c1-1.2,2-2.3,3.1-3.4c0.7-0.7,1.3-1.4,2-2.1c0.9-0.9,1.8-1.8,2.7-2.7c0.9-0.9,1.8-1.7,2.7-2.6
		c0.7-0.6,1.4-1.3,2.2-1.9c1.1-1,2.3-2,3.5-3c0.5-0.5,1.1-0.9,1.6-1.3c1.4-1.1,2.7-2.2,4.2-3.2c0.4-0.3,0.8-0.6,1.2-0.9
		c1.5-1.1,3.1-2.2,4.6-3.3c0.3-0.2,0.7-0.5,1-0.7c1.6-1.1,3.2-2.1,4.9-3.1c0.4-0.2,0.7-0.4,1.1-0.6c1.6-1,3.3-1.9,4.9-2.8
		c0.5-0.3,0.9-0.5,1.4-0.7c1.6-0.8,3.1-1.6,4.7-2.4c0.7-0.3,1.4-0.6,2.1-1c1.4-0.6,2.8-1.3,4.2-1.9c1-0.4,2-0.8,3-1.2
		c1.1-0.5,2.3-0.9,3.4-1.3c1.4-0.5,2.9-1,4.3-1.5c0.7-0.2,1.3-0.5,2-0.7c0.2-0.1,0.3-0.1,0.5-0.1c1.8-0.6,3.6-1.1,5.5-1.6
		c0.5-0.1,1-0.3,1.5-0.4c2.2-0.6,4.3-1.1,6.5-1.5c0.2,0,0.4-0.1,0.6-0.1c4.7-1,9.5-1.8,14.4-2.3c0.7-0.1,1.4-0.1,2.1-0.2
		c1.7-0.2,3.3-0.3,5-0.4c1.5-0.1,2.9-0.1,4.4-0.1c0.9,0,1.8-0.1,2.7-0.1c1.9,0,3.7,0,5.6,0.1c0.5,0,1,0,1.5,0
		c12.3,0.5,24.3,2.5,35.9,6c0,0,0.1,0,0.1,0.1c2.3,0.7,4.5,1.4,6.8,2.2c0.1,0,0.2,0.1,0.3,0.1c0.4,0.1,0.8,0.3,1.2,0.5
		c1.8,0.6,3.5,1.3,5.2,2c0.9,0.4,1.7,0.8,2.6,1.1c1.2,0.5,2.5,1.1,3.8,1.7c1.2,0.5,2.4,1.1,3.5,1.7c0.9,0.4,1.8,0.9,2.7,1.3
		c1.4,0.7,2.8,1.5,4.1,2.3c0.6,0.4,1.3,0.7,1.9,1.1c1.5,0.9,3,1.8,4.4,2.7c0.5,0.3,1,0.6,1.5,1c1.5,1,3,2,4.4,3
		c0.5,0.3,0.9,0.6,1.4,1c1.4,1,2.8,2.1,4.2,3.2c0.5,0.4,1,0.8,1.5,1.2c0.3,0.2,0.5,0.4,0.8,0.6l28.4-48.5
		c-33.6-25.1-75.3-39.9-120.4-39.9c-111.5,0-201.8,90.4-201.8,201.8c0,111.4,90.3,201.8,201.8,201.8S458.1,367,458.1,255.5
		C458.1,220.7,449.2,187.8,433.7,159.2z"/>
	<path class="st1" d="M463.9,31.5l-7.3,86.8l-18.5-12.9L330.9,287.8L240.6,244l-71.6,101.3c-0.4-0.4-0.8-0.8-1.1-1.1
		c-0.2-0.2-0.5-0.5-0.7-0.7c-1.3-1.3-2.5-2.6-3.8-4c-0.1-0.2-0.3-0.3-0.4-0.5c-1.5-1.6-2.9-3.3-4.3-5.1L226,195.4l91.2,46.5
		L408.9,85l-23.3-16.2L463.9,31.5z"/>
</g>
</svg>
