<?xml version="1.0" encoding="utf-8"?>
<!-- Generator: Adobe Illustrator 25.0.0, SVG Export Plug-In . SVG Version: 6.00 Build 0)  -->
<svg version="1.1" id="Layer_1" xmlns="http://www.w3.org/2000/svg" xmlns:xlink="http://www.w3.org/1999/xlink" x="0px" y="0px"
	 viewBox="0 0 512 512" style="enable-background:new 0 0 512 512;" xml:space="preserve">
<style type="text/css">
	.st0{fill:url(#SVGID_1_);}
	.st1{fill:url(#SVGID_2_);}
	.st2{fill:url(#SVGID_3_);}
	.st3{fill:url(#SVGID_4_);}
	.st4{fill:url(#SVGID_5_);}
	.st5{fill:#E00000;}
	.st6{fill:#351A05;}
	.st7{fill:#FF8D8D;}
</style>
<linearGradient id="SVGID_1_" gradientUnits="userSpaceOnUse" x1="32.6105" y1="256" x2="479.3895" y2="256">
	<stop  offset="0" style="stop-color:#DEC45B"/>
	<stop  offset="0.3408" style="stop-color:#A3791E"/>
	<stop  offset="0.6927" style="stop-color:#ECD76A"/>
	<stop  offset="1" style="stop-color:#A0760F"/>
</linearGradient>
<circle class="st0" cx="256" cy="256" r="223.4"/>
<circle cx="256" cy="256" r="208"/>
<g>
	<g>
		<linearGradient id="SVGID_2_" gradientUnits="userSpaceOnUse" x1="87.9263" y1="239.9927" x2="424.0737" y2="239.9927">
			<stop  offset="0" style="stop-color:#A3791E"/>
			<stop  offset="0.5698" style="stop-color:#ECD76A"/>
			<stop  offset="1" style="stop-color:#A0760F"/>
		</linearGradient>
		<path class="st1" d="M410.9,217.1c-7.2,0-13.1,5.9-13.1,13.1c0,4,1.8,7.6,4.7,10c-14.5,12-47.5,31.6-90.2,9.3
			c0,0-37.3-19.9-54-73.3c6.1-1.1,10.7-6.5,10.7-12.9c0-7.2-5.9-13.1-13.1-13.1c-7.2,0-13.1,5.9-13.1,13.1c0,6.4,4.6,11.7,10.6,12.9
			c-16.7,53.4-54,73.3-54,73.3c-42.3,22-75,3-89.7-9c2.7-2.4,4.5-5.9,4.5-9.9c0-7.3-5.9-13.1-13.1-13.1c-7.3,0-13.1,5.9-13.1,13.1
			c0,7.2,5.9,13.1,13.1,13.1c1.7,0,3.3-0.3,4.8-0.9l39.1,86.7h222l39.3-87.2c1.5,0.6,3.1,0.9,4.8,0.9c7.2,0,13.1-5.9,13.1-13.1
			C424.1,223,418.2,217.1,410.9,217.1z M155.4,302c-5.4,0-9.7-4.4-9.7-9.7c0-5.4,4.4-9.7,9.7-9.7c5.4,0,9.7,4.4,9.7,9.7
			C165.2,297.6,160.8,302,155.4,302z M193.1,301.2c-7.8,0-14.1-6.3-14.1-14.1s6.3-14.1,14.1-14.1s14.1,6.3,14.1,14.1
			S200.9,301.2,193.1,301.2z M318.8,300.4c-7.4,0-13.4-6-13.4-13.4c0-7.4,6-13.4,13.4-13.4c7.4,0,13.4,6,13.4,13.4
			C332.2,294.4,326.2,300.4,318.8,300.4z M356.5,301c-5.3,0-9.7-4.3-9.7-9.7c0-5.3,4.3-9.7,9.7-9.7c5.3,0,9.7,4.3,9.7,9.7
			C366.2,296.6,361.8,301,356.5,301z"/>
		<linearGradient id="SVGID_3_" gradientUnits="userSpaceOnUse" x1="151.9995" y1="182.3879" x2="183.04" y2="246.0303">
			<stop  offset="0" style="stop-color:#DEC45B"/>
			<stop  offset="0.3408" style="stop-color:#A3791E"/>
			<stop  offset="0.6927" style="stop-color:#ECD76A"/>
			<stop  offset="1" style="stop-color:#A0760F"/>
		</linearGradient>
		<path class="st2" d="M163.6,204.5c0.5,0,1,0,1.5-0.1c0.5,9.3,0.9,27.6-1.5,46.5c0,0,21.5-3.2,33.2-12.5c0,0-17.6-16-27.8-35.1
			c4.5-2.1,7.7-6.6,7.7-11.9c0-7.2-5.9-13.1-13.1-13.1s-13.1,5.9-13.1,13.1S156.3,204.5,163.6,204.5z"/>
		<linearGradient id="SVGID_4_" gradientUnits="userSpaceOnUse" x1="331.7223" y1="246.2664" x2="364.0225" y2="180.0412">
			<stop  offset="0" style="stop-color:#A0760F"/>
			<stop  offset="0.3073" style="stop-color:#ECD76A"/>
			<stop  offset="0.6592" style="stop-color:#A3791E"/>
			<stop  offset="1" style="stop-color:#DEC45B"/>
		</linearGradient>
		<path class="st3" d="M349.6,201.9c1,0.2,2,0.4,3.1,0.4c7.2,0,13.1-5.9,13.1-13.1c0-7.2-5.9-13.1-13.1-13.1
			c-7.2,0-13.1,5.9-13.1,13.1c0,5.1,2.9,9.6,7.2,11.7c-9.8,20.2-29.1,37.6-29.1,37.6c11.7,9.2,33.2,12.5,33.2,12.5
			C348.2,230.1,349.1,210,349.6,201.9z"/>
	</g>
	<linearGradient id="SVGID_5_" gradientUnits="userSpaceOnUse" x1="144.1761" y1="345.4661" x2="366.1732" y2="345.4661">
		<stop  offset="0" style="stop-color:#A3791E"/>
		<stop  offset="0.5698" style="stop-color:#ECD76A"/>
		<stop  offset="1" style="stop-color:#A0760F"/>
	</linearGradient>
	<rect x="144.2" y="337.2" class="st4" width="222" height="16.4"/>
</g>
<g>
	<g>
		<ellipse class="st5" cx="255.9" cy="274.4" rx="17.5" ry="28.1"/>
		<path class="st6" d="M255.9,305.9c-10.8,0-19.7-14.1-19.7-31.5c0-17.4,8.8-31.5,19.7-31.5c10.8,0,19.7,14.2,19.7,31.5
			C275.6,291.8,266.7,305.9,255.9,305.9z M255.9,249.6c-8.5,0-15.4,11.1-15.4,24.7c0,13.6,6.9,24.7,15.4,24.7
			c8.5,0,15.4-11.1,15.4-24.7C271.3,260.7,264.4,249.6,255.9,249.6z"/>
	</g>
	<g>
		<path class="st7" d="M255.9,255.2c-4.1,0-7.3,3.3-7.3,7.3c0,4,3.3,7.3,7.3,7.3c4.1,0,7.3-3.3,7.3-7.3
			C263.2,258.5,260,255.2,255.9,255.2z"/>
	</g>
</g>
</svg>
