<?xml version="1.0" encoding="utf-8"?>
<!-- Generator: Adobe Illustrator 25.0.0, SVG Export Plug-In . SVG Version: 6.00 Build 0)  -->
<svg version="1.1" id="Layer_1" xmlns="http://www.w3.org/2000/svg" xmlns:xlink="http://www.w3.org/1999/xlink" x="0px" y="0px"
	 viewBox="0 0 1000 1000" style="enable-background:new 0 0 1000 1000;" xml:space="preserve">
<style type="text/css">
	.st0{fill:#939393;}
	.st1{fill:#A8A8A8;}
</style>
<g>
	<path class="st0" d="M541.8,484.8h-83.6c-10.8,0-19.5,8.8-19.5,19.5v9.2v16.7V557c0,10.8,8.7,19.5,19.5,19.5h83.6
		c10.8,0,19.5-8.7,19.5-19.5v-26.8v-16.7v-9.2C561.3,493.6,552.5,484.8,541.8,484.8z M545.3,555.2c0,2.9-2.4,5.3-5.3,5.3h-32v-12.7
		h18.5c1.9,0,3.5-1.6,3.5-3.5v-27.4c0-1.9-1.6-3.5-3.5-3.5h-53c-1.9,0-3.5,1.6-3.5,3.5v27.4c0,1.9,1.6,3.5,3.5,3.5H492v12.7h-32
		c-2.9,0-5.3-2.4-5.3-5.3v-49.1c0-2.9,2.4-5.3,5.3-5.3H540c2.9,0,5.3,2.4,5.3,5.3V555.2z"/>
	<path class="st1" d="M686.7,370.4h-83.2l-9.6-38.1l-0.2-0.5c-5.3-16.1-20.4-27-37.5-27H443.9c-17.1,0-32.1,10.8-37.5,27l-9.8,38.6
		h-83.3c-22.6,0-40.9,18.3-40.9,40.9v242.9c0,22.5,18.3,40.9,40.9,40.9h373.4c22.5,0,40.9-18.3,40.9-40.9V411.3
		C727.6,388.8,709.2,370.4,686.7,370.4z M421.7,336.6c3.2-9.4,12.1-15.7,22.2-15.7h112.4c10.1,0,19,6.3,22.2,15.7l8.6,33.8H413.1
		L421.7,336.6z M711.6,469.9l-150.3,43.6v16.7l150.3-43.6v167.7c0,13.7-11.2,24.9-24.9,24.9H313.3c-13.7,0-24.9-11.2-24.9-24.9
		V486.6l150.3,43.6v-16.7l-150.3-43.6v-58.6c0-13.7,11.2-24.9,24.9-24.9h373.4c13.7,0,24.9,11.2,24.9,24.9V469.9z"/>
</g>
</svg>
