<?xml version="1.0" encoding="utf-8"?>
<!-- Generator: Adobe Illustrator 25.0.0, SVG Export Plug-In . SVG Version: 6.00 Build 0)  -->
<svg version="1.1" id="Layer_1" xmlns="http://www.w3.org/2000/svg" xmlns:xlink="http://www.w3.org/1999/xlink" x="0px" y="0px"
	 viewBox="0 0 512 512" style="enable-background:new 0 0 512 512;" xml:space="preserve">
<style type="text/css">
	.st0{fill:#EF4136;}
	.st1{fill:#840300;}
	.st2{fill:#FFFFFF;}
</style>
<g>
	<path class="st0" d="M512.1,256c0-37-19.1-64-50.4-81.8c-2-1.2-3.1-3.6-2.5-5.9c9.6-35.2,4-67.5-22.3-93.6
		c-26.2-26-58.5-31.5-93.2-21.9c-2.3,0.6-4.7-0.4-5.9-2.5c-18-31.7-45-50.5-81.9-50.4c-36.8,0.1-63.7,19-81.4,50.5
		c-1.2,2.1-3.7,3.1-6.1,2.4c-15.4-4.7-31-5.7-46.8-2.5c-19.2,3.9-36.5,12.1-49.4,27.1c-23,26.8-28.9,57.7-18.7,91.5
		c0.8,2.8,0.2,3.9-2.2,5.1c-12.1,6.1-22.4,14.5-30.9,25.1c-13.4,16.8-21.5,36-20.6,57.4c1.5,36.1,19.1,63.1,50.7,80.9c0,0,0,0,0,0
		c2.1,1.2,3.2,3.6,2.5,6c-9.8,35-4.3,67.3,21.7,93.4c26.1,26.1,58.5,31.7,93.5,22.2c2.3-0.6,4.7,0.4,5.9,2.5
		c18,31.7,45,50.5,81.9,50.4c36.8,0,63.8-18.9,81.5-50.3c1.2-2.1,3.7-3.1,6-2.4c35.1,10.4,67,4.4,93.5-22.1
		c26.6-26.5,32.6-58.5,22.1-93.6c-0.7-2.3,0.3-4.8,2.4-6C493.3,319.9,512.1,292.8,512.1,256z"/>
</g>
<g>
	<path class="st1" d="M353.3,397.1c-10.1,0-19.7-4-26.9-11.1l-56.7-56.7L213,385.9c-7.2,7.2-16.7,11.1-26.9,11.1
		c-10.1,0-19.7-4-26.9-11.1c-14.8-14.8-14.8-38.9,0-53.7l56.7-56.7l-56.7-56.7c-14.8-14.8-14.8-38.9,0-53.7
		c7.2-7.2,16.7-11.1,26.9-11.1s19.7,4,26.9,11.1l56.7,56.7l56.7-56.7c7.2-7.2,16.7-11.1,26.9-11.1c10.1,0,19.7,4,26.9,11.1
		c14.8,14.8,14.8,38.9,0,53.7l-56.7,56.7l56.7,56.7c14.8,14.8,14.8,38.9,0,53.7C372.9,393.1,363.4,397.1,353.3,397.1z"/>
	<path class="st2" d="M344.1,360.6c-7.4,0-14.3-2.9-19.6-8.1l-61-61l-61,61c-5.2,5.2-12.2,8.1-19.6,8.1c-7.4,0-14.3-2.9-19.6-8.1
		c-10.8-10.8-10.8-28.3,0-39.1l61-61l-61-61c-10.8-10.8-10.8-28.3,0-39.1c5.2-5.2,12.2-8.1,19.6-8.1c7.4,0,14.3,2.9,19.6,8.1l61,61
		l61-61c5.2-5.2,12.2-8.1,19.6-8.1s14.3,2.9,19.6,8.1c10.8,10.8,10.8,28.3,0,39.1l-61,61l61,61c10.8,10.8,10.8,28.3,0,39.1
		C358.4,357.8,351.5,360.6,344.1,360.6z"/>
</g>
</svg>
